M48
; DRILL file {KiCad 8.0.6-8.0.6-0~ubuntu22.04.1} date 2024-11-29T09:43:16+0000
; FORMAT={-:-/ absolute / metric / decimal}
; #@! TF.CreationDate,2024-11-29T09:43:16+00:00
; #@! TF.GenerationSoftware,Kicad,Pcbnew,8.0.6-8.0.6-0~ubuntu22.04.1
; #@! TF.FileFunction,Plated,1,2,PTH
FMAT,2
METRIC
; #@! TA.AperFunction,Plated,PTH,ViaDrill
T1C0.300
; #@! TA.AperFunction,Plated,PTH,ComponentDrill
T2C0.800
; #@! TA.AperFunction,Plated,PTH,ComponentDrill
T3C1.000
; #@! TA.AperFunction,Plated,PTH,ComponentDrill
T4C1.100
; #@! TA.AperFunction,Plated,PTH,ComponentDrill
T5C1.200
; #@! TA.AperFunction,Plated,PTH,ComponentDrill
T6C2.200
%
G90
G05
T1
X58.975Y-141.4
X59.0Y-122.15
X59.45Y-66.55
X62.15Y-68.35
X63.65Y-75.2
X63.7Y-90.3
X63.95Y-67.55
X64.65Y-73.1
X64.65Y-92.95
X67.45Y-77.1
X67.55Y-122.9
X68.9Y-71.2
X69.7Y-70.25
X70.7Y-69.4
X73.25Y-126.85
X73.25Y-144.7
X73.6Y-66.7
X73.6Y-99.1
X73.6Y-122.9
X74.65Y-61.05
X74.7Y-109.2
X75.5Y-111.1
X75.55Y-62.85
X76.65Y-63.4
X76.65Y-81.15
X76.75Y-107.15
X76.8Y-110.35
X77.55Y-105.0
X77.6Y-115.85
X77.8Y-64.05
X77.85Y-83.15
X78.4Y-97.0
X78.4Y-122.1
X78.95Y-126.3
X79.2Y-79.15
X79.2Y-124.3
X80.1Y-125.65
X80.2Y-85.05
X80.2Y-123.45
X80.85Y-122.55
X80.95Y-87.05
X81.25Y-125.1
X82.3Y-135.15
X83.698Y-141.4
X86.05Y-121.4
X86.05Y-141.25
X88.1Y-120.7
X88.15Y-140.35
X89.7Y-141.25
X90.15Y-119.95
X90.15Y-139.15
X92.0Y-64.75
X92.1Y-119.2
X92.1Y-138.0
X92.45Y-140.35
X94.0Y-68.35
X94.05Y-118.55
X94.1Y-137.2
X95.05Y-139.2
X96.0Y-67.65
X96.05Y-117.8
X96.05Y-136.2
X96.8Y-127.65
X98.05Y-117.35
X98.15Y-67.55
X98.8Y-140.05
X100.0Y-65.6
X100.0Y-135.25
X100.05Y-116.7
X100.1Y-136.25
X101.45Y-140.0
X101.45Y-142.3
X102.05Y-68.4
X102.05Y-116.1
X102.7Y-138.0
X103.95Y-142.9
X105.1Y-137.2
X105.75Y-115.4
X105.85Y-142.15
X106.5Y-139.15
X107.7Y-140.65
X108.7Y-111.1
X108.8Y-109.1
X108.9Y-142.6
X109.0Y-107.1
X109.1Y-105.1
X109.15Y-93.1
X109.15Y-95.1
X109.2Y-97.1
X109.2Y-99.1
X109.2Y-103.1
X109.25Y-101.1
X109.486Y-139.2
X109.95Y-135.3
X110.6Y-67.65
X110.6Y-136.25
X111.1Y-133.326
X111.2Y-134.45
X111.5Y-132.45
X111.75Y-66.0
X111.75Y-68.4
X111.85Y-63.45
X111.9Y-131.35
X112.3Y-130.55
X112.65Y-66.6
X112.7Y-71.15
X112.7Y-129.6
X113.25Y-128.75
X113.3Y-67.3
X113.3Y-73.1
X113.55Y-81.1
X113.9Y-67.95
X113.9Y-140.75
X113.95Y-75.0
X114.0Y-83.1
X114.0Y-85.1
X114.486Y-89.112
X114.55Y-91.1
X114.625Y-124.9
X114.75Y-77.05
X114.8Y-68.55
X114.95Y-87.1
X115.1Y-138.1
X115.25Y-125.4
X115.7Y-81.1
X115.7Y-126.1
X115.85Y-69.25
X115.85Y-79.1
X116.25Y-83.25
X116.25Y-126.9
X116.767Y-84.934
X116.9Y-127.6
X116.95Y-70.0
X116.95Y-87.15
X117.3Y-92.8
X117.45Y-90.426
X117.476Y-97.1
X117.55Y-87.876
X117.85Y-137.25
X117.949Y-101.063
X117.976Y-93.476
X118.0Y-70.65
X118.076Y-98.376
X118.6Y-109.0
X118.7Y-101.338
X118.85Y-103.733
X118.85Y-106.303
X119.2Y-111.1
X120.422Y-140.65
X120.85Y-116.1
X121.75Y-133.05
X122.05Y-115.4
X123.0Y-139.2
X124.2Y-142.05
X124.9Y-83.0
X124.9Y-116.7
X125.3Y-64.15
X125.6Y-85.55
X125.6Y-117.35
X126.45Y-88.15
X126.45Y-118.0
X126.95Y-133.8
X127.35Y-90.55
X127.35Y-118.8
X128.1Y-128.95
X128.2Y-119.4
X128.25Y-93.3
X129.0Y-120.0
X129.05Y-95.8
X129.4Y-134.45
X129.75Y-98.35
X129.75Y-120.6
X130.1Y-70.65
X130.15Y-79.9
X130.5Y-100.9
X130.5Y-121.35
X130.591Y-70.019
X130.95Y-79.1
X131.117Y-69.416
X131.3Y-122.55
X131.662Y-68.83
X131.85Y-78.35
X131.9Y-136.25
X132.165Y-68.208
X132.5Y-123.3
X132.648Y-67.57
X132.75Y-77.75
X133.173Y-66.966
X133.3Y-139.05
X133.35Y-115.75
X133.65Y-76.95
X133.683Y-66.35
X133.8Y-140.65
X134.257Y-65.793
X134.5Y-76.25
X134.5Y-135.3
X134.8Y-65.2
X134.8Y-103.85
X135.0Y-123.95
X135.2Y-115.8
X135.35Y-75.6
X135.4Y-93.1
X135.8Y-90.45
X136.05Y-138.2
X136.15Y-74.8
X136.7Y-98.4
X137.0Y-106.7
X137.35Y-74.0
X137.35Y-74.9
X137.45Y-100.85
X137.6Y-107.6
X138.0Y-137.3
X138.15Y-115.7
X138.2Y-75.65
X138.2Y-88.0
X138.25Y-55.05
X138.25Y-62.9
X138.85Y-90.4
X138.95Y-76.3
X139.55Y-77.05
X139.55Y-106.65
X139.55Y-107.55
X139.55Y-133.2
X140.15Y-98.26
X140.45Y-77.8
X140.45Y-93.05
X140.9Y-132.45
X141.3Y-78.45
X141.3Y-95.7
X141.35Y-103.8
X141.7Y-120.15
X141.75Y-115.7
X142.05Y-131.35
X142.3Y-79.3
X142.35Y-85.45
X142.75Y-130.25
X144.55Y-79.9
X144.65Y-129.6
X146.65Y-74.05
X146.986Y-141.95
X147.65Y-62.85
X147.9Y-54.85
T2
X84.05Y-73.1
X84.05Y-75.1
X84.05Y-77.1
X84.05Y-79.1
X84.05Y-81.1
X84.05Y-83.1
X84.05Y-85.1
X84.05Y-87.1
X84.05Y-89.1
X84.05Y-91.1
X84.05Y-93.1
X84.05Y-95.1
X84.05Y-97.1
X84.05Y-99.1
X84.05Y-101.1
X84.05Y-103.1
X84.05Y-105.1
X84.05Y-107.1
X84.05Y-109.1
X84.05Y-111.1
X86.05Y-71.1
X86.05Y-113.1
X88.05Y-71.1
X88.05Y-113.1
X90.05Y-71.1
X90.05Y-113.1
X92.05Y-71.1
X92.05Y-113.1
X94.05Y-71.1
X94.05Y-113.1
X96.05Y-71.1
X96.05Y-113.1
X98.05Y-71.1
X98.05Y-113.1
X100.05Y-71.1
X100.05Y-113.1
X102.05Y-71.1
X102.05Y-113.1
X104.05Y-71.1
X104.05Y-113.1
X106.05Y-73.1
X106.05Y-75.1
X106.05Y-77.1
X106.05Y-79.1
X106.05Y-81.1
X106.05Y-83.1
X106.05Y-85.1
X106.05Y-87.1
X106.05Y-89.1
X106.05Y-91.1
X106.05Y-93.1
X106.05Y-95.1
X106.05Y-97.1
X106.05Y-99.1
X106.05Y-101.1
X106.05Y-103.1
X106.05Y-105.1
X106.05Y-107.1
X106.05Y-109.1
X106.05Y-111.1
T3
X56.52Y-56.95
X59.06Y-56.95
X61.6Y-56.95
X64.14Y-56.95
X67.1Y-87.825
X67.1Y-90.365
X67.1Y-92.905
X67.1Y-95.445
X67.1Y-97.985
X67.1Y-100.525
X67.1Y-110.72
X67.1Y-113.26
X67.1Y-115.8
X120.7Y-72.85
X120.7Y-75.39
X120.7Y-77.93
X120.7Y-80.47
X120.7Y-83.01
X120.7Y-85.55
X120.7Y-88.09
X120.7Y-90.63
X120.7Y-93.17
X120.7Y-95.71
X120.7Y-98.25
X120.7Y-100.79
X120.7Y-103.33
X120.7Y-105.87
X120.7Y-108.41
X120.7Y-110.95
X132.7Y-83.03
X132.7Y-85.57
X132.7Y-88.11
X132.7Y-90.65
X132.7Y-93.19
X132.7Y-95.73
X132.7Y-98.27
X132.7Y-100.81
X132.75Y-106.76
X132.75Y-109.3
X144.5Y-106.66
X144.5Y-109.2
X144.55Y-83.02
X144.55Y-85.56
X144.55Y-88.1
X144.55Y-90.64
X144.55Y-93.18
X144.55Y-95.72
X144.55Y-98.26
X144.55Y-100.8
T4
X85.05Y-56.45
X85.05Y-60.95
X91.55Y-56.45
X91.55Y-60.95
X98.467Y-56.567
X98.467Y-61.067
X104.967Y-56.567
X104.967Y-61.067
X111.883Y-56.683
X111.883Y-61.183
X118.383Y-56.683
X118.383Y-61.183
X125.3Y-56.8
X125.3Y-61.3
X131.8Y-56.8
X131.8Y-61.3
T5
X77.242Y-144.948
X77.242Y-150.028
X79.782Y-144.948
X79.782Y-150.028
X82.322Y-144.948
X82.322Y-150.028
X84.862Y-144.948
X84.862Y-150.028
X89.942Y-144.948
X89.942Y-150.028
X92.482Y-144.948
X92.482Y-150.028
X95.022Y-144.948
X95.022Y-150.028
X97.562Y-144.948
X97.562Y-150.028
X100.102Y-144.948
X100.102Y-150.028
X102.642Y-144.948
X102.642Y-150.028
X105.182Y-144.948
X105.182Y-150.028
X107.722Y-144.948
X107.722Y-150.028
X110.262Y-144.948
X110.262Y-150.028
X112.802Y-144.948
X112.802Y-150.028
X115.342Y-144.948
X115.342Y-150.028
X117.882Y-144.948
X117.882Y-150.028
X120.422Y-144.948
X120.422Y-150.028
X122.962Y-144.948
X122.962Y-150.028
X125.502Y-144.948
X125.502Y-150.028
X128.042Y-144.948
X128.042Y-150.028
X130.582Y-144.948
X130.582Y-150.028
X133.122Y-144.948
X133.122Y-150.028
X135.662Y-144.948
X135.662Y-150.028
X138.202Y-144.948
X138.202Y-150.028
X140.742Y-144.948
X140.742Y-150.028
X143.282Y-144.948
X143.282Y-150.028
X145.822Y-144.948
X145.822Y-150.028
T6
X58.975Y-136.35
X67.5Y-136.25
X76.025Y-136.15
M30
