%TF.GenerationSoftware,KiCad,Pcbnew,8.0.6-8.0.6-0~ubuntu22.04.1*%
%TF.CreationDate,2024-11-29T09:43:17+00:00*%
%TF.ProjectId,zx-spectrum-pico-dma,7a782d73-7065-4637-9472-756d2d706963,rev?*%
%TF.SameCoordinates,Original*%
%TF.FileFunction,Drillmap*%
%TF.FilePolarity,Positive*%
%FSLAX45Y45*%
G04 Gerber Fmt 4.5, Leading zero omitted, Abs format (unit mm)*
G04 Created by KiCad (PCBNEW 8.0.6-8.0.6-0~ubuntu22.04.1) date 2024-11-29 09:43:17*
%MOMM*%
%LPD*%
G01*
G04 APERTURE LIST*
%ADD10C,0.100000*%
%ADD11C,0.200000*%
%ADD12C,0.110000*%
%ADD13C,0.120000*%
%ADD14C,0.220000*%
G04 APERTURE END LIST*
D10*
X5162400Y-5307600D02*
X14978800Y-5307600D01*
X14978800Y-15298600D01*
X5162400Y-15298600D01*
X5162400Y-5307600D01*
D11*
D10*
X5882500Y-14125000D02*
X5912500Y-14155000D01*
X5912500Y-14125000D02*
X5882500Y-14155000D01*
X5885000Y-12200000D02*
X5915000Y-12230000D01*
X5915000Y-12200000D02*
X5885000Y-12230000D01*
X5930000Y-6640000D02*
X5960000Y-6670000D01*
X5960000Y-6640000D02*
X5930000Y-6670000D01*
X6200000Y-6820000D02*
X6230000Y-6850000D01*
X6230000Y-6820000D02*
X6200000Y-6850000D01*
X6350000Y-7505000D02*
X6380000Y-7535000D01*
X6380000Y-7505000D02*
X6350000Y-7535000D01*
X6355000Y-9015000D02*
X6385000Y-9045000D01*
X6385000Y-9015000D02*
X6355000Y-9045000D01*
X6380000Y-6740000D02*
X6410000Y-6770000D01*
X6410000Y-6740000D02*
X6380000Y-6770000D01*
X6450000Y-7295000D02*
X6480000Y-7325000D01*
X6480000Y-7295000D02*
X6450000Y-7325000D01*
X6450000Y-9280000D02*
X6480000Y-9310000D01*
X6480000Y-9280000D02*
X6450000Y-9310000D01*
X6730000Y-7695000D02*
X6760000Y-7725000D01*
X6760000Y-7695000D02*
X6730000Y-7725000D01*
X6740000Y-12275000D02*
X6770000Y-12305000D01*
X6770000Y-12275000D02*
X6740000Y-12305000D01*
X6875000Y-7105000D02*
X6905000Y-7135000D01*
X6905000Y-7105000D02*
X6875000Y-7135000D01*
X6955000Y-7010000D02*
X6985000Y-7040000D01*
X6985000Y-7010000D02*
X6955000Y-7040000D01*
X7055000Y-6925000D02*
X7085000Y-6955000D01*
X7085000Y-6925000D02*
X7055000Y-6955000D01*
X7310000Y-12670000D02*
X7340000Y-12700000D01*
X7340000Y-12670000D02*
X7310000Y-12700000D01*
X7310000Y-14455000D02*
X7340000Y-14485000D01*
X7340000Y-14455000D02*
X7310000Y-14485000D01*
X7345000Y-6655000D02*
X7375000Y-6685000D01*
X7375000Y-6655000D02*
X7345000Y-6685000D01*
X7345000Y-9895000D02*
X7375000Y-9925000D01*
X7375000Y-9895000D02*
X7345000Y-9925000D01*
X7345000Y-12275000D02*
X7375000Y-12305000D01*
X7375000Y-12275000D02*
X7345000Y-12305000D01*
X7450000Y-6090000D02*
X7480000Y-6120000D01*
X7480000Y-6090000D02*
X7450000Y-6120000D01*
X7455000Y-10905000D02*
X7485000Y-10935000D01*
X7485000Y-10905000D02*
X7455000Y-10935000D01*
X7535000Y-11095000D02*
X7565000Y-11125000D01*
X7565000Y-11095000D02*
X7535000Y-11125000D01*
X7540000Y-6270000D02*
X7570000Y-6300000D01*
X7570000Y-6270000D02*
X7540000Y-6300000D01*
X7650000Y-6325000D02*
X7680000Y-6355000D01*
X7680000Y-6325000D02*
X7650000Y-6355000D01*
X7650000Y-8100000D02*
X7680000Y-8130000D01*
X7680000Y-8100000D02*
X7650000Y-8130000D01*
X7660000Y-10700000D02*
X7690000Y-10730000D01*
X7690000Y-10700000D02*
X7660000Y-10730000D01*
X7665000Y-11020000D02*
X7695000Y-11050000D01*
X7695000Y-11020000D02*
X7665000Y-11050000D01*
X7740000Y-10485000D02*
X7770000Y-10515000D01*
X7770000Y-10485000D02*
X7740000Y-10515000D01*
X7745000Y-11570000D02*
X7775000Y-11600000D01*
X7775000Y-11570000D02*
X7745000Y-11600000D01*
X7765000Y-6390000D02*
X7795000Y-6420000D01*
X7795000Y-6390000D02*
X7765000Y-6420000D01*
X7770000Y-8300000D02*
X7800000Y-8330000D01*
X7800000Y-8300000D02*
X7770000Y-8330000D01*
X7825000Y-9685000D02*
X7855000Y-9715000D01*
X7855000Y-9685000D02*
X7825000Y-9715000D01*
X7825000Y-12195000D02*
X7855000Y-12225000D01*
X7855000Y-12195000D02*
X7825000Y-12225000D01*
X7880000Y-12615000D02*
X7910000Y-12645000D01*
X7910000Y-12615000D02*
X7880000Y-12645000D01*
X7905000Y-7900000D02*
X7935000Y-7930000D01*
X7935000Y-7900000D02*
X7905000Y-7930000D01*
X7905000Y-12415000D02*
X7935000Y-12445000D01*
X7935000Y-12415000D02*
X7905000Y-12445000D01*
X7995000Y-12550000D02*
X8025000Y-12580000D01*
X8025000Y-12550000D02*
X7995000Y-12580000D01*
X8005000Y-8490000D02*
X8035000Y-8520000D01*
X8035000Y-8490000D02*
X8005000Y-8520000D01*
X8005000Y-12330000D02*
X8035000Y-12360000D01*
X8035000Y-12330000D02*
X8005000Y-12360000D01*
X8070000Y-12240000D02*
X8100000Y-12270000D01*
X8100000Y-12240000D02*
X8070000Y-12270000D01*
X8080000Y-8690000D02*
X8110000Y-8720000D01*
X8110000Y-8690000D02*
X8080000Y-8720000D01*
X8110000Y-12495000D02*
X8140000Y-12525000D01*
X8140000Y-12495000D02*
X8110000Y-12525000D01*
X8215000Y-13500000D02*
X8245000Y-13530000D01*
X8245000Y-13500000D02*
X8215000Y-13530000D01*
X8354840Y-14125000D02*
X8384840Y-14155000D01*
X8384840Y-14125000D02*
X8354840Y-14155000D01*
X8590000Y-12125000D02*
X8620000Y-12155000D01*
X8620000Y-12125000D02*
X8590000Y-12155000D01*
X8590000Y-14110000D02*
X8620000Y-14140000D01*
X8620000Y-14110000D02*
X8590000Y-14140000D01*
X8795000Y-12055000D02*
X8825000Y-12085000D01*
X8825000Y-12055000D02*
X8795000Y-12085000D01*
X8800000Y-14020000D02*
X8830000Y-14050000D01*
X8830000Y-14020000D02*
X8800000Y-14050000D01*
X8955000Y-14110000D02*
X8985000Y-14140000D01*
X8985000Y-14110000D02*
X8955000Y-14140000D01*
X9000000Y-11980000D02*
X9030000Y-12010000D01*
X9030000Y-11980000D02*
X9000000Y-12010000D01*
X9000000Y-13900000D02*
X9030000Y-13930000D01*
X9030000Y-13900000D02*
X9000000Y-13930000D01*
X9185000Y-6460000D02*
X9215000Y-6490000D01*
X9215000Y-6460000D02*
X9185000Y-6490000D01*
X9195000Y-11905000D02*
X9225000Y-11935000D01*
X9225000Y-11905000D02*
X9195000Y-11935000D01*
X9195000Y-13785000D02*
X9225000Y-13815000D01*
X9225000Y-13785000D02*
X9195000Y-13815000D01*
X9230000Y-14020000D02*
X9260000Y-14050000D01*
X9260000Y-14020000D02*
X9230000Y-14050000D01*
X9385000Y-6820000D02*
X9415000Y-6850000D01*
X9415000Y-6820000D02*
X9385000Y-6850000D01*
X9390000Y-11840000D02*
X9420000Y-11870000D01*
X9420000Y-11840000D02*
X9390000Y-11870000D01*
X9395000Y-13705000D02*
X9425000Y-13735000D01*
X9425000Y-13705000D02*
X9395000Y-13735000D01*
X9490000Y-13905000D02*
X9520000Y-13935000D01*
X9520000Y-13905000D02*
X9490000Y-13935000D01*
X9585000Y-6750000D02*
X9615000Y-6780000D01*
X9615000Y-6750000D02*
X9585000Y-6780000D01*
X9590000Y-11765000D02*
X9620000Y-11795000D01*
X9620000Y-11765000D02*
X9590000Y-11795000D01*
X9590000Y-13605000D02*
X9620000Y-13635000D01*
X9620000Y-13605000D02*
X9590000Y-13635000D01*
X9665000Y-12750000D02*
X9695000Y-12780000D01*
X9695000Y-12750000D02*
X9665000Y-12780000D01*
X9790000Y-11720000D02*
X9820000Y-11750000D01*
X9820000Y-11720000D02*
X9790000Y-11750000D01*
X9800000Y-6740000D02*
X9830000Y-6770000D01*
X9830000Y-6740000D02*
X9800000Y-6770000D01*
X9865000Y-13990000D02*
X9895000Y-14020000D01*
X9895000Y-13990000D02*
X9865000Y-14020000D01*
X9985000Y-6545000D02*
X10015000Y-6575000D01*
X10015000Y-6545000D02*
X9985000Y-6575000D01*
X9985000Y-13510000D02*
X10015000Y-13540000D01*
X10015000Y-13510000D02*
X9985000Y-13540000D01*
X9990000Y-11655000D02*
X10020000Y-11685000D01*
X10020000Y-11655000D02*
X9990000Y-11685000D01*
X9995000Y-13610000D02*
X10025000Y-13640000D01*
X10025000Y-13610000D02*
X9995000Y-13640000D01*
X10130000Y-13985000D02*
X10160000Y-14015000D01*
X10160000Y-13985000D02*
X10130000Y-14015000D01*
X10130000Y-14215000D02*
X10160000Y-14245000D01*
X10160000Y-14215000D02*
X10130000Y-14245000D01*
X10190000Y-6825000D02*
X10220000Y-6855000D01*
X10220000Y-6825000D02*
X10190000Y-6855000D01*
X10190000Y-11595000D02*
X10220000Y-11625000D01*
X10220000Y-11595000D02*
X10190000Y-11625000D01*
X10255000Y-13785000D02*
X10285000Y-13815000D01*
X10285000Y-13785000D02*
X10255000Y-13815000D01*
X10380000Y-14275000D02*
X10410000Y-14305000D01*
X10410000Y-14275000D02*
X10380000Y-14305000D01*
X10495000Y-13705000D02*
X10525000Y-13735000D01*
X10525000Y-13705000D02*
X10495000Y-13735000D01*
X10560000Y-11525000D02*
X10590000Y-11555000D01*
X10590000Y-11525000D02*
X10560000Y-11555000D01*
X10570000Y-14200000D02*
X10600000Y-14230000D01*
X10600000Y-14200000D02*
X10570000Y-14230000D01*
X10635000Y-13900000D02*
X10665000Y-13930000D01*
X10665000Y-13900000D02*
X10635000Y-13930000D01*
X10755000Y-14050000D02*
X10785000Y-14080000D01*
X10785000Y-14050000D02*
X10755000Y-14080000D01*
X10855000Y-11095000D02*
X10885000Y-11125000D01*
X10885000Y-11095000D02*
X10855000Y-11125000D01*
X10865000Y-10895000D02*
X10895000Y-10925000D01*
X10895000Y-10895000D02*
X10865000Y-10925000D01*
X10875000Y-14245000D02*
X10905000Y-14275000D01*
X10905000Y-14245000D02*
X10875000Y-14275000D01*
X10885000Y-10695000D02*
X10915000Y-10725000D01*
X10915000Y-10695000D02*
X10885000Y-10725000D01*
X10895000Y-10495000D02*
X10925000Y-10525000D01*
X10925000Y-10495000D02*
X10895000Y-10525000D01*
X10900000Y-9295000D02*
X10930000Y-9325000D01*
X10930000Y-9295000D02*
X10900000Y-9325000D01*
X10900000Y-9495000D02*
X10930000Y-9525000D01*
X10930000Y-9495000D02*
X10900000Y-9525000D01*
X10905000Y-9695000D02*
X10935000Y-9725000D01*
X10935000Y-9695000D02*
X10905000Y-9725000D01*
X10905000Y-9895000D02*
X10935000Y-9925000D01*
X10935000Y-9895000D02*
X10905000Y-9925000D01*
X10905000Y-10295000D02*
X10935000Y-10325000D01*
X10935000Y-10295000D02*
X10905000Y-10325000D01*
X10910000Y-10095000D02*
X10940000Y-10125000D01*
X10940000Y-10095000D02*
X10910000Y-10125000D01*
X10933560Y-13905000D02*
X10963560Y-13935000D01*
X10963560Y-13905000D02*
X10933560Y-13935000D01*
X10980000Y-13515000D02*
X11010000Y-13545000D01*
X11010000Y-13515000D02*
X10980000Y-13545000D01*
X11045000Y-6750000D02*
X11075000Y-6780000D01*
X11075000Y-6750000D02*
X11045000Y-6780000D01*
X11045000Y-13610000D02*
X11075000Y-13640000D01*
X11075000Y-13610000D02*
X11045000Y-13640000D01*
X11095000Y-13317573D02*
X11125000Y-13347573D01*
X11125000Y-13317573D02*
X11095000Y-13347573D01*
X11105000Y-13430000D02*
X11135000Y-13460000D01*
X11135000Y-13430000D02*
X11105000Y-13460000D01*
X11135000Y-13230000D02*
X11165000Y-13260000D01*
X11165000Y-13230000D02*
X11135000Y-13260000D01*
X11160000Y-6585000D02*
X11190000Y-6615000D01*
X11190000Y-6585000D02*
X11160000Y-6615000D01*
X11160000Y-6825000D02*
X11190000Y-6855000D01*
X11190000Y-6825000D02*
X11160000Y-6855000D01*
X11170000Y-6330000D02*
X11200000Y-6360000D01*
X11200000Y-6330000D02*
X11170000Y-6360000D01*
X11175000Y-13120000D02*
X11205000Y-13150000D01*
X11205000Y-13120000D02*
X11175000Y-13150000D01*
X11215000Y-13040000D02*
X11245000Y-13070000D01*
X11245000Y-13040000D02*
X11215000Y-13070000D01*
X11250000Y-6645000D02*
X11280000Y-6675000D01*
X11280000Y-6645000D02*
X11250000Y-6675000D01*
X11255000Y-7100000D02*
X11285000Y-7130000D01*
X11285000Y-7100000D02*
X11255000Y-7130000D01*
X11255000Y-12945000D02*
X11285000Y-12975000D01*
X11285000Y-12945000D02*
X11255000Y-12975000D01*
X11310000Y-12860000D02*
X11340000Y-12890000D01*
X11340000Y-12860000D02*
X11310000Y-12890000D01*
X11315000Y-6715000D02*
X11345000Y-6745000D01*
X11345000Y-6715000D02*
X11315000Y-6745000D01*
X11315000Y-7295000D02*
X11345000Y-7325000D01*
X11345000Y-7295000D02*
X11315000Y-7325000D01*
X11340000Y-8095000D02*
X11370000Y-8125000D01*
X11370000Y-8095000D02*
X11340000Y-8125000D01*
X11375000Y-6780000D02*
X11405000Y-6810000D01*
X11405000Y-6780000D02*
X11375000Y-6810000D01*
X11375000Y-14060000D02*
X11405000Y-14090000D01*
X11405000Y-14060000D02*
X11375000Y-14090000D01*
X11380000Y-7485000D02*
X11410000Y-7515000D01*
X11410000Y-7485000D02*
X11380000Y-7515000D01*
X11385000Y-8295000D02*
X11415000Y-8325000D01*
X11415000Y-8295000D02*
X11385000Y-8325000D01*
X11385000Y-8495000D02*
X11415000Y-8525000D01*
X11415000Y-8495000D02*
X11385000Y-8525000D01*
X11433585Y-8896159D02*
X11463585Y-8926159D01*
X11463585Y-8896159D02*
X11433585Y-8926159D01*
X11440000Y-9095000D02*
X11470000Y-9125000D01*
X11470000Y-9095000D02*
X11440000Y-9125000D01*
X11447550Y-12475000D02*
X11477550Y-12505000D01*
X11477550Y-12475000D02*
X11447550Y-12505000D01*
X11460000Y-7690000D02*
X11490000Y-7720000D01*
X11490000Y-7690000D02*
X11460000Y-7720000D01*
X11465000Y-6840000D02*
X11495000Y-6870000D01*
X11495000Y-6840000D02*
X11465000Y-6870000D01*
X11480000Y-8695000D02*
X11510000Y-8725000D01*
X11510000Y-8695000D02*
X11480000Y-8725000D01*
X11495000Y-13795000D02*
X11525000Y-13825000D01*
X11525000Y-13795000D02*
X11495000Y-13825000D01*
X11510000Y-12525000D02*
X11540000Y-12555000D01*
X11540000Y-12525000D02*
X11510000Y-12555000D01*
X11555000Y-8095000D02*
X11585000Y-8125000D01*
X11585000Y-8095000D02*
X11555000Y-8125000D01*
X11555000Y-12595000D02*
X11585000Y-12625000D01*
X11585000Y-12595000D02*
X11555000Y-12625000D01*
X11570000Y-6910000D02*
X11600000Y-6940000D01*
X11600000Y-6910000D02*
X11570000Y-6940000D01*
X11570000Y-7895000D02*
X11600000Y-7925000D01*
X11600000Y-7895000D02*
X11570000Y-7925000D01*
X11610000Y-8310000D02*
X11640000Y-8340000D01*
X11640000Y-8310000D02*
X11610000Y-8340000D01*
X11610000Y-12675000D02*
X11640000Y-12705000D01*
X11640000Y-12675000D02*
X11610000Y-12705000D01*
X11661723Y-8478424D02*
X11691723Y-8508424D01*
X11691723Y-8478424D02*
X11661723Y-8508424D01*
X11675000Y-12745000D02*
X11705000Y-12775000D01*
X11705000Y-12745000D02*
X11675000Y-12775000D01*
X11680000Y-6985000D02*
X11710000Y-7015000D01*
X11710000Y-6985000D02*
X11680000Y-7015000D01*
X11680000Y-8700000D02*
X11710000Y-8730000D01*
X11710000Y-8700000D02*
X11680000Y-8730000D01*
X11715000Y-9265000D02*
X11745000Y-9295000D01*
X11745000Y-9265000D02*
X11715000Y-9295000D01*
X11730000Y-9027574D02*
X11760000Y-9057574D01*
X11760000Y-9027574D02*
X11730000Y-9057574D01*
X11732573Y-9695000D02*
X11762573Y-9725000D01*
X11762573Y-9695000D02*
X11732573Y-9725000D01*
X11740000Y-8772574D02*
X11770000Y-8802574D01*
X11770000Y-8772574D02*
X11740000Y-8802574D01*
X11770000Y-13710000D02*
X11800000Y-13740000D01*
X11800000Y-13710000D02*
X11770000Y-13740000D01*
X11779873Y-10091294D02*
X11809873Y-10121294D01*
X11809873Y-10091294D02*
X11779873Y-10121294D01*
X11782573Y-9332574D02*
X11812573Y-9362574D01*
X11812573Y-9332574D02*
X11782573Y-9362574D01*
X11785000Y-7050000D02*
X11815000Y-7080000D01*
X11815000Y-7050000D02*
X11785000Y-7080000D01*
X11792573Y-9822574D02*
X11822573Y-9852574D01*
X11822573Y-9822574D02*
X11792573Y-9852574D01*
X11845000Y-10885000D02*
X11875000Y-10915000D01*
X11875000Y-10885000D02*
X11845000Y-10915000D01*
X11855000Y-10118789D02*
X11885000Y-10148789D01*
X11885000Y-10118789D02*
X11855000Y-10148789D01*
X11870000Y-10358289D02*
X11900000Y-10388289D01*
X11900000Y-10358289D02*
X11870000Y-10388289D01*
X11870000Y-10615289D02*
X11900000Y-10645289D01*
X11900000Y-10615289D02*
X11870000Y-10645289D01*
X11905000Y-11095000D02*
X11935000Y-11125000D01*
X11935000Y-11095000D02*
X11905000Y-11125000D01*
X12027200Y-14050000D02*
X12057200Y-14080000D01*
X12057200Y-14050000D02*
X12027200Y-14080000D01*
X12070000Y-11595000D02*
X12100000Y-11625000D01*
X12100000Y-11595000D02*
X12070000Y-11625000D01*
X12160000Y-13290000D02*
X12190000Y-13320000D01*
X12190000Y-13290000D02*
X12160000Y-13320000D01*
X12190000Y-11525000D02*
X12220000Y-11555000D01*
X12220000Y-11525000D02*
X12190000Y-11555000D01*
X12285000Y-13905000D02*
X12315000Y-13935000D01*
X12315000Y-13905000D02*
X12285000Y-13935000D01*
X12405000Y-14190000D02*
X12435000Y-14220000D01*
X12435000Y-14190000D02*
X12405000Y-14220000D01*
X12475000Y-8285000D02*
X12505000Y-8315000D01*
X12505000Y-8285000D02*
X12475000Y-8315000D01*
X12475000Y-11655000D02*
X12505000Y-11685000D01*
X12505000Y-11655000D02*
X12475000Y-11685000D01*
X12515000Y-6400000D02*
X12545000Y-6430000D01*
X12545000Y-6400000D02*
X12515000Y-6430000D01*
X12545000Y-8540000D02*
X12575000Y-8570000D01*
X12575000Y-8540000D02*
X12545000Y-8570000D01*
X12545000Y-11720000D02*
X12575000Y-11750000D01*
X12575000Y-11720000D02*
X12545000Y-11750000D01*
X12630000Y-8800000D02*
X12660000Y-8830000D01*
X12660000Y-8800000D02*
X12630000Y-8830000D01*
X12630000Y-11785000D02*
X12660000Y-11815000D01*
X12660000Y-11785000D02*
X12630000Y-11815000D01*
X12680000Y-13365000D02*
X12710000Y-13395000D01*
X12710000Y-13365000D02*
X12680000Y-13395000D01*
X12720000Y-9040000D02*
X12750000Y-9070000D01*
X12750000Y-9040000D02*
X12720000Y-9070000D01*
X12720000Y-11865000D02*
X12750000Y-11895000D01*
X12750000Y-11865000D02*
X12720000Y-11895000D01*
X12795000Y-12880000D02*
X12825000Y-12910000D01*
X12825000Y-12880000D02*
X12795000Y-12910000D01*
X12805000Y-11925000D02*
X12835000Y-11955000D01*
X12835000Y-11925000D02*
X12805000Y-11955000D01*
X12810000Y-9315000D02*
X12840000Y-9345000D01*
X12840000Y-9315000D02*
X12810000Y-9345000D01*
X12885000Y-11985000D02*
X12915000Y-12015000D01*
X12915000Y-11985000D02*
X12885000Y-12015000D01*
X12890000Y-9565000D02*
X12920000Y-9595000D01*
X12920000Y-9565000D02*
X12890000Y-9595000D01*
X12925000Y-13430000D02*
X12955000Y-13460000D01*
X12955000Y-13430000D02*
X12925000Y-13460000D01*
X12960000Y-9820000D02*
X12990000Y-9850000D01*
X12990000Y-9820000D02*
X12960000Y-9850000D01*
X12960000Y-12045000D02*
X12990000Y-12075000D01*
X12990000Y-12045000D02*
X12960000Y-12075000D01*
X12995000Y-7050000D02*
X13025000Y-7080000D01*
X13025000Y-7050000D02*
X12995000Y-7080000D01*
X13000000Y-7975000D02*
X13030000Y-8005000D01*
X13030000Y-7975000D02*
X13000000Y-8005000D01*
X13035000Y-10075000D02*
X13065000Y-10105000D01*
X13065000Y-10075000D02*
X13035000Y-10105000D01*
X13035000Y-12120000D02*
X13065000Y-12150000D01*
X13065000Y-12120000D02*
X13035000Y-12150000D01*
X13044115Y-6986852D02*
X13074115Y-7016852D01*
X13074115Y-6986852D02*
X13044115Y-7016852D01*
X13080000Y-7895000D02*
X13110000Y-7925000D01*
X13110000Y-7895000D02*
X13080000Y-7925000D01*
X13096715Y-6926575D02*
X13126715Y-6956575D01*
X13126715Y-6926575D02*
X13096715Y-6956575D01*
X13115000Y-12240000D02*
X13145000Y-12270000D01*
X13145000Y-12240000D02*
X13115000Y-12270000D01*
X13151176Y-6867974D02*
X13181176Y-6897974D01*
X13181176Y-6867974D02*
X13151176Y-6897974D01*
X13170000Y-7820000D02*
X13200000Y-7850000D01*
X13200000Y-7820000D02*
X13170000Y-7850000D01*
X13175000Y-13610000D02*
X13205000Y-13640000D01*
X13205000Y-13610000D02*
X13175000Y-13640000D01*
X13201503Y-6805786D02*
X13231503Y-6835786D01*
X13231503Y-6805786D02*
X13201503Y-6835786D01*
X13235000Y-12315000D02*
X13265000Y-12345000D01*
X13265000Y-12315000D02*
X13235000Y-12345000D01*
X13249829Y-6742033D02*
X13279829Y-6772033D01*
X13279829Y-6742033D02*
X13249829Y-6772033D01*
X13260000Y-7760000D02*
X13290000Y-7790000D01*
X13290000Y-7760000D02*
X13260000Y-7790000D01*
X13302274Y-6681621D02*
X13332274Y-6711621D01*
X13332274Y-6681621D02*
X13302274Y-6711621D01*
X13315000Y-13890000D02*
X13345000Y-13920000D01*
X13345000Y-13890000D02*
X13315000Y-13920000D01*
X13320000Y-11560000D02*
X13350000Y-11590000D01*
X13350000Y-11560000D02*
X13320000Y-11590000D01*
X13350000Y-7680000D02*
X13380000Y-7710000D01*
X13380000Y-7680000D02*
X13350000Y-7710000D01*
X13353283Y-6619992D02*
X13383283Y-6649992D01*
X13383283Y-6619992D02*
X13353283Y-6649992D01*
X13365000Y-14050000D02*
X13395000Y-14080000D01*
X13395000Y-14050000D02*
X13365000Y-14080000D01*
X13410719Y-6564303D02*
X13440719Y-6594303D01*
X13440719Y-6564303D02*
X13410719Y-6594303D01*
X13435000Y-7610000D02*
X13465000Y-7640000D01*
X13465000Y-7610000D02*
X13435000Y-7640000D01*
X13435000Y-13515000D02*
X13465000Y-13545000D01*
X13465000Y-13515000D02*
X13435000Y-13545000D01*
X13465000Y-6505000D02*
X13495000Y-6535000D01*
X13495000Y-6505000D02*
X13465000Y-6535000D01*
X13465000Y-10370000D02*
X13495000Y-10400000D01*
X13495000Y-10370000D02*
X13465000Y-10400000D01*
X13485000Y-12380000D02*
X13515000Y-12410000D01*
X13515000Y-12380000D02*
X13485000Y-12410000D01*
X13505000Y-11565000D02*
X13535000Y-11595000D01*
X13535000Y-11565000D02*
X13505000Y-11595000D01*
X13520000Y-7545000D02*
X13550000Y-7575000D01*
X13550000Y-7545000D02*
X13520000Y-7575000D01*
X13525000Y-9295000D02*
X13555000Y-9325000D01*
X13555000Y-9295000D02*
X13525000Y-9325000D01*
X13565000Y-9030000D02*
X13595000Y-9060000D01*
X13595000Y-9030000D02*
X13565000Y-9060000D01*
X13590000Y-13805000D02*
X13620000Y-13835000D01*
X13620000Y-13805000D02*
X13590000Y-13835000D01*
X13600000Y-7465000D02*
X13630000Y-7495000D01*
X13630000Y-7465000D02*
X13600000Y-7495000D01*
X13655000Y-9825000D02*
X13685000Y-9855000D01*
X13685000Y-9825000D02*
X13655000Y-9855000D01*
X13685000Y-10655000D02*
X13715000Y-10685000D01*
X13715000Y-10655000D02*
X13685000Y-10685000D01*
X13720000Y-7385000D02*
X13750000Y-7415000D01*
X13750000Y-7385000D02*
X13720000Y-7415000D01*
X13720000Y-7475000D02*
X13750000Y-7505000D01*
X13750000Y-7475000D02*
X13720000Y-7505000D01*
X13730000Y-10070000D02*
X13760000Y-10100000D01*
X13760000Y-10070000D02*
X13730000Y-10100000D01*
X13745000Y-10745000D02*
X13775000Y-10775000D01*
X13775000Y-10745000D02*
X13745000Y-10775000D01*
X13785000Y-13715000D02*
X13815000Y-13745000D01*
X13815000Y-13715000D02*
X13785000Y-13745000D01*
X13800000Y-11555000D02*
X13830000Y-11585000D01*
X13830000Y-11555000D02*
X13800000Y-11585000D01*
X13805000Y-7550000D02*
X13835000Y-7580000D01*
X13835000Y-7550000D02*
X13805000Y-7580000D01*
X13805000Y-8785000D02*
X13835000Y-8815000D01*
X13835000Y-8785000D02*
X13805000Y-8815000D01*
X13810000Y-5490000D02*
X13840000Y-5520000D01*
X13840000Y-5490000D02*
X13810000Y-5520000D01*
X13810000Y-6275000D02*
X13840000Y-6305000D01*
X13840000Y-6275000D02*
X13810000Y-6305000D01*
X13870000Y-9025000D02*
X13900000Y-9055000D01*
X13900000Y-9025000D02*
X13870000Y-9055000D01*
X13880000Y-7615000D02*
X13910000Y-7645000D01*
X13910000Y-7615000D02*
X13880000Y-7645000D01*
X13940000Y-7690000D02*
X13970000Y-7720000D01*
X13970000Y-7690000D02*
X13940000Y-7720000D01*
X13940000Y-10650000D02*
X13970000Y-10680000D01*
X13970000Y-10650000D02*
X13940000Y-10680000D01*
X13940000Y-10740000D02*
X13970000Y-10770000D01*
X13970000Y-10740000D02*
X13940000Y-10770000D01*
X13940000Y-13305000D02*
X13970000Y-13335000D01*
X13970000Y-13305000D02*
X13940000Y-13335000D01*
X14000000Y-9811000D02*
X14030000Y-9841000D01*
X14030000Y-9811000D02*
X14000000Y-9841000D01*
X14030000Y-7765000D02*
X14060000Y-7795000D01*
X14060000Y-7765000D02*
X14030000Y-7795000D01*
X14030000Y-9290000D02*
X14060000Y-9320000D01*
X14060000Y-9290000D02*
X14030000Y-9320000D01*
X14075000Y-13230000D02*
X14105000Y-13260000D01*
X14105000Y-13230000D02*
X14075000Y-13260000D01*
X14115000Y-7830000D02*
X14145000Y-7860000D01*
X14145000Y-7830000D02*
X14115000Y-7860000D01*
X14115000Y-9555000D02*
X14145000Y-9585000D01*
X14145000Y-9555000D02*
X14115000Y-9585000D01*
X14120000Y-10365000D02*
X14150000Y-10395000D01*
X14150000Y-10365000D02*
X14120000Y-10395000D01*
X14155000Y-12000000D02*
X14185000Y-12030000D01*
X14185000Y-12000000D02*
X14155000Y-12030000D01*
X14160000Y-11555000D02*
X14190000Y-11585000D01*
X14190000Y-11555000D02*
X14160000Y-11585000D01*
X14190000Y-13120000D02*
X14220000Y-13150000D01*
X14220000Y-13120000D02*
X14190000Y-13150000D01*
X14215000Y-7915000D02*
X14245000Y-7945000D01*
X14245000Y-7915000D02*
X14215000Y-7945000D01*
X14220000Y-8530000D02*
X14250000Y-8560000D01*
X14250000Y-8530000D02*
X14220000Y-8560000D01*
X14260000Y-13010000D02*
X14290000Y-13040000D01*
X14290000Y-13010000D02*
X14260000Y-13040000D01*
X14440000Y-7975000D02*
X14470000Y-8005000D01*
X14470000Y-7975000D02*
X14440000Y-8005000D01*
X14450000Y-12945000D02*
X14480000Y-12975000D01*
X14480000Y-12945000D02*
X14450000Y-12975000D01*
X14650000Y-7390000D02*
X14680000Y-7420000D01*
X14680000Y-7390000D02*
X14650000Y-7420000D01*
X14683560Y-14180000D02*
X14713560Y-14210000D01*
X14713560Y-14180000D02*
X14683560Y-14210000D01*
X14750000Y-6270000D02*
X14780000Y-6300000D01*
X14780000Y-6270000D02*
X14750000Y-6300000D01*
X14775000Y-5470000D02*
X14805000Y-5500000D01*
X14805000Y-5470000D02*
X14775000Y-5500000D01*
X8445000Y-7310000D02*
G75*
G02*
X8365000Y-7310000I-40000J0D01*
G01*
X8365000Y-7310000D02*
G75*
G02*
X8445000Y-7310000I40000J0D01*
G01*
X8445000Y-7510000D02*
G75*
G02*
X8365000Y-7510000I-40000J0D01*
G01*
X8365000Y-7510000D02*
G75*
G02*
X8445000Y-7510000I40000J0D01*
G01*
X8445000Y-7710000D02*
G75*
G02*
X8365000Y-7710000I-40000J0D01*
G01*
X8365000Y-7710000D02*
G75*
G02*
X8445000Y-7710000I40000J0D01*
G01*
X8445000Y-7910000D02*
G75*
G02*
X8365000Y-7910000I-40000J0D01*
G01*
X8365000Y-7910000D02*
G75*
G02*
X8445000Y-7910000I40000J0D01*
G01*
X8445000Y-8110000D02*
G75*
G02*
X8365000Y-8110000I-40000J0D01*
G01*
X8365000Y-8110000D02*
G75*
G02*
X8445000Y-8110000I40000J0D01*
G01*
X8445000Y-8310000D02*
G75*
G02*
X8365000Y-8310000I-40000J0D01*
G01*
X8365000Y-8310000D02*
G75*
G02*
X8445000Y-8310000I40000J0D01*
G01*
X8445000Y-8510000D02*
G75*
G02*
X8365000Y-8510000I-40000J0D01*
G01*
X8365000Y-8510000D02*
G75*
G02*
X8445000Y-8510000I40000J0D01*
G01*
X8445000Y-8710000D02*
G75*
G02*
X8365000Y-8710000I-40000J0D01*
G01*
X8365000Y-8710000D02*
G75*
G02*
X8445000Y-8710000I40000J0D01*
G01*
X8445000Y-8910000D02*
G75*
G02*
X8365000Y-8910000I-40000J0D01*
G01*
X8365000Y-8910000D02*
G75*
G02*
X8445000Y-8910000I40000J0D01*
G01*
X8445000Y-9110000D02*
G75*
G02*
X8365000Y-9110000I-40000J0D01*
G01*
X8365000Y-9110000D02*
G75*
G02*
X8445000Y-9110000I40000J0D01*
G01*
X8445000Y-9310000D02*
G75*
G02*
X8365000Y-9310000I-40000J0D01*
G01*
X8365000Y-9310000D02*
G75*
G02*
X8445000Y-9310000I40000J0D01*
G01*
X8445000Y-9510000D02*
G75*
G02*
X8365000Y-9510000I-40000J0D01*
G01*
X8365000Y-9510000D02*
G75*
G02*
X8445000Y-9510000I40000J0D01*
G01*
X8445000Y-9710000D02*
G75*
G02*
X8365000Y-9710000I-40000J0D01*
G01*
X8365000Y-9710000D02*
G75*
G02*
X8445000Y-9710000I40000J0D01*
G01*
X8445000Y-9910000D02*
G75*
G02*
X8365000Y-9910000I-40000J0D01*
G01*
X8365000Y-9910000D02*
G75*
G02*
X8445000Y-9910000I40000J0D01*
G01*
X8445000Y-10110000D02*
G75*
G02*
X8365000Y-10110000I-40000J0D01*
G01*
X8365000Y-10110000D02*
G75*
G02*
X8445000Y-10110000I40000J0D01*
G01*
X8445000Y-10310000D02*
G75*
G02*
X8365000Y-10310000I-40000J0D01*
G01*
X8365000Y-10310000D02*
G75*
G02*
X8445000Y-10310000I40000J0D01*
G01*
X8445000Y-10510000D02*
G75*
G02*
X8365000Y-10510000I-40000J0D01*
G01*
X8365000Y-10510000D02*
G75*
G02*
X8445000Y-10510000I40000J0D01*
G01*
X8445000Y-10710000D02*
G75*
G02*
X8365000Y-10710000I-40000J0D01*
G01*
X8365000Y-10710000D02*
G75*
G02*
X8445000Y-10710000I40000J0D01*
G01*
X8445000Y-10910000D02*
G75*
G02*
X8365000Y-10910000I-40000J0D01*
G01*
X8365000Y-10910000D02*
G75*
G02*
X8445000Y-10910000I40000J0D01*
G01*
X8445000Y-11110000D02*
G75*
G02*
X8365000Y-11110000I-40000J0D01*
G01*
X8365000Y-11110000D02*
G75*
G02*
X8445000Y-11110000I40000J0D01*
G01*
X8645000Y-7110000D02*
G75*
G02*
X8565000Y-7110000I-40000J0D01*
G01*
X8565000Y-7110000D02*
G75*
G02*
X8645000Y-7110000I40000J0D01*
G01*
X8645000Y-11310000D02*
G75*
G02*
X8565000Y-11310000I-40000J0D01*
G01*
X8565000Y-11310000D02*
G75*
G02*
X8645000Y-11310000I40000J0D01*
G01*
X8845000Y-7110000D02*
G75*
G02*
X8765000Y-7110000I-40000J0D01*
G01*
X8765000Y-7110000D02*
G75*
G02*
X8845000Y-7110000I40000J0D01*
G01*
X8845000Y-11310000D02*
G75*
G02*
X8765000Y-11310000I-40000J0D01*
G01*
X8765000Y-11310000D02*
G75*
G02*
X8845000Y-11310000I40000J0D01*
G01*
X9045000Y-7110000D02*
G75*
G02*
X8965000Y-7110000I-40000J0D01*
G01*
X8965000Y-7110000D02*
G75*
G02*
X9045000Y-7110000I40000J0D01*
G01*
X9045000Y-11310000D02*
G75*
G02*
X8965000Y-11310000I-40000J0D01*
G01*
X8965000Y-11310000D02*
G75*
G02*
X9045000Y-11310000I40000J0D01*
G01*
X9245000Y-7110000D02*
G75*
G02*
X9165000Y-7110000I-40000J0D01*
G01*
X9165000Y-7110000D02*
G75*
G02*
X9245000Y-7110000I40000J0D01*
G01*
X9245000Y-11310000D02*
G75*
G02*
X9165000Y-11310000I-40000J0D01*
G01*
X9165000Y-11310000D02*
G75*
G02*
X9245000Y-11310000I40000J0D01*
G01*
X9445000Y-7110000D02*
G75*
G02*
X9365000Y-7110000I-40000J0D01*
G01*
X9365000Y-7110000D02*
G75*
G02*
X9445000Y-7110000I40000J0D01*
G01*
X9445000Y-11310000D02*
G75*
G02*
X9365000Y-11310000I-40000J0D01*
G01*
X9365000Y-11310000D02*
G75*
G02*
X9445000Y-11310000I40000J0D01*
G01*
X9645000Y-7110000D02*
G75*
G02*
X9565000Y-7110000I-40000J0D01*
G01*
X9565000Y-7110000D02*
G75*
G02*
X9645000Y-7110000I40000J0D01*
G01*
X9645000Y-11310000D02*
G75*
G02*
X9565000Y-11310000I-40000J0D01*
G01*
X9565000Y-11310000D02*
G75*
G02*
X9645000Y-11310000I40000J0D01*
G01*
X9845000Y-7110000D02*
G75*
G02*
X9765000Y-7110000I-40000J0D01*
G01*
X9765000Y-7110000D02*
G75*
G02*
X9845000Y-7110000I40000J0D01*
G01*
X9845000Y-11310000D02*
G75*
G02*
X9765000Y-11310000I-40000J0D01*
G01*
X9765000Y-11310000D02*
G75*
G02*
X9845000Y-11310000I40000J0D01*
G01*
X10045000Y-7110000D02*
G75*
G02*
X9965000Y-7110000I-40000J0D01*
G01*
X9965000Y-7110000D02*
G75*
G02*
X10045000Y-7110000I40000J0D01*
G01*
X10045000Y-11310000D02*
G75*
G02*
X9965000Y-11310000I-40000J0D01*
G01*
X9965000Y-11310000D02*
G75*
G02*
X10045000Y-11310000I40000J0D01*
G01*
X10245000Y-7110000D02*
G75*
G02*
X10165000Y-7110000I-40000J0D01*
G01*
X10165000Y-7110000D02*
G75*
G02*
X10245000Y-7110000I40000J0D01*
G01*
X10245000Y-11310000D02*
G75*
G02*
X10165000Y-11310000I-40000J0D01*
G01*
X10165000Y-11310000D02*
G75*
G02*
X10245000Y-11310000I40000J0D01*
G01*
X10445000Y-7110000D02*
G75*
G02*
X10365000Y-7110000I-40000J0D01*
G01*
X10365000Y-7110000D02*
G75*
G02*
X10445000Y-7110000I40000J0D01*
G01*
X10445000Y-11310000D02*
G75*
G02*
X10365000Y-11310000I-40000J0D01*
G01*
X10365000Y-11310000D02*
G75*
G02*
X10445000Y-11310000I40000J0D01*
G01*
X10645000Y-7310000D02*
G75*
G02*
X10565000Y-7310000I-40000J0D01*
G01*
X10565000Y-7310000D02*
G75*
G02*
X10645000Y-7310000I40000J0D01*
G01*
X10645000Y-7510000D02*
G75*
G02*
X10565000Y-7510000I-40000J0D01*
G01*
X10565000Y-7510000D02*
G75*
G02*
X10645000Y-7510000I40000J0D01*
G01*
X10645000Y-7710000D02*
G75*
G02*
X10565000Y-7710000I-40000J0D01*
G01*
X10565000Y-7710000D02*
G75*
G02*
X10645000Y-7710000I40000J0D01*
G01*
X10645000Y-7910000D02*
G75*
G02*
X10565000Y-7910000I-40000J0D01*
G01*
X10565000Y-7910000D02*
G75*
G02*
X10645000Y-7910000I40000J0D01*
G01*
X10645000Y-8110000D02*
G75*
G02*
X10565000Y-8110000I-40000J0D01*
G01*
X10565000Y-8110000D02*
G75*
G02*
X10645000Y-8110000I40000J0D01*
G01*
X10645000Y-8310000D02*
G75*
G02*
X10565000Y-8310000I-40000J0D01*
G01*
X10565000Y-8310000D02*
G75*
G02*
X10645000Y-8310000I40000J0D01*
G01*
X10645000Y-8510000D02*
G75*
G02*
X10565000Y-8510000I-40000J0D01*
G01*
X10565000Y-8510000D02*
G75*
G02*
X10645000Y-8510000I40000J0D01*
G01*
X10645000Y-8710000D02*
G75*
G02*
X10565000Y-8710000I-40000J0D01*
G01*
X10565000Y-8710000D02*
G75*
G02*
X10645000Y-8710000I40000J0D01*
G01*
X10645000Y-8910000D02*
G75*
G02*
X10565000Y-8910000I-40000J0D01*
G01*
X10565000Y-8910000D02*
G75*
G02*
X10645000Y-8910000I40000J0D01*
G01*
X10645000Y-9110000D02*
G75*
G02*
X10565000Y-9110000I-40000J0D01*
G01*
X10565000Y-9110000D02*
G75*
G02*
X10645000Y-9110000I40000J0D01*
G01*
X10645000Y-9310000D02*
G75*
G02*
X10565000Y-9310000I-40000J0D01*
G01*
X10565000Y-9310000D02*
G75*
G02*
X10645000Y-9310000I40000J0D01*
G01*
X10645000Y-9510000D02*
G75*
G02*
X10565000Y-9510000I-40000J0D01*
G01*
X10565000Y-9510000D02*
G75*
G02*
X10645000Y-9510000I40000J0D01*
G01*
X10645000Y-9710000D02*
G75*
G02*
X10565000Y-9710000I-40000J0D01*
G01*
X10565000Y-9710000D02*
G75*
G02*
X10645000Y-9710000I40000J0D01*
G01*
X10645000Y-9910000D02*
G75*
G02*
X10565000Y-9910000I-40000J0D01*
G01*
X10565000Y-9910000D02*
G75*
G02*
X10645000Y-9910000I40000J0D01*
G01*
X10645000Y-10110000D02*
G75*
G02*
X10565000Y-10110000I-40000J0D01*
G01*
X10565000Y-10110000D02*
G75*
G02*
X10645000Y-10110000I40000J0D01*
G01*
X10645000Y-10310000D02*
G75*
G02*
X10565000Y-10310000I-40000J0D01*
G01*
X10565000Y-10310000D02*
G75*
G02*
X10645000Y-10310000I40000J0D01*
G01*
X10645000Y-10510000D02*
G75*
G02*
X10565000Y-10510000I-40000J0D01*
G01*
X10565000Y-10510000D02*
G75*
G02*
X10645000Y-10510000I40000J0D01*
G01*
X10645000Y-10710000D02*
G75*
G02*
X10565000Y-10710000I-40000J0D01*
G01*
X10565000Y-10710000D02*
G75*
G02*
X10645000Y-10710000I40000J0D01*
G01*
X10645000Y-10910000D02*
G75*
G02*
X10565000Y-10910000I-40000J0D01*
G01*
X10565000Y-10910000D02*
G75*
G02*
X10645000Y-10910000I40000J0D01*
G01*
X10645000Y-11110000D02*
G75*
G02*
X10565000Y-11110000I-40000J0D01*
G01*
X10565000Y-11110000D02*
G75*
G02*
X10645000Y-11110000I40000J0D01*
G01*
X5652000Y-5645000D02*
X5652000Y-5745000D01*
X5602000Y-5695000D02*
X5702000Y-5695000D01*
X5906000Y-5645000D02*
X5906000Y-5745000D01*
X5856000Y-5695000D02*
X5956000Y-5695000D01*
X6160000Y-5645000D02*
X6160000Y-5745000D01*
X6110000Y-5695000D02*
X6210000Y-5695000D01*
X6414000Y-5645000D02*
X6414000Y-5745000D01*
X6364000Y-5695000D02*
X6464000Y-5695000D01*
X6710000Y-8732500D02*
X6710000Y-8832500D01*
X6660000Y-8782500D02*
X6760000Y-8782500D01*
X6710000Y-8986500D02*
X6710000Y-9086500D01*
X6660000Y-9036500D02*
X6760000Y-9036500D01*
X6710000Y-9240500D02*
X6710000Y-9340500D01*
X6660000Y-9290500D02*
X6760000Y-9290500D01*
X6710000Y-9494500D02*
X6710000Y-9594500D01*
X6660000Y-9544500D02*
X6760000Y-9544500D01*
X6710000Y-9748500D02*
X6710000Y-9848500D01*
X6660000Y-9798500D02*
X6760000Y-9798500D01*
X6710000Y-10002500D02*
X6710000Y-10102500D01*
X6660000Y-10052500D02*
X6760000Y-10052500D01*
X6710000Y-11022000D02*
X6710000Y-11122000D01*
X6660000Y-11072000D02*
X6760000Y-11072000D01*
X6710000Y-11276000D02*
X6710000Y-11376000D01*
X6660000Y-11326000D02*
X6760000Y-11326000D01*
X6710000Y-11530000D02*
X6710000Y-11630000D01*
X6660000Y-11580000D02*
X6760000Y-11580000D01*
X12070000Y-7235000D02*
X12070000Y-7335000D01*
X12020000Y-7285000D02*
X12120000Y-7285000D01*
X12070000Y-7489000D02*
X12070000Y-7589000D01*
X12020000Y-7539000D02*
X12120000Y-7539000D01*
X12070000Y-7743000D02*
X12070000Y-7843000D01*
X12020000Y-7793000D02*
X12120000Y-7793000D01*
X12070000Y-7997000D02*
X12070000Y-8097000D01*
X12020000Y-8047000D02*
X12120000Y-8047000D01*
X12070000Y-8251000D02*
X12070000Y-8351000D01*
X12020000Y-8301000D02*
X12120000Y-8301000D01*
X12070000Y-8505000D02*
X12070000Y-8605000D01*
X12020000Y-8555000D02*
X12120000Y-8555000D01*
X12070000Y-8759000D02*
X12070000Y-8859000D01*
X12020000Y-8809000D02*
X12120000Y-8809000D01*
X12070000Y-9013000D02*
X12070000Y-9113000D01*
X12020000Y-9063000D02*
X12120000Y-9063000D01*
X12070000Y-9267000D02*
X12070000Y-9367000D01*
X12020000Y-9317000D02*
X12120000Y-9317000D01*
X12070000Y-9521000D02*
X12070000Y-9621000D01*
X12020000Y-9571000D02*
X12120000Y-9571000D01*
X12070000Y-9775000D02*
X12070000Y-9875000D01*
X12020000Y-9825000D02*
X12120000Y-9825000D01*
X12070000Y-10029000D02*
X12070000Y-10129000D01*
X12020000Y-10079000D02*
X12120000Y-10079000D01*
X12070000Y-10283000D02*
X12070000Y-10383000D01*
X12020000Y-10333000D02*
X12120000Y-10333000D01*
X12070000Y-10537000D02*
X12070000Y-10637000D01*
X12020000Y-10587000D02*
X12120000Y-10587000D01*
X12070000Y-10791000D02*
X12070000Y-10891000D01*
X12020000Y-10841000D02*
X12120000Y-10841000D01*
X12070000Y-11045000D02*
X12070000Y-11145000D01*
X12020000Y-11095000D02*
X12120000Y-11095000D01*
X13270000Y-8253000D02*
X13270000Y-8353000D01*
X13220000Y-8303000D02*
X13320000Y-8303000D01*
X13270000Y-8507000D02*
X13270000Y-8607000D01*
X13220000Y-8557000D02*
X13320000Y-8557000D01*
X13270000Y-8761000D02*
X13270000Y-8861000D01*
X13220000Y-8811000D02*
X13320000Y-8811000D01*
X13270000Y-9015000D02*
X13270000Y-9115000D01*
X13220000Y-9065000D02*
X13320000Y-9065000D01*
X13270000Y-9269000D02*
X13270000Y-9369000D01*
X13220000Y-9319000D02*
X13320000Y-9319000D01*
X13270000Y-9523000D02*
X13270000Y-9623000D01*
X13220000Y-9573000D02*
X13320000Y-9573000D01*
X13270000Y-9777000D02*
X13270000Y-9877000D01*
X13220000Y-9827000D02*
X13320000Y-9827000D01*
X13270000Y-10031000D02*
X13270000Y-10131000D01*
X13220000Y-10081000D02*
X13320000Y-10081000D01*
X13275000Y-10626000D02*
X13275000Y-10726000D01*
X13225000Y-10676000D02*
X13325000Y-10676000D01*
X13275000Y-10880000D02*
X13275000Y-10980000D01*
X13225000Y-10930000D02*
X13325000Y-10930000D01*
X14450000Y-10616000D02*
X14450000Y-10716000D01*
X14400000Y-10666000D02*
X14500000Y-10666000D01*
X14450000Y-10870000D02*
X14450000Y-10970000D01*
X14400000Y-10920000D02*
X14500000Y-10920000D01*
X14455000Y-8252000D02*
X14455000Y-8352000D01*
X14405000Y-8302000D02*
X14505000Y-8302000D01*
X14455000Y-8506000D02*
X14455000Y-8606000D01*
X14405000Y-8556000D02*
X14505000Y-8556000D01*
X14455000Y-8760000D02*
X14455000Y-8860000D01*
X14405000Y-8810000D02*
X14505000Y-8810000D01*
X14455000Y-9014000D02*
X14455000Y-9114000D01*
X14405000Y-9064000D02*
X14505000Y-9064000D01*
X14455000Y-9268000D02*
X14455000Y-9368000D01*
X14405000Y-9318000D02*
X14505000Y-9318000D01*
X14455000Y-9522000D02*
X14455000Y-9622000D01*
X14405000Y-9572000D02*
X14505000Y-9572000D01*
X14455000Y-9776000D02*
X14455000Y-9876000D01*
X14405000Y-9826000D02*
X14505000Y-9826000D01*
X14455000Y-10030000D02*
X14455000Y-10130000D01*
X14405000Y-10080000D02*
X14505000Y-10080000D01*
D12*
X8543891Y-5683891D02*
X8543891Y-5606109D01*
X8466109Y-5606109D01*
X8466109Y-5683891D01*
X8543891Y-5683891D01*
X8543891Y-6133891D02*
X8543891Y-6056109D01*
X8466109Y-6056109D01*
X8466109Y-6133891D01*
X8543891Y-6133891D01*
X9193891Y-5683891D02*
X9193891Y-5606109D01*
X9116109Y-5606109D01*
X9116109Y-5683891D01*
X9193891Y-5683891D01*
X9193891Y-6133891D02*
X9193891Y-6056109D01*
X9116109Y-6056109D01*
X9116109Y-6133891D01*
X9193891Y-6133891D01*
X9885558Y-5695558D02*
X9885558Y-5617775D01*
X9807775Y-5617775D01*
X9807775Y-5695558D01*
X9885558Y-5695558D01*
X9885558Y-6145558D02*
X9885558Y-6067775D01*
X9807775Y-6067775D01*
X9807775Y-6145558D01*
X9885558Y-6145558D01*
X10535558Y-5695558D02*
X10535558Y-5617775D01*
X10457775Y-5617775D01*
X10457775Y-5695558D01*
X10535558Y-5695558D01*
X10535558Y-6145558D02*
X10535558Y-6067775D01*
X10457775Y-6067775D01*
X10457775Y-6145558D01*
X10535558Y-6145558D01*
X11227224Y-5707224D02*
X11227224Y-5629442D01*
X11149442Y-5629442D01*
X11149442Y-5707224D01*
X11227224Y-5707224D01*
X11227224Y-6157224D02*
X11227224Y-6079442D01*
X11149442Y-6079442D01*
X11149442Y-6157224D01*
X11227224Y-6157224D01*
X11877224Y-5707224D02*
X11877224Y-5629442D01*
X11799442Y-5629442D01*
X11799442Y-5707224D01*
X11877224Y-5707224D01*
X11877224Y-6157224D02*
X11877224Y-6079442D01*
X11799442Y-6079442D01*
X11799442Y-6157224D01*
X11877224Y-6157224D01*
X12568891Y-5718891D02*
X12568891Y-5641109D01*
X12491109Y-5641109D01*
X12491109Y-5718891D01*
X12568891Y-5718891D01*
X12568891Y-6168891D02*
X12568891Y-6091109D01*
X12491109Y-6091109D01*
X12491109Y-6168891D01*
X12568891Y-6168891D01*
X13218891Y-5718891D02*
X13218891Y-5641109D01*
X13141109Y-5641109D01*
X13141109Y-5718891D01*
X13218891Y-5718891D01*
X13218891Y-6168891D02*
X13218891Y-6091109D01*
X13141109Y-6091109D01*
X13141109Y-6168891D01*
X13218891Y-6168891D01*
D13*
X7724200Y-14554800D02*
X7784200Y-14494800D01*
X7724200Y-14434800D01*
X7664200Y-14494800D01*
X7724200Y-14554800D01*
X7724200Y-15062800D02*
X7784200Y-15002800D01*
X7724200Y-14942800D01*
X7664200Y-15002800D01*
X7724200Y-15062800D01*
X7978200Y-14554800D02*
X8038200Y-14494800D01*
X7978200Y-14434800D01*
X7918200Y-14494800D01*
X7978200Y-14554800D01*
X7978200Y-15062800D02*
X8038200Y-15002800D01*
X7978200Y-14942800D01*
X7918200Y-15002800D01*
X7978200Y-15062800D01*
X8232200Y-14554800D02*
X8292200Y-14494800D01*
X8232200Y-14434800D01*
X8172200Y-14494800D01*
X8232200Y-14554800D01*
X8232200Y-15062800D02*
X8292200Y-15002800D01*
X8232200Y-14942800D01*
X8172200Y-15002800D01*
X8232200Y-15062800D01*
X8486200Y-14554800D02*
X8546200Y-14494800D01*
X8486200Y-14434800D01*
X8426200Y-14494800D01*
X8486200Y-14554800D01*
X8486200Y-15062800D02*
X8546200Y-15002800D01*
X8486200Y-14942800D01*
X8426200Y-15002800D01*
X8486200Y-15062800D01*
X8994200Y-14554800D02*
X9054200Y-14494800D01*
X8994200Y-14434800D01*
X8934200Y-14494800D01*
X8994200Y-14554800D01*
X8994200Y-15062800D02*
X9054200Y-15002800D01*
X8994200Y-14942800D01*
X8934200Y-15002800D01*
X8994200Y-15062800D01*
X9248200Y-14554800D02*
X9308200Y-14494800D01*
X9248200Y-14434800D01*
X9188200Y-14494800D01*
X9248200Y-14554800D01*
X9248200Y-15062800D02*
X9308200Y-15002800D01*
X9248200Y-14942800D01*
X9188200Y-15002800D01*
X9248200Y-15062800D01*
X9502200Y-14554800D02*
X9562200Y-14494800D01*
X9502200Y-14434800D01*
X9442200Y-14494800D01*
X9502200Y-14554800D01*
X9502200Y-15062800D02*
X9562200Y-15002800D01*
X9502200Y-14942800D01*
X9442200Y-15002800D01*
X9502200Y-15062800D01*
X9756200Y-14554800D02*
X9816200Y-14494800D01*
X9756200Y-14434800D01*
X9696200Y-14494800D01*
X9756200Y-14554800D01*
X9756200Y-15062800D02*
X9816200Y-15002800D01*
X9756200Y-14942800D01*
X9696200Y-15002800D01*
X9756200Y-15062800D01*
X10010200Y-14554800D02*
X10070200Y-14494800D01*
X10010200Y-14434800D01*
X9950200Y-14494800D01*
X10010200Y-14554800D01*
X10010200Y-15062800D02*
X10070200Y-15002800D01*
X10010200Y-14942800D01*
X9950200Y-15002800D01*
X10010200Y-15062800D01*
X10264200Y-14554800D02*
X10324200Y-14494800D01*
X10264200Y-14434800D01*
X10204200Y-14494800D01*
X10264200Y-14554800D01*
X10264200Y-15062800D02*
X10324200Y-15002800D01*
X10264200Y-14942800D01*
X10204200Y-15002800D01*
X10264200Y-15062800D01*
X10518200Y-14554800D02*
X10578200Y-14494800D01*
X10518200Y-14434800D01*
X10458200Y-14494800D01*
X10518200Y-14554800D01*
X10518200Y-15062800D02*
X10578200Y-15002800D01*
X10518200Y-14942800D01*
X10458200Y-15002800D01*
X10518200Y-15062800D01*
X10772200Y-14554800D02*
X10832200Y-14494800D01*
X10772200Y-14434800D01*
X10712200Y-14494800D01*
X10772200Y-14554800D01*
X10772200Y-15062800D02*
X10832200Y-15002800D01*
X10772200Y-14942800D01*
X10712200Y-15002800D01*
X10772200Y-15062800D01*
X11026200Y-14554800D02*
X11086200Y-14494800D01*
X11026200Y-14434800D01*
X10966200Y-14494800D01*
X11026200Y-14554800D01*
X11026200Y-15062800D02*
X11086200Y-15002800D01*
X11026200Y-14942800D01*
X10966200Y-15002800D01*
X11026200Y-15062800D01*
X11280200Y-14554800D02*
X11340200Y-14494800D01*
X11280200Y-14434800D01*
X11220200Y-14494800D01*
X11280200Y-14554800D01*
X11280200Y-15062800D02*
X11340200Y-15002800D01*
X11280200Y-14942800D01*
X11220200Y-15002800D01*
X11280200Y-15062800D01*
X11534200Y-14554800D02*
X11594200Y-14494800D01*
X11534200Y-14434800D01*
X11474200Y-14494800D01*
X11534200Y-14554800D01*
X11534200Y-15062800D02*
X11594200Y-15002800D01*
X11534200Y-14942800D01*
X11474200Y-15002800D01*
X11534200Y-15062800D01*
X11788200Y-14554800D02*
X11848200Y-14494800D01*
X11788200Y-14434800D01*
X11728200Y-14494800D01*
X11788200Y-14554800D01*
X11788200Y-15062800D02*
X11848200Y-15002800D01*
X11788200Y-14942800D01*
X11728200Y-15002800D01*
X11788200Y-15062800D01*
X12042200Y-14554800D02*
X12102200Y-14494800D01*
X12042200Y-14434800D01*
X11982200Y-14494800D01*
X12042200Y-14554800D01*
X12042200Y-15062800D02*
X12102200Y-15002800D01*
X12042200Y-14942800D01*
X11982200Y-15002800D01*
X12042200Y-15062800D01*
X12296200Y-14554800D02*
X12356200Y-14494800D01*
X12296200Y-14434800D01*
X12236200Y-14494800D01*
X12296200Y-14554800D01*
X12296200Y-15062800D02*
X12356200Y-15002800D01*
X12296200Y-14942800D01*
X12236200Y-15002800D01*
X12296200Y-15062800D01*
X12550200Y-14554800D02*
X12610200Y-14494800D01*
X12550200Y-14434800D01*
X12490200Y-14494800D01*
X12550200Y-14554800D01*
X12550200Y-15062800D02*
X12610200Y-15002800D01*
X12550200Y-14942800D01*
X12490200Y-15002800D01*
X12550200Y-15062800D01*
X12804200Y-14554800D02*
X12864200Y-14494800D01*
X12804200Y-14434800D01*
X12744200Y-14494800D01*
X12804200Y-14554800D01*
X12804200Y-15062800D02*
X12864200Y-15002800D01*
X12804200Y-14942800D01*
X12744200Y-15002800D01*
X12804200Y-15062800D01*
X13058200Y-14554800D02*
X13118200Y-14494800D01*
X13058200Y-14434800D01*
X12998200Y-14494800D01*
X13058200Y-14554800D01*
X13058200Y-15062800D02*
X13118200Y-15002800D01*
X13058200Y-14942800D01*
X12998200Y-15002800D01*
X13058200Y-15062800D01*
X13312200Y-14554800D02*
X13372200Y-14494800D01*
X13312200Y-14434800D01*
X13252200Y-14494800D01*
X13312200Y-14554800D01*
X13312200Y-15062800D02*
X13372200Y-15002800D01*
X13312200Y-14942800D01*
X13252200Y-15002800D01*
X13312200Y-15062800D01*
X13566200Y-14554800D02*
X13626200Y-14494800D01*
X13566200Y-14434800D01*
X13506200Y-14494800D01*
X13566200Y-14554800D01*
X13566200Y-15062800D02*
X13626200Y-15002800D01*
X13566200Y-14942800D01*
X13506200Y-15002800D01*
X13566200Y-15062800D01*
X13820200Y-14554800D02*
X13880200Y-14494800D01*
X13820200Y-14434800D01*
X13760200Y-14494800D01*
X13820200Y-14554800D01*
X13820200Y-15062800D02*
X13880200Y-15002800D01*
X13820200Y-14942800D01*
X13760200Y-15002800D01*
X13820200Y-15062800D01*
X14074200Y-14554800D02*
X14134200Y-14494800D01*
X14074200Y-14434800D01*
X14014200Y-14494800D01*
X14074200Y-14554800D01*
X14074200Y-15062800D02*
X14134200Y-15002800D01*
X14074200Y-14942800D01*
X14014200Y-15002800D01*
X14074200Y-15062800D01*
X14328200Y-14554800D02*
X14388200Y-14494800D01*
X14328200Y-14434800D01*
X14268200Y-14494800D01*
X14328200Y-14554800D01*
X14328200Y-15062800D02*
X14388200Y-15002800D01*
X14328200Y-14942800D01*
X14268200Y-15002800D01*
X14328200Y-15062800D01*
X14582200Y-14554800D02*
X14642200Y-14494800D01*
X14582200Y-14434800D01*
X14522200Y-14494800D01*
X14582200Y-14554800D01*
X14582200Y-15062800D02*
X14642200Y-15002800D01*
X14582200Y-14942800D01*
X14522200Y-15002800D01*
X14582200Y-15062800D01*
D14*
X5787500Y-13525000D02*
X6007500Y-13745000D01*
X6007500Y-13525000D02*
X5787500Y-13745000D01*
X6007500Y-13635000D02*
G75*
G02*
X5787500Y-13635000I-110000J0D01*
G01*
X5787500Y-13635000D02*
G75*
G02*
X6007500Y-13635000I110000J0D01*
G01*
X6640000Y-13515000D02*
X6860000Y-13735000D01*
X6860000Y-13515000D02*
X6640000Y-13735000D01*
X6860000Y-13625000D02*
G75*
G02*
X6640000Y-13625000I-110000J0D01*
G01*
X6640000Y-13625000D02*
G75*
G02*
X6860000Y-13625000I110000J0D01*
G01*
X7492500Y-13505000D02*
X7712500Y-13725000D01*
X7712500Y-13505000D02*
X7492500Y-13725000D01*
X7712500Y-13615000D02*
G75*
G02*
X7492500Y-13615000I-110000J0D01*
G01*
X7492500Y-13615000D02*
G75*
G02*
X7712500Y-13615000I110000J0D01*
G01*
D11*
X5418177Y-15615084D02*
X5418177Y-15415084D01*
X5418177Y-15415084D02*
X5465796Y-15415084D01*
X5465796Y-15415084D02*
X5494367Y-15424608D01*
X5494367Y-15424608D02*
X5513415Y-15443655D01*
X5513415Y-15443655D02*
X5522939Y-15462703D01*
X5522939Y-15462703D02*
X5532463Y-15500798D01*
X5532463Y-15500798D02*
X5532463Y-15529369D01*
X5532463Y-15529369D02*
X5522939Y-15567465D01*
X5522939Y-15567465D02*
X5513415Y-15586512D01*
X5513415Y-15586512D02*
X5494367Y-15605560D01*
X5494367Y-15605560D02*
X5465796Y-15615084D01*
X5465796Y-15615084D02*
X5418177Y-15615084D01*
X5618177Y-15615084D02*
X5618177Y-15481750D01*
X5618177Y-15519846D02*
X5627701Y-15500798D01*
X5627701Y-15500798D02*
X5637224Y-15491274D01*
X5637224Y-15491274D02*
X5656272Y-15481750D01*
X5656272Y-15481750D02*
X5675320Y-15481750D01*
X5741986Y-15615084D02*
X5741986Y-15481750D01*
X5741986Y-15415084D02*
X5732462Y-15424608D01*
X5732462Y-15424608D02*
X5741986Y-15434131D01*
X5741986Y-15434131D02*
X5751510Y-15424608D01*
X5751510Y-15424608D02*
X5741986Y-15415084D01*
X5741986Y-15415084D02*
X5741986Y-15434131D01*
X5865796Y-15615084D02*
X5846748Y-15605560D01*
X5846748Y-15605560D02*
X5837224Y-15586512D01*
X5837224Y-15586512D02*
X5837224Y-15415084D01*
X5970558Y-15615084D02*
X5951510Y-15605560D01*
X5951510Y-15605560D02*
X5941986Y-15586512D01*
X5941986Y-15586512D02*
X5941986Y-15415084D01*
X6199129Y-15615084D02*
X6199129Y-15415084D01*
X6199129Y-15415084D02*
X6265796Y-15557941D01*
X6265796Y-15557941D02*
X6332462Y-15415084D01*
X6332462Y-15415084D02*
X6332462Y-15615084D01*
X6513415Y-15615084D02*
X6513415Y-15510322D01*
X6513415Y-15510322D02*
X6503891Y-15491274D01*
X6503891Y-15491274D02*
X6484843Y-15481750D01*
X6484843Y-15481750D02*
X6446748Y-15481750D01*
X6446748Y-15481750D02*
X6427701Y-15491274D01*
X6513415Y-15605560D02*
X6494367Y-15615084D01*
X6494367Y-15615084D02*
X6446748Y-15615084D01*
X6446748Y-15615084D02*
X6427701Y-15605560D01*
X6427701Y-15605560D02*
X6418177Y-15586512D01*
X6418177Y-15586512D02*
X6418177Y-15567465D01*
X6418177Y-15567465D02*
X6427701Y-15548417D01*
X6427701Y-15548417D02*
X6446748Y-15538893D01*
X6446748Y-15538893D02*
X6494367Y-15538893D01*
X6494367Y-15538893D02*
X6513415Y-15529369D01*
X6608653Y-15481750D02*
X6608653Y-15681750D01*
X6608653Y-15491274D02*
X6627701Y-15481750D01*
X6627701Y-15481750D02*
X6665796Y-15481750D01*
X6665796Y-15481750D02*
X6684843Y-15491274D01*
X6684843Y-15491274D02*
X6694367Y-15500798D01*
X6694367Y-15500798D02*
X6703891Y-15519846D01*
X6703891Y-15519846D02*
X6703891Y-15576988D01*
X6703891Y-15576988D02*
X6694367Y-15596036D01*
X6694367Y-15596036D02*
X6684843Y-15605560D01*
X6684843Y-15605560D02*
X6665796Y-15615084D01*
X6665796Y-15615084D02*
X6627701Y-15615084D01*
X6627701Y-15615084D02*
X6608653Y-15605560D01*
X6789605Y-15596036D02*
X6799129Y-15605560D01*
X6799129Y-15605560D02*
X6789605Y-15615084D01*
X6789605Y-15615084D02*
X6780082Y-15605560D01*
X6780082Y-15605560D02*
X6789605Y-15596036D01*
X6789605Y-15596036D02*
X6789605Y-15615084D01*
X6789605Y-15491274D02*
X6799129Y-15500798D01*
X6799129Y-15500798D02*
X6789605Y-15510322D01*
X6789605Y-15510322D02*
X6780082Y-15500798D01*
X6780082Y-15500798D02*
X6789605Y-15491274D01*
X6789605Y-15491274D02*
X6789605Y-15510322D01*
D10*
X5127400Y-15928600D02*
X5157400Y-15958600D01*
X5157400Y-15928600D02*
X5127400Y-15958600D01*
D11*
X5456272Y-15835084D02*
X5475320Y-15835084D01*
X5475320Y-15835084D02*
X5494367Y-15844608D01*
X5494367Y-15844608D02*
X5503891Y-15854131D01*
X5503891Y-15854131D02*
X5513415Y-15873179D01*
X5513415Y-15873179D02*
X5522939Y-15911274D01*
X5522939Y-15911274D02*
X5522939Y-15958893D01*
X5522939Y-15958893D02*
X5513415Y-15996988D01*
X5513415Y-15996988D02*
X5503891Y-16016036D01*
X5503891Y-16016036D02*
X5494367Y-16025560D01*
X5494367Y-16025560D02*
X5475320Y-16035084D01*
X5475320Y-16035084D02*
X5456272Y-16035084D01*
X5456272Y-16035084D02*
X5437224Y-16025560D01*
X5437224Y-16025560D02*
X5427701Y-16016036D01*
X5427701Y-16016036D02*
X5418177Y-15996988D01*
X5418177Y-15996988D02*
X5408653Y-15958893D01*
X5408653Y-15958893D02*
X5408653Y-15911274D01*
X5408653Y-15911274D02*
X5418177Y-15873179D01*
X5418177Y-15873179D02*
X5427701Y-15854131D01*
X5427701Y-15854131D02*
X5437224Y-15844608D01*
X5437224Y-15844608D02*
X5456272Y-15835084D01*
X5608653Y-16016036D02*
X5618177Y-16025560D01*
X5618177Y-16025560D02*
X5608653Y-16035084D01*
X5608653Y-16035084D02*
X5599129Y-16025560D01*
X5599129Y-16025560D02*
X5608653Y-16016036D01*
X5608653Y-16016036D02*
X5608653Y-16035084D01*
X5684843Y-15835084D02*
X5808653Y-15835084D01*
X5808653Y-15835084D02*
X5741986Y-15911274D01*
X5741986Y-15911274D02*
X5770558Y-15911274D01*
X5770558Y-15911274D02*
X5789605Y-15920798D01*
X5789605Y-15920798D02*
X5799129Y-15930322D01*
X5799129Y-15930322D02*
X5808653Y-15949369D01*
X5808653Y-15949369D02*
X5808653Y-15996988D01*
X5808653Y-15996988D02*
X5799129Y-16016036D01*
X5799129Y-16016036D02*
X5789605Y-16025560D01*
X5789605Y-16025560D02*
X5770558Y-16035084D01*
X5770558Y-16035084D02*
X5713415Y-16035084D01*
X5713415Y-16035084D02*
X5694367Y-16025560D01*
X5694367Y-16025560D02*
X5684843Y-16016036D01*
X5932462Y-15835084D02*
X5951510Y-15835084D01*
X5951510Y-15835084D02*
X5970558Y-15844608D01*
X5970558Y-15844608D02*
X5980082Y-15854131D01*
X5980082Y-15854131D02*
X5989605Y-15873179D01*
X5989605Y-15873179D02*
X5999129Y-15911274D01*
X5999129Y-15911274D02*
X5999129Y-15958893D01*
X5999129Y-15958893D02*
X5989605Y-15996988D01*
X5989605Y-15996988D02*
X5980082Y-16016036D01*
X5980082Y-16016036D02*
X5970558Y-16025560D01*
X5970558Y-16025560D02*
X5951510Y-16035084D01*
X5951510Y-16035084D02*
X5932462Y-16035084D01*
X5932462Y-16035084D02*
X5913415Y-16025560D01*
X5913415Y-16025560D02*
X5903891Y-16016036D01*
X5903891Y-16016036D02*
X5894367Y-15996988D01*
X5894367Y-15996988D02*
X5884843Y-15958893D01*
X5884843Y-15958893D02*
X5884843Y-15911274D01*
X5884843Y-15911274D02*
X5894367Y-15873179D01*
X5894367Y-15873179D02*
X5903891Y-15854131D01*
X5903891Y-15854131D02*
X5913415Y-15844608D01*
X5913415Y-15844608D02*
X5932462Y-15835084D01*
X6122939Y-15835084D02*
X6141986Y-15835084D01*
X6141986Y-15835084D02*
X6161034Y-15844608D01*
X6161034Y-15844608D02*
X6170558Y-15854131D01*
X6170558Y-15854131D02*
X6180082Y-15873179D01*
X6180082Y-15873179D02*
X6189605Y-15911274D01*
X6189605Y-15911274D02*
X6189605Y-15958893D01*
X6189605Y-15958893D02*
X6180082Y-15996988D01*
X6180082Y-15996988D02*
X6170558Y-16016036D01*
X6170558Y-16016036D02*
X6161034Y-16025560D01*
X6161034Y-16025560D02*
X6141986Y-16035084D01*
X6141986Y-16035084D02*
X6122939Y-16035084D01*
X6122939Y-16035084D02*
X6103891Y-16025560D01*
X6103891Y-16025560D02*
X6094367Y-16016036D01*
X6094367Y-16016036D02*
X6084843Y-15996988D01*
X6084843Y-15996988D02*
X6075320Y-15958893D01*
X6075320Y-15958893D02*
X6075320Y-15911274D01*
X6075320Y-15911274D02*
X6084843Y-15873179D01*
X6084843Y-15873179D02*
X6094367Y-15854131D01*
X6094367Y-15854131D02*
X6103891Y-15844608D01*
X6103891Y-15844608D02*
X6122939Y-15835084D01*
X6275320Y-16035084D02*
X6275320Y-15901750D01*
X6275320Y-15920798D02*
X6284843Y-15911274D01*
X6284843Y-15911274D02*
X6303891Y-15901750D01*
X6303891Y-15901750D02*
X6332463Y-15901750D01*
X6332463Y-15901750D02*
X6351510Y-15911274D01*
X6351510Y-15911274D02*
X6361034Y-15930322D01*
X6361034Y-15930322D02*
X6361034Y-16035084D01*
X6361034Y-15930322D02*
X6370558Y-15911274D01*
X6370558Y-15911274D02*
X6389605Y-15901750D01*
X6389605Y-15901750D02*
X6418177Y-15901750D01*
X6418177Y-15901750D02*
X6437224Y-15911274D01*
X6437224Y-15911274D02*
X6446748Y-15930322D01*
X6446748Y-15930322D02*
X6446748Y-16035084D01*
X6541986Y-16035084D02*
X6541986Y-15901750D01*
X6541986Y-15920798D02*
X6551510Y-15911274D01*
X6551510Y-15911274D02*
X6570558Y-15901750D01*
X6570558Y-15901750D02*
X6599129Y-15901750D01*
X6599129Y-15901750D02*
X6618177Y-15911274D01*
X6618177Y-15911274D02*
X6627701Y-15930322D01*
X6627701Y-15930322D02*
X6627701Y-16035084D01*
X6627701Y-15930322D02*
X6637224Y-15911274D01*
X6637224Y-15911274D02*
X6656272Y-15901750D01*
X6656272Y-15901750D02*
X6684843Y-15901750D01*
X6684843Y-15901750D02*
X6703891Y-15911274D01*
X6703891Y-15911274D02*
X6713415Y-15930322D01*
X6713415Y-15930322D02*
X6713415Y-16035084D01*
X7103891Y-15825560D02*
X6932463Y-16082703D01*
X7361034Y-15835084D02*
X7380082Y-15835084D01*
X7380082Y-15835084D02*
X7399129Y-15844608D01*
X7399129Y-15844608D02*
X7408653Y-15854131D01*
X7408653Y-15854131D02*
X7418177Y-15873179D01*
X7418177Y-15873179D02*
X7427701Y-15911274D01*
X7427701Y-15911274D02*
X7427701Y-15958893D01*
X7427701Y-15958893D02*
X7418177Y-15996988D01*
X7418177Y-15996988D02*
X7408653Y-16016036D01*
X7408653Y-16016036D02*
X7399129Y-16025560D01*
X7399129Y-16025560D02*
X7380082Y-16035084D01*
X7380082Y-16035084D02*
X7361034Y-16035084D01*
X7361034Y-16035084D02*
X7341986Y-16025560D01*
X7341986Y-16025560D02*
X7332463Y-16016036D01*
X7332463Y-16016036D02*
X7322939Y-15996988D01*
X7322939Y-15996988D02*
X7313415Y-15958893D01*
X7313415Y-15958893D02*
X7313415Y-15911274D01*
X7313415Y-15911274D02*
X7322939Y-15873179D01*
X7322939Y-15873179D02*
X7332463Y-15854131D01*
X7332463Y-15854131D02*
X7341986Y-15844608D01*
X7341986Y-15844608D02*
X7361034Y-15835084D01*
X7513415Y-16016036D02*
X7522939Y-16025560D01*
X7522939Y-16025560D02*
X7513415Y-16035084D01*
X7513415Y-16035084D02*
X7503891Y-16025560D01*
X7503891Y-16025560D02*
X7513415Y-16016036D01*
X7513415Y-16016036D02*
X7513415Y-16035084D01*
X7646748Y-15835084D02*
X7665796Y-15835084D01*
X7665796Y-15835084D02*
X7684844Y-15844608D01*
X7684844Y-15844608D02*
X7694367Y-15854131D01*
X7694367Y-15854131D02*
X7703891Y-15873179D01*
X7703891Y-15873179D02*
X7713415Y-15911274D01*
X7713415Y-15911274D02*
X7713415Y-15958893D01*
X7713415Y-15958893D02*
X7703891Y-15996988D01*
X7703891Y-15996988D02*
X7694367Y-16016036D01*
X7694367Y-16016036D02*
X7684844Y-16025560D01*
X7684844Y-16025560D02*
X7665796Y-16035084D01*
X7665796Y-16035084D02*
X7646748Y-16035084D01*
X7646748Y-16035084D02*
X7627701Y-16025560D01*
X7627701Y-16025560D02*
X7618177Y-16016036D01*
X7618177Y-16016036D02*
X7608653Y-15996988D01*
X7608653Y-15996988D02*
X7599129Y-15958893D01*
X7599129Y-15958893D02*
X7599129Y-15911274D01*
X7599129Y-15911274D02*
X7608653Y-15873179D01*
X7608653Y-15873179D02*
X7618177Y-15854131D01*
X7618177Y-15854131D02*
X7627701Y-15844608D01*
X7627701Y-15844608D02*
X7646748Y-15835084D01*
X7903891Y-16035084D02*
X7789606Y-16035084D01*
X7846748Y-16035084D02*
X7846748Y-15835084D01*
X7846748Y-15835084D02*
X7827701Y-15863655D01*
X7827701Y-15863655D02*
X7808653Y-15882703D01*
X7808653Y-15882703D02*
X7789606Y-15892227D01*
X8094367Y-16035084D02*
X7980082Y-16035084D01*
X8037225Y-16035084D02*
X8037225Y-15835084D01*
X8037225Y-15835084D02*
X8018177Y-15863655D01*
X8018177Y-15863655D02*
X7999129Y-15882703D01*
X7999129Y-15882703D02*
X7980082Y-15892227D01*
X8208653Y-15920798D02*
X8189606Y-15911274D01*
X8189606Y-15911274D02*
X8180082Y-15901750D01*
X8180082Y-15901750D02*
X8170558Y-15882703D01*
X8170558Y-15882703D02*
X8170558Y-15873179D01*
X8170558Y-15873179D02*
X8180082Y-15854131D01*
X8180082Y-15854131D02*
X8189606Y-15844608D01*
X8189606Y-15844608D02*
X8208653Y-15835084D01*
X8208653Y-15835084D02*
X8246748Y-15835084D01*
X8246748Y-15835084D02*
X8265796Y-15844608D01*
X8265796Y-15844608D02*
X8275320Y-15854131D01*
X8275320Y-15854131D02*
X8284844Y-15873179D01*
X8284844Y-15873179D02*
X8284844Y-15882703D01*
X8284844Y-15882703D02*
X8275320Y-15901750D01*
X8275320Y-15901750D02*
X8265796Y-15911274D01*
X8265796Y-15911274D02*
X8246748Y-15920798D01*
X8246748Y-15920798D02*
X8208653Y-15920798D01*
X8208653Y-15920798D02*
X8189606Y-15930322D01*
X8189606Y-15930322D02*
X8180082Y-15939846D01*
X8180082Y-15939846D02*
X8170558Y-15958893D01*
X8170558Y-15958893D02*
X8170558Y-15996988D01*
X8170558Y-15996988D02*
X8180082Y-16016036D01*
X8180082Y-16016036D02*
X8189606Y-16025560D01*
X8189606Y-16025560D02*
X8208653Y-16035084D01*
X8208653Y-16035084D02*
X8246748Y-16035084D01*
X8246748Y-16035084D02*
X8265796Y-16025560D01*
X8265796Y-16025560D02*
X8275320Y-16016036D01*
X8275320Y-16016036D02*
X8284844Y-15996988D01*
X8284844Y-15996988D02*
X8284844Y-15958893D01*
X8284844Y-15958893D02*
X8275320Y-15939846D01*
X8275320Y-15939846D02*
X8265796Y-15930322D01*
X8265796Y-15930322D02*
X8246748Y-15920798D01*
X8361034Y-15835084D02*
X8361034Y-15873179D01*
X8437225Y-15835084D02*
X8437225Y-15873179D01*
X8732463Y-16111274D02*
X8722939Y-16101750D01*
X8722939Y-16101750D02*
X8703891Y-16073179D01*
X8703891Y-16073179D02*
X8694368Y-16054131D01*
X8694368Y-16054131D02*
X8684844Y-16025560D01*
X8684844Y-16025560D02*
X8675320Y-15977941D01*
X8675320Y-15977941D02*
X8675320Y-15939846D01*
X8675320Y-15939846D02*
X8684844Y-15892227D01*
X8684844Y-15892227D02*
X8694368Y-15863655D01*
X8694368Y-15863655D02*
X8703891Y-15844608D01*
X8703891Y-15844608D02*
X8722939Y-15816036D01*
X8722939Y-15816036D02*
X8732463Y-15806512D01*
X8799130Y-15854131D02*
X8808653Y-15844608D01*
X8808653Y-15844608D02*
X8827701Y-15835084D01*
X8827701Y-15835084D02*
X8875320Y-15835084D01*
X8875320Y-15835084D02*
X8894368Y-15844608D01*
X8894368Y-15844608D02*
X8903891Y-15854131D01*
X8903891Y-15854131D02*
X8913415Y-15873179D01*
X8913415Y-15873179D02*
X8913415Y-15892227D01*
X8913415Y-15892227D02*
X8903891Y-15920798D01*
X8903891Y-15920798D02*
X8789606Y-16035084D01*
X8789606Y-16035084D02*
X8913415Y-16035084D01*
X9084844Y-15901750D02*
X9084844Y-16035084D01*
X9037225Y-15825560D02*
X8989606Y-15968417D01*
X8989606Y-15968417D02*
X9113415Y-15968417D01*
X9180082Y-15854131D02*
X9189606Y-15844608D01*
X9189606Y-15844608D02*
X9208653Y-15835084D01*
X9208653Y-15835084D02*
X9256272Y-15835084D01*
X9256272Y-15835084D02*
X9275320Y-15844608D01*
X9275320Y-15844608D02*
X9284844Y-15854131D01*
X9284844Y-15854131D02*
X9294368Y-15873179D01*
X9294368Y-15873179D02*
X9294368Y-15892227D01*
X9294368Y-15892227D02*
X9284844Y-15920798D01*
X9284844Y-15920798D02*
X9170558Y-16035084D01*
X9170558Y-16035084D02*
X9294368Y-16035084D01*
X9532463Y-16035084D02*
X9532463Y-15835084D01*
X9618177Y-16035084D02*
X9618177Y-15930322D01*
X9618177Y-15930322D02*
X9608653Y-15911274D01*
X9608653Y-15911274D02*
X9589606Y-15901750D01*
X9589606Y-15901750D02*
X9561034Y-15901750D01*
X9561034Y-15901750D02*
X9541987Y-15911274D01*
X9541987Y-15911274D02*
X9532463Y-15920798D01*
X9741987Y-16035084D02*
X9722939Y-16025560D01*
X9722939Y-16025560D02*
X9713415Y-16016036D01*
X9713415Y-16016036D02*
X9703892Y-15996988D01*
X9703892Y-15996988D02*
X9703892Y-15939846D01*
X9703892Y-15939846D02*
X9713415Y-15920798D01*
X9713415Y-15920798D02*
X9722939Y-15911274D01*
X9722939Y-15911274D02*
X9741987Y-15901750D01*
X9741987Y-15901750D02*
X9770558Y-15901750D01*
X9770558Y-15901750D02*
X9789606Y-15911274D01*
X9789606Y-15911274D02*
X9799130Y-15920798D01*
X9799130Y-15920798D02*
X9808653Y-15939846D01*
X9808653Y-15939846D02*
X9808653Y-15996988D01*
X9808653Y-15996988D02*
X9799130Y-16016036D01*
X9799130Y-16016036D02*
X9789606Y-16025560D01*
X9789606Y-16025560D02*
X9770558Y-16035084D01*
X9770558Y-16035084D02*
X9741987Y-16035084D01*
X9922939Y-16035084D02*
X9903892Y-16025560D01*
X9903892Y-16025560D02*
X9894368Y-16006512D01*
X9894368Y-16006512D02*
X9894368Y-15835084D01*
X10075320Y-16025560D02*
X10056273Y-16035084D01*
X10056273Y-16035084D02*
X10018177Y-16035084D01*
X10018177Y-16035084D02*
X9999130Y-16025560D01*
X9999130Y-16025560D02*
X9989606Y-16006512D01*
X9989606Y-16006512D02*
X9989606Y-15930322D01*
X9989606Y-15930322D02*
X9999130Y-15911274D01*
X9999130Y-15911274D02*
X10018177Y-15901750D01*
X10018177Y-15901750D02*
X10056273Y-15901750D01*
X10056273Y-15901750D02*
X10075320Y-15911274D01*
X10075320Y-15911274D02*
X10084844Y-15930322D01*
X10084844Y-15930322D02*
X10084844Y-15949369D01*
X10084844Y-15949369D02*
X9989606Y-15968417D01*
X10161034Y-16025560D02*
X10180082Y-16035084D01*
X10180082Y-16035084D02*
X10218177Y-16035084D01*
X10218177Y-16035084D02*
X10237225Y-16025560D01*
X10237225Y-16025560D02*
X10246749Y-16006512D01*
X10246749Y-16006512D02*
X10246749Y-15996988D01*
X10246749Y-15996988D02*
X10237225Y-15977941D01*
X10237225Y-15977941D02*
X10218177Y-15968417D01*
X10218177Y-15968417D02*
X10189606Y-15968417D01*
X10189606Y-15968417D02*
X10170558Y-15958893D01*
X10170558Y-15958893D02*
X10161034Y-15939846D01*
X10161034Y-15939846D02*
X10161034Y-15930322D01*
X10161034Y-15930322D02*
X10170558Y-15911274D01*
X10170558Y-15911274D02*
X10189606Y-15901750D01*
X10189606Y-15901750D02*
X10218177Y-15901750D01*
X10218177Y-15901750D02*
X10237225Y-15911274D01*
X10313415Y-16111274D02*
X10322939Y-16101750D01*
X10322939Y-16101750D02*
X10341987Y-16073179D01*
X10341987Y-16073179D02*
X10351511Y-16054131D01*
X10351511Y-16054131D02*
X10361034Y-16025560D01*
X10361034Y-16025560D02*
X10370558Y-15977941D01*
X10370558Y-15977941D02*
X10370558Y-15939846D01*
X10370558Y-15939846D02*
X10361034Y-15892227D01*
X10361034Y-15892227D02*
X10351511Y-15863655D01*
X10351511Y-15863655D02*
X10341987Y-15844608D01*
X10341987Y-15844608D02*
X10322939Y-15816036D01*
X10322939Y-15816036D02*
X10313415Y-15806512D01*
D10*
X5157400Y-16207600D02*
G75*
G02*
X5077400Y-16207600I-40000J0D01*
G01*
X5077400Y-16207600D02*
G75*
G02*
X5157400Y-16207600I40000J0D01*
G01*
D11*
X5456272Y-16099084D02*
X5475320Y-16099084D01*
X5475320Y-16099084D02*
X5494367Y-16108608D01*
X5494367Y-16108608D02*
X5503891Y-16118131D01*
X5503891Y-16118131D02*
X5513415Y-16137179D01*
X5513415Y-16137179D02*
X5522939Y-16175274D01*
X5522939Y-16175274D02*
X5522939Y-16222893D01*
X5522939Y-16222893D02*
X5513415Y-16260988D01*
X5513415Y-16260988D02*
X5503891Y-16280036D01*
X5503891Y-16280036D02*
X5494367Y-16289560D01*
X5494367Y-16289560D02*
X5475320Y-16299084D01*
X5475320Y-16299084D02*
X5456272Y-16299084D01*
X5456272Y-16299084D02*
X5437224Y-16289560D01*
X5437224Y-16289560D02*
X5427701Y-16280036D01*
X5427701Y-16280036D02*
X5418177Y-16260988D01*
X5418177Y-16260988D02*
X5408653Y-16222893D01*
X5408653Y-16222893D02*
X5408653Y-16175274D01*
X5408653Y-16175274D02*
X5418177Y-16137179D01*
X5418177Y-16137179D02*
X5427701Y-16118131D01*
X5427701Y-16118131D02*
X5437224Y-16108608D01*
X5437224Y-16108608D02*
X5456272Y-16099084D01*
X5608653Y-16280036D02*
X5618177Y-16289560D01*
X5618177Y-16289560D02*
X5608653Y-16299084D01*
X5608653Y-16299084D02*
X5599129Y-16289560D01*
X5599129Y-16289560D02*
X5608653Y-16280036D01*
X5608653Y-16280036D02*
X5608653Y-16299084D01*
X5732462Y-16184798D02*
X5713415Y-16175274D01*
X5713415Y-16175274D02*
X5703891Y-16165750D01*
X5703891Y-16165750D02*
X5694367Y-16146703D01*
X5694367Y-16146703D02*
X5694367Y-16137179D01*
X5694367Y-16137179D02*
X5703891Y-16118131D01*
X5703891Y-16118131D02*
X5713415Y-16108608D01*
X5713415Y-16108608D02*
X5732462Y-16099084D01*
X5732462Y-16099084D02*
X5770558Y-16099084D01*
X5770558Y-16099084D02*
X5789605Y-16108608D01*
X5789605Y-16108608D02*
X5799129Y-16118131D01*
X5799129Y-16118131D02*
X5808653Y-16137179D01*
X5808653Y-16137179D02*
X5808653Y-16146703D01*
X5808653Y-16146703D02*
X5799129Y-16165750D01*
X5799129Y-16165750D02*
X5789605Y-16175274D01*
X5789605Y-16175274D02*
X5770558Y-16184798D01*
X5770558Y-16184798D02*
X5732462Y-16184798D01*
X5732462Y-16184798D02*
X5713415Y-16194322D01*
X5713415Y-16194322D02*
X5703891Y-16203846D01*
X5703891Y-16203846D02*
X5694367Y-16222893D01*
X5694367Y-16222893D02*
X5694367Y-16260988D01*
X5694367Y-16260988D02*
X5703891Y-16280036D01*
X5703891Y-16280036D02*
X5713415Y-16289560D01*
X5713415Y-16289560D02*
X5732462Y-16299084D01*
X5732462Y-16299084D02*
X5770558Y-16299084D01*
X5770558Y-16299084D02*
X5789605Y-16289560D01*
X5789605Y-16289560D02*
X5799129Y-16280036D01*
X5799129Y-16280036D02*
X5808653Y-16260988D01*
X5808653Y-16260988D02*
X5808653Y-16222893D01*
X5808653Y-16222893D02*
X5799129Y-16203846D01*
X5799129Y-16203846D02*
X5789605Y-16194322D01*
X5789605Y-16194322D02*
X5770558Y-16184798D01*
X5932462Y-16099084D02*
X5951510Y-16099084D01*
X5951510Y-16099084D02*
X5970558Y-16108608D01*
X5970558Y-16108608D02*
X5980082Y-16118131D01*
X5980082Y-16118131D02*
X5989605Y-16137179D01*
X5989605Y-16137179D02*
X5999129Y-16175274D01*
X5999129Y-16175274D02*
X5999129Y-16222893D01*
X5999129Y-16222893D02*
X5989605Y-16260988D01*
X5989605Y-16260988D02*
X5980082Y-16280036D01*
X5980082Y-16280036D02*
X5970558Y-16289560D01*
X5970558Y-16289560D02*
X5951510Y-16299084D01*
X5951510Y-16299084D02*
X5932462Y-16299084D01*
X5932462Y-16299084D02*
X5913415Y-16289560D01*
X5913415Y-16289560D02*
X5903891Y-16280036D01*
X5903891Y-16280036D02*
X5894367Y-16260988D01*
X5894367Y-16260988D02*
X5884843Y-16222893D01*
X5884843Y-16222893D02*
X5884843Y-16175274D01*
X5884843Y-16175274D02*
X5894367Y-16137179D01*
X5894367Y-16137179D02*
X5903891Y-16118131D01*
X5903891Y-16118131D02*
X5913415Y-16108608D01*
X5913415Y-16108608D02*
X5932462Y-16099084D01*
X6122939Y-16099084D02*
X6141986Y-16099084D01*
X6141986Y-16099084D02*
X6161034Y-16108608D01*
X6161034Y-16108608D02*
X6170558Y-16118131D01*
X6170558Y-16118131D02*
X6180082Y-16137179D01*
X6180082Y-16137179D02*
X6189605Y-16175274D01*
X6189605Y-16175274D02*
X6189605Y-16222893D01*
X6189605Y-16222893D02*
X6180082Y-16260988D01*
X6180082Y-16260988D02*
X6170558Y-16280036D01*
X6170558Y-16280036D02*
X6161034Y-16289560D01*
X6161034Y-16289560D02*
X6141986Y-16299084D01*
X6141986Y-16299084D02*
X6122939Y-16299084D01*
X6122939Y-16299084D02*
X6103891Y-16289560D01*
X6103891Y-16289560D02*
X6094367Y-16280036D01*
X6094367Y-16280036D02*
X6084843Y-16260988D01*
X6084843Y-16260988D02*
X6075320Y-16222893D01*
X6075320Y-16222893D02*
X6075320Y-16175274D01*
X6075320Y-16175274D02*
X6084843Y-16137179D01*
X6084843Y-16137179D02*
X6094367Y-16118131D01*
X6094367Y-16118131D02*
X6103891Y-16108608D01*
X6103891Y-16108608D02*
X6122939Y-16099084D01*
X6275320Y-16299084D02*
X6275320Y-16165750D01*
X6275320Y-16184798D02*
X6284843Y-16175274D01*
X6284843Y-16175274D02*
X6303891Y-16165750D01*
X6303891Y-16165750D02*
X6332463Y-16165750D01*
X6332463Y-16165750D02*
X6351510Y-16175274D01*
X6351510Y-16175274D02*
X6361034Y-16194322D01*
X6361034Y-16194322D02*
X6361034Y-16299084D01*
X6361034Y-16194322D02*
X6370558Y-16175274D01*
X6370558Y-16175274D02*
X6389605Y-16165750D01*
X6389605Y-16165750D02*
X6418177Y-16165750D01*
X6418177Y-16165750D02*
X6437224Y-16175274D01*
X6437224Y-16175274D02*
X6446748Y-16194322D01*
X6446748Y-16194322D02*
X6446748Y-16299084D01*
X6541986Y-16299084D02*
X6541986Y-16165750D01*
X6541986Y-16184798D02*
X6551510Y-16175274D01*
X6551510Y-16175274D02*
X6570558Y-16165750D01*
X6570558Y-16165750D02*
X6599129Y-16165750D01*
X6599129Y-16165750D02*
X6618177Y-16175274D01*
X6618177Y-16175274D02*
X6627701Y-16194322D01*
X6627701Y-16194322D02*
X6627701Y-16299084D01*
X6627701Y-16194322D02*
X6637224Y-16175274D01*
X6637224Y-16175274D02*
X6656272Y-16165750D01*
X6656272Y-16165750D02*
X6684843Y-16165750D01*
X6684843Y-16165750D02*
X6703891Y-16175274D01*
X6703891Y-16175274D02*
X6713415Y-16194322D01*
X6713415Y-16194322D02*
X6713415Y-16299084D01*
X7103891Y-16089560D02*
X6932463Y-16346703D01*
X7361034Y-16099084D02*
X7380082Y-16099084D01*
X7380082Y-16099084D02*
X7399129Y-16108608D01*
X7399129Y-16108608D02*
X7408653Y-16118131D01*
X7408653Y-16118131D02*
X7418177Y-16137179D01*
X7418177Y-16137179D02*
X7427701Y-16175274D01*
X7427701Y-16175274D02*
X7427701Y-16222893D01*
X7427701Y-16222893D02*
X7418177Y-16260988D01*
X7418177Y-16260988D02*
X7408653Y-16280036D01*
X7408653Y-16280036D02*
X7399129Y-16289560D01*
X7399129Y-16289560D02*
X7380082Y-16299084D01*
X7380082Y-16299084D02*
X7361034Y-16299084D01*
X7361034Y-16299084D02*
X7341986Y-16289560D01*
X7341986Y-16289560D02*
X7332463Y-16280036D01*
X7332463Y-16280036D02*
X7322939Y-16260988D01*
X7322939Y-16260988D02*
X7313415Y-16222893D01*
X7313415Y-16222893D02*
X7313415Y-16175274D01*
X7313415Y-16175274D02*
X7322939Y-16137179D01*
X7322939Y-16137179D02*
X7332463Y-16118131D01*
X7332463Y-16118131D02*
X7341986Y-16108608D01*
X7341986Y-16108608D02*
X7361034Y-16099084D01*
X7513415Y-16280036D02*
X7522939Y-16289560D01*
X7522939Y-16289560D02*
X7513415Y-16299084D01*
X7513415Y-16299084D02*
X7503891Y-16289560D01*
X7503891Y-16289560D02*
X7513415Y-16280036D01*
X7513415Y-16280036D02*
X7513415Y-16299084D01*
X7646748Y-16099084D02*
X7665796Y-16099084D01*
X7665796Y-16099084D02*
X7684844Y-16108608D01*
X7684844Y-16108608D02*
X7694367Y-16118131D01*
X7694367Y-16118131D02*
X7703891Y-16137179D01*
X7703891Y-16137179D02*
X7713415Y-16175274D01*
X7713415Y-16175274D02*
X7713415Y-16222893D01*
X7713415Y-16222893D02*
X7703891Y-16260988D01*
X7703891Y-16260988D02*
X7694367Y-16280036D01*
X7694367Y-16280036D02*
X7684844Y-16289560D01*
X7684844Y-16289560D02*
X7665796Y-16299084D01*
X7665796Y-16299084D02*
X7646748Y-16299084D01*
X7646748Y-16299084D02*
X7627701Y-16289560D01*
X7627701Y-16289560D02*
X7618177Y-16280036D01*
X7618177Y-16280036D02*
X7608653Y-16260988D01*
X7608653Y-16260988D02*
X7599129Y-16222893D01*
X7599129Y-16222893D02*
X7599129Y-16175274D01*
X7599129Y-16175274D02*
X7608653Y-16137179D01*
X7608653Y-16137179D02*
X7618177Y-16118131D01*
X7618177Y-16118131D02*
X7627701Y-16108608D01*
X7627701Y-16108608D02*
X7646748Y-16099084D01*
X7780082Y-16099084D02*
X7903891Y-16099084D01*
X7903891Y-16099084D02*
X7837225Y-16175274D01*
X7837225Y-16175274D02*
X7865796Y-16175274D01*
X7865796Y-16175274D02*
X7884844Y-16184798D01*
X7884844Y-16184798D02*
X7894367Y-16194322D01*
X7894367Y-16194322D02*
X7903891Y-16213369D01*
X7903891Y-16213369D02*
X7903891Y-16260988D01*
X7903891Y-16260988D02*
X7894367Y-16280036D01*
X7894367Y-16280036D02*
X7884844Y-16289560D01*
X7884844Y-16289560D02*
X7865796Y-16299084D01*
X7865796Y-16299084D02*
X7808653Y-16299084D01*
X7808653Y-16299084D02*
X7789606Y-16289560D01*
X7789606Y-16289560D02*
X7780082Y-16280036D01*
X8094367Y-16299084D02*
X7980082Y-16299084D01*
X8037225Y-16299084D02*
X8037225Y-16099084D01*
X8037225Y-16099084D02*
X8018177Y-16127655D01*
X8018177Y-16127655D02*
X7999129Y-16146703D01*
X7999129Y-16146703D02*
X7980082Y-16156227D01*
X8275320Y-16099084D02*
X8180082Y-16099084D01*
X8180082Y-16099084D02*
X8170558Y-16194322D01*
X8170558Y-16194322D02*
X8180082Y-16184798D01*
X8180082Y-16184798D02*
X8199129Y-16175274D01*
X8199129Y-16175274D02*
X8246748Y-16175274D01*
X8246748Y-16175274D02*
X8265796Y-16184798D01*
X8265796Y-16184798D02*
X8275320Y-16194322D01*
X8275320Y-16194322D02*
X8284844Y-16213369D01*
X8284844Y-16213369D02*
X8284844Y-16260988D01*
X8284844Y-16260988D02*
X8275320Y-16280036D01*
X8275320Y-16280036D02*
X8265796Y-16289560D01*
X8265796Y-16289560D02*
X8246748Y-16299084D01*
X8246748Y-16299084D02*
X8199129Y-16299084D01*
X8199129Y-16299084D02*
X8180082Y-16289560D01*
X8180082Y-16289560D02*
X8170558Y-16280036D01*
X8361034Y-16099084D02*
X8361034Y-16137179D01*
X8437225Y-16099084D02*
X8437225Y-16137179D01*
X8732463Y-16375274D02*
X8722939Y-16365750D01*
X8722939Y-16365750D02*
X8703891Y-16337179D01*
X8703891Y-16337179D02*
X8694368Y-16318131D01*
X8694368Y-16318131D02*
X8684844Y-16289560D01*
X8684844Y-16289560D02*
X8675320Y-16241941D01*
X8675320Y-16241941D02*
X8675320Y-16203846D01*
X8675320Y-16203846D02*
X8684844Y-16156227D01*
X8684844Y-16156227D02*
X8694368Y-16127655D01*
X8694368Y-16127655D02*
X8703891Y-16108608D01*
X8703891Y-16108608D02*
X8722939Y-16080036D01*
X8722939Y-16080036D02*
X8732463Y-16070512D01*
X8894368Y-16099084D02*
X8856272Y-16099084D01*
X8856272Y-16099084D02*
X8837225Y-16108608D01*
X8837225Y-16108608D02*
X8827701Y-16118131D01*
X8827701Y-16118131D02*
X8808653Y-16146703D01*
X8808653Y-16146703D02*
X8799130Y-16184798D01*
X8799130Y-16184798D02*
X8799130Y-16260988D01*
X8799130Y-16260988D02*
X8808653Y-16280036D01*
X8808653Y-16280036D02*
X8818177Y-16289560D01*
X8818177Y-16289560D02*
X8837225Y-16299084D01*
X8837225Y-16299084D02*
X8875320Y-16299084D01*
X8875320Y-16299084D02*
X8894368Y-16289560D01*
X8894368Y-16289560D02*
X8903891Y-16280036D01*
X8903891Y-16280036D02*
X8913415Y-16260988D01*
X8913415Y-16260988D02*
X8913415Y-16213369D01*
X8913415Y-16213369D02*
X8903891Y-16194322D01*
X8903891Y-16194322D02*
X8894368Y-16184798D01*
X8894368Y-16184798D02*
X8875320Y-16175274D01*
X8875320Y-16175274D02*
X8837225Y-16175274D01*
X8837225Y-16175274D02*
X8818177Y-16184798D01*
X8818177Y-16184798D02*
X8808653Y-16194322D01*
X8808653Y-16194322D02*
X8799130Y-16213369D01*
X9037225Y-16099084D02*
X9056272Y-16099084D01*
X9056272Y-16099084D02*
X9075320Y-16108608D01*
X9075320Y-16108608D02*
X9084844Y-16118131D01*
X9084844Y-16118131D02*
X9094368Y-16137179D01*
X9094368Y-16137179D02*
X9103891Y-16175274D01*
X9103891Y-16175274D02*
X9103891Y-16222893D01*
X9103891Y-16222893D02*
X9094368Y-16260988D01*
X9094368Y-16260988D02*
X9084844Y-16280036D01*
X9084844Y-16280036D02*
X9075320Y-16289560D01*
X9075320Y-16289560D02*
X9056272Y-16299084D01*
X9056272Y-16299084D02*
X9037225Y-16299084D01*
X9037225Y-16299084D02*
X9018177Y-16289560D01*
X9018177Y-16289560D02*
X9008653Y-16280036D01*
X9008653Y-16280036D02*
X8999130Y-16260988D01*
X8999130Y-16260988D02*
X8989606Y-16222893D01*
X8989606Y-16222893D02*
X8989606Y-16175274D01*
X8989606Y-16175274D02*
X8999130Y-16137179D01*
X8999130Y-16137179D02*
X9008653Y-16118131D01*
X9008653Y-16118131D02*
X9018177Y-16108608D01*
X9018177Y-16108608D02*
X9037225Y-16099084D01*
X9341987Y-16299084D02*
X9341987Y-16099084D01*
X9427701Y-16299084D02*
X9427701Y-16194322D01*
X9427701Y-16194322D02*
X9418177Y-16175274D01*
X9418177Y-16175274D02*
X9399130Y-16165750D01*
X9399130Y-16165750D02*
X9370558Y-16165750D01*
X9370558Y-16165750D02*
X9351511Y-16175274D01*
X9351511Y-16175274D02*
X9341987Y-16184798D01*
X9551511Y-16299084D02*
X9532463Y-16289560D01*
X9532463Y-16289560D02*
X9522939Y-16280036D01*
X9522939Y-16280036D02*
X9513415Y-16260988D01*
X9513415Y-16260988D02*
X9513415Y-16203846D01*
X9513415Y-16203846D02*
X9522939Y-16184798D01*
X9522939Y-16184798D02*
X9532463Y-16175274D01*
X9532463Y-16175274D02*
X9551511Y-16165750D01*
X9551511Y-16165750D02*
X9580082Y-16165750D01*
X9580082Y-16165750D02*
X9599130Y-16175274D01*
X9599130Y-16175274D02*
X9608653Y-16184798D01*
X9608653Y-16184798D02*
X9618177Y-16203846D01*
X9618177Y-16203846D02*
X9618177Y-16260988D01*
X9618177Y-16260988D02*
X9608653Y-16280036D01*
X9608653Y-16280036D02*
X9599130Y-16289560D01*
X9599130Y-16289560D02*
X9580082Y-16299084D01*
X9580082Y-16299084D02*
X9551511Y-16299084D01*
X9732463Y-16299084D02*
X9713415Y-16289560D01*
X9713415Y-16289560D02*
X9703892Y-16270512D01*
X9703892Y-16270512D02*
X9703892Y-16099084D01*
X9884844Y-16289560D02*
X9865796Y-16299084D01*
X9865796Y-16299084D02*
X9827701Y-16299084D01*
X9827701Y-16299084D02*
X9808653Y-16289560D01*
X9808653Y-16289560D02*
X9799130Y-16270512D01*
X9799130Y-16270512D02*
X9799130Y-16194322D01*
X9799130Y-16194322D02*
X9808653Y-16175274D01*
X9808653Y-16175274D02*
X9827701Y-16165750D01*
X9827701Y-16165750D02*
X9865796Y-16165750D01*
X9865796Y-16165750D02*
X9884844Y-16175274D01*
X9884844Y-16175274D02*
X9894368Y-16194322D01*
X9894368Y-16194322D02*
X9894368Y-16213369D01*
X9894368Y-16213369D02*
X9799130Y-16232417D01*
X9970558Y-16289560D02*
X9989606Y-16299084D01*
X9989606Y-16299084D02*
X10027701Y-16299084D01*
X10027701Y-16299084D02*
X10046749Y-16289560D01*
X10046749Y-16289560D02*
X10056273Y-16270512D01*
X10056273Y-16270512D02*
X10056273Y-16260988D01*
X10056273Y-16260988D02*
X10046749Y-16241941D01*
X10046749Y-16241941D02*
X10027701Y-16232417D01*
X10027701Y-16232417D02*
X9999130Y-16232417D01*
X9999130Y-16232417D02*
X9980082Y-16222893D01*
X9980082Y-16222893D02*
X9970558Y-16203846D01*
X9970558Y-16203846D02*
X9970558Y-16194322D01*
X9970558Y-16194322D02*
X9980082Y-16175274D01*
X9980082Y-16175274D02*
X9999130Y-16165750D01*
X9999130Y-16165750D02*
X10027701Y-16165750D01*
X10027701Y-16165750D02*
X10046749Y-16175274D01*
X10122939Y-16375274D02*
X10132463Y-16365750D01*
X10132463Y-16365750D02*
X10151511Y-16337179D01*
X10151511Y-16337179D02*
X10161034Y-16318131D01*
X10161034Y-16318131D02*
X10170558Y-16289560D01*
X10170558Y-16289560D02*
X10180082Y-16241941D01*
X10180082Y-16241941D02*
X10180082Y-16203846D01*
X10180082Y-16203846D02*
X10170558Y-16156227D01*
X10170558Y-16156227D02*
X10161034Y-16127655D01*
X10161034Y-16127655D02*
X10151511Y-16108608D01*
X10151511Y-16108608D02*
X10132463Y-16080036D01*
X10132463Y-16080036D02*
X10122939Y-16070512D01*
D10*
X5107400Y-16421600D02*
X5107400Y-16521600D01*
X5057400Y-16471600D02*
X5157400Y-16471600D01*
D11*
X5522939Y-16563084D02*
X5408653Y-16563084D01*
X5465796Y-16563084D02*
X5465796Y-16363084D01*
X5465796Y-16363084D02*
X5446748Y-16391655D01*
X5446748Y-16391655D02*
X5427701Y-16410703D01*
X5427701Y-16410703D02*
X5408653Y-16420227D01*
X5608653Y-16544036D02*
X5618177Y-16553560D01*
X5618177Y-16553560D02*
X5608653Y-16563084D01*
X5608653Y-16563084D02*
X5599129Y-16553560D01*
X5599129Y-16553560D02*
X5608653Y-16544036D01*
X5608653Y-16544036D02*
X5608653Y-16563084D01*
X5741986Y-16363084D02*
X5761034Y-16363084D01*
X5761034Y-16363084D02*
X5780082Y-16372608D01*
X5780082Y-16372608D02*
X5789605Y-16382131D01*
X5789605Y-16382131D02*
X5799129Y-16401179D01*
X5799129Y-16401179D02*
X5808653Y-16439274D01*
X5808653Y-16439274D02*
X5808653Y-16486893D01*
X5808653Y-16486893D02*
X5799129Y-16524988D01*
X5799129Y-16524988D02*
X5789605Y-16544036D01*
X5789605Y-16544036D02*
X5780082Y-16553560D01*
X5780082Y-16553560D02*
X5761034Y-16563084D01*
X5761034Y-16563084D02*
X5741986Y-16563084D01*
X5741986Y-16563084D02*
X5722939Y-16553560D01*
X5722939Y-16553560D02*
X5713415Y-16544036D01*
X5713415Y-16544036D02*
X5703891Y-16524988D01*
X5703891Y-16524988D02*
X5694367Y-16486893D01*
X5694367Y-16486893D02*
X5694367Y-16439274D01*
X5694367Y-16439274D02*
X5703891Y-16401179D01*
X5703891Y-16401179D02*
X5713415Y-16382131D01*
X5713415Y-16382131D02*
X5722939Y-16372608D01*
X5722939Y-16372608D02*
X5741986Y-16363084D01*
X5932462Y-16363084D02*
X5951510Y-16363084D01*
X5951510Y-16363084D02*
X5970558Y-16372608D01*
X5970558Y-16372608D02*
X5980082Y-16382131D01*
X5980082Y-16382131D02*
X5989605Y-16401179D01*
X5989605Y-16401179D02*
X5999129Y-16439274D01*
X5999129Y-16439274D02*
X5999129Y-16486893D01*
X5999129Y-16486893D02*
X5989605Y-16524988D01*
X5989605Y-16524988D02*
X5980082Y-16544036D01*
X5980082Y-16544036D02*
X5970558Y-16553560D01*
X5970558Y-16553560D02*
X5951510Y-16563084D01*
X5951510Y-16563084D02*
X5932462Y-16563084D01*
X5932462Y-16563084D02*
X5913415Y-16553560D01*
X5913415Y-16553560D02*
X5903891Y-16544036D01*
X5903891Y-16544036D02*
X5894367Y-16524988D01*
X5894367Y-16524988D02*
X5884843Y-16486893D01*
X5884843Y-16486893D02*
X5884843Y-16439274D01*
X5884843Y-16439274D02*
X5894367Y-16401179D01*
X5894367Y-16401179D02*
X5903891Y-16382131D01*
X5903891Y-16382131D02*
X5913415Y-16372608D01*
X5913415Y-16372608D02*
X5932462Y-16363084D01*
X6122939Y-16363084D02*
X6141986Y-16363084D01*
X6141986Y-16363084D02*
X6161034Y-16372608D01*
X6161034Y-16372608D02*
X6170558Y-16382131D01*
X6170558Y-16382131D02*
X6180082Y-16401179D01*
X6180082Y-16401179D02*
X6189605Y-16439274D01*
X6189605Y-16439274D02*
X6189605Y-16486893D01*
X6189605Y-16486893D02*
X6180082Y-16524988D01*
X6180082Y-16524988D02*
X6170558Y-16544036D01*
X6170558Y-16544036D02*
X6161034Y-16553560D01*
X6161034Y-16553560D02*
X6141986Y-16563084D01*
X6141986Y-16563084D02*
X6122939Y-16563084D01*
X6122939Y-16563084D02*
X6103891Y-16553560D01*
X6103891Y-16553560D02*
X6094367Y-16544036D01*
X6094367Y-16544036D02*
X6084843Y-16524988D01*
X6084843Y-16524988D02*
X6075320Y-16486893D01*
X6075320Y-16486893D02*
X6075320Y-16439274D01*
X6075320Y-16439274D02*
X6084843Y-16401179D01*
X6084843Y-16401179D02*
X6094367Y-16382131D01*
X6094367Y-16382131D02*
X6103891Y-16372608D01*
X6103891Y-16372608D02*
X6122939Y-16363084D01*
X6275320Y-16563084D02*
X6275320Y-16429750D01*
X6275320Y-16448798D02*
X6284843Y-16439274D01*
X6284843Y-16439274D02*
X6303891Y-16429750D01*
X6303891Y-16429750D02*
X6332463Y-16429750D01*
X6332463Y-16429750D02*
X6351510Y-16439274D01*
X6351510Y-16439274D02*
X6361034Y-16458322D01*
X6361034Y-16458322D02*
X6361034Y-16563084D01*
X6361034Y-16458322D02*
X6370558Y-16439274D01*
X6370558Y-16439274D02*
X6389605Y-16429750D01*
X6389605Y-16429750D02*
X6418177Y-16429750D01*
X6418177Y-16429750D02*
X6437224Y-16439274D01*
X6437224Y-16439274D02*
X6446748Y-16458322D01*
X6446748Y-16458322D02*
X6446748Y-16563084D01*
X6541986Y-16563084D02*
X6541986Y-16429750D01*
X6541986Y-16448798D02*
X6551510Y-16439274D01*
X6551510Y-16439274D02*
X6570558Y-16429750D01*
X6570558Y-16429750D02*
X6599129Y-16429750D01*
X6599129Y-16429750D02*
X6618177Y-16439274D01*
X6618177Y-16439274D02*
X6627701Y-16458322D01*
X6627701Y-16458322D02*
X6627701Y-16563084D01*
X6627701Y-16458322D02*
X6637224Y-16439274D01*
X6637224Y-16439274D02*
X6656272Y-16429750D01*
X6656272Y-16429750D02*
X6684843Y-16429750D01*
X6684843Y-16429750D02*
X6703891Y-16439274D01*
X6703891Y-16439274D02*
X6713415Y-16458322D01*
X6713415Y-16458322D02*
X6713415Y-16563084D01*
X7103891Y-16353560D02*
X6932463Y-16610703D01*
X7361034Y-16363084D02*
X7380082Y-16363084D01*
X7380082Y-16363084D02*
X7399129Y-16372608D01*
X7399129Y-16372608D02*
X7408653Y-16382131D01*
X7408653Y-16382131D02*
X7418177Y-16401179D01*
X7418177Y-16401179D02*
X7427701Y-16439274D01*
X7427701Y-16439274D02*
X7427701Y-16486893D01*
X7427701Y-16486893D02*
X7418177Y-16524988D01*
X7418177Y-16524988D02*
X7408653Y-16544036D01*
X7408653Y-16544036D02*
X7399129Y-16553560D01*
X7399129Y-16553560D02*
X7380082Y-16563084D01*
X7380082Y-16563084D02*
X7361034Y-16563084D01*
X7361034Y-16563084D02*
X7341986Y-16553560D01*
X7341986Y-16553560D02*
X7332463Y-16544036D01*
X7332463Y-16544036D02*
X7322939Y-16524988D01*
X7322939Y-16524988D02*
X7313415Y-16486893D01*
X7313415Y-16486893D02*
X7313415Y-16439274D01*
X7313415Y-16439274D02*
X7322939Y-16401179D01*
X7322939Y-16401179D02*
X7332463Y-16382131D01*
X7332463Y-16382131D02*
X7341986Y-16372608D01*
X7341986Y-16372608D02*
X7361034Y-16363084D01*
X7513415Y-16544036D02*
X7522939Y-16553560D01*
X7522939Y-16553560D02*
X7513415Y-16563084D01*
X7513415Y-16563084D02*
X7503891Y-16553560D01*
X7503891Y-16553560D02*
X7513415Y-16544036D01*
X7513415Y-16544036D02*
X7513415Y-16563084D01*
X7646748Y-16363084D02*
X7665796Y-16363084D01*
X7665796Y-16363084D02*
X7684844Y-16372608D01*
X7684844Y-16372608D02*
X7694367Y-16382131D01*
X7694367Y-16382131D02*
X7703891Y-16401179D01*
X7703891Y-16401179D02*
X7713415Y-16439274D01*
X7713415Y-16439274D02*
X7713415Y-16486893D01*
X7713415Y-16486893D02*
X7703891Y-16524988D01*
X7703891Y-16524988D02*
X7694367Y-16544036D01*
X7694367Y-16544036D02*
X7684844Y-16553560D01*
X7684844Y-16553560D02*
X7665796Y-16563084D01*
X7665796Y-16563084D02*
X7646748Y-16563084D01*
X7646748Y-16563084D02*
X7627701Y-16553560D01*
X7627701Y-16553560D02*
X7618177Y-16544036D01*
X7618177Y-16544036D02*
X7608653Y-16524988D01*
X7608653Y-16524988D02*
X7599129Y-16486893D01*
X7599129Y-16486893D02*
X7599129Y-16439274D01*
X7599129Y-16439274D02*
X7608653Y-16401179D01*
X7608653Y-16401179D02*
X7618177Y-16382131D01*
X7618177Y-16382131D02*
X7627701Y-16372608D01*
X7627701Y-16372608D02*
X7646748Y-16363084D01*
X7780082Y-16363084D02*
X7903891Y-16363084D01*
X7903891Y-16363084D02*
X7837225Y-16439274D01*
X7837225Y-16439274D02*
X7865796Y-16439274D01*
X7865796Y-16439274D02*
X7884844Y-16448798D01*
X7884844Y-16448798D02*
X7894367Y-16458322D01*
X7894367Y-16458322D02*
X7903891Y-16477369D01*
X7903891Y-16477369D02*
X7903891Y-16524988D01*
X7903891Y-16524988D02*
X7894367Y-16544036D01*
X7894367Y-16544036D02*
X7884844Y-16553560D01*
X7884844Y-16553560D02*
X7865796Y-16563084D01*
X7865796Y-16563084D02*
X7808653Y-16563084D01*
X7808653Y-16563084D02*
X7789606Y-16553560D01*
X7789606Y-16553560D02*
X7780082Y-16544036D01*
X7999129Y-16563084D02*
X8037225Y-16563084D01*
X8037225Y-16563084D02*
X8056272Y-16553560D01*
X8056272Y-16553560D02*
X8065796Y-16544036D01*
X8065796Y-16544036D02*
X8084844Y-16515465D01*
X8084844Y-16515465D02*
X8094367Y-16477369D01*
X8094367Y-16477369D02*
X8094367Y-16401179D01*
X8094367Y-16401179D02*
X8084844Y-16382131D01*
X8084844Y-16382131D02*
X8075320Y-16372608D01*
X8075320Y-16372608D02*
X8056272Y-16363084D01*
X8056272Y-16363084D02*
X8018177Y-16363084D01*
X8018177Y-16363084D02*
X7999129Y-16372608D01*
X7999129Y-16372608D02*
X7989606Y-16382131D01*
X7989606Y-16382131D02*
X7980082Y-16401179D01*
X7980082Y-16401179D02*
X7980082Y-16448798D01*
X7980082Y-16448798D02*
X7989606Y-16467846D01*
X7989606Y-16467846D02*
X7999129Y-16477369D01*
X7999129Y-16477369D02*
X8018177Y-16486893D01*
X8018177Y-16486893D02*
X8056272Y-16486893D01*
X8056272Y-16486893D02*
X8075320Y-16477369D01*
X8075320Y-16477369D02*
X8084844Y-16467846D01*
X8084844Y-16467846D02*
X8094367Y-16448798D01*
X8265796Y-16429750D02*
X8265796Y-16563084D01*
X8218177Y-16353560D02*
X8170558Y-16496417D01*
X8170558Y-16496417D02*
X8294367Y-16496417D01*
X8361034Y-16363084D02*
X8361034Y-16401179D01*
X8437225Y-16363084D02*
X8437225Y-16401179D01*
X8732463Y-16639274D02*
X8722939Y-16629750D01*
X8722939Y-16629750D02*
X8703891Y-16601179D01*
X8703891Y-16601179D02*
X8694368Y-16582131D01*
X8694368Y-16582131D02*
X8684844Y-16553560D01*
X8684844Y-16553560D02*
X8675320Y-16505941D01*
X8675320Y-16505941D02*
X8675320Y-16467846D01*
X8675320Y-16467846D02*
X8684844Y-16420227D01*
X8684844Y-16420227D02*
X8694368Y-16391655D01*
X8694368Y-16391655D02*
X8703891Y-16372608D01*
X8703891Y-16372608D02*
X8722939Y-16344036D01*
X8722939Y-16344036D02*
X8732463Y-16334512D01*
X8894368Y-16429750D02*
X8894368Y-16563084D01*
X8846749Y-16353560D02*
X8799130Y-16496417D01*
X8799130Y-16496417D02*
X8922939Y-16496417D01*
X9008653Y-16563084D02*
X9046749Y-16563084D01*
X9046749Y-16563084D02*
X9065796Y-16553560D01*
X9065796Y-16553560D02*
X9075320Y-16544036D01*
X9075320Y-16544036D02*
X9094368Y-16515465D01*
X9094368Y-16515465D02*
X9103891Y-16477369D01*
X9103891Y-16477369D02*
X9103891Y-16401179D01*
X9103891Y-16401179D02*
X9094368Y-16382131D01*
X9094368Y-16382131D02*
X9084844Y-16372608D01*
X9084844Y-16372608D02*
X9065796Y-16363084D01*
X9065796Y-16363084D02*
X9027701Y-16363084D01*
X9027701Y-16363084D02*
X9008653Y-16372608D01*
X9008653Y-16372608D02*
X8999130Y-16382131D01*
X8999130Y-16382131D02*
X8989606Y-16401179D01*
X8989606Y-16401179D02*
X8989606Y-16448798D01*
X8989606Y-16448798D02*
X8999130Y-16467846D01*
X8999130Y-16467846D02*
X9008653Y-16477369D01*
X9008653Y-16477369D02*
X9027701Y-16486893D01*
X9027701Y-16486893D02*
X9065796Y-16486893D01*
X9065796Y-16486893D02*
X9084844Y-16477369D01*
X9084844Y-16477369D02*
X9094368Y-16467846D01*
X9094368Y-16467846D02*
X9103891Y-16448798D01*
X9341987Y-16563084D02*
X9341987Y-16363084D01*
X9427701Y-16563084D02*
X9427701Y-16458322D01*
X9427701Y-16458322D02*
X9418177Y-16439274D01*
X9418177Y-16439274D02*
X9399130Y-16429750D01*
X9399130Y-16429750D02*
X9370558Y-16429750D01*
X9370558Y-16429750D02*
X9351511Y-16439274D01*
X9351511Y-16439274D02*
X9341987Y-16448798D01*
X9551511Y-16563084D02*
X9532463Y-16553560D01*
X9532463Y-16553560D02*
X9522939Y-16544036D01*
X9522939Y-16544036D02*
X9513415Y-16524988D01*
X9513415Y-16524988D02*
X9513415Y-16467846D01*
X9513415Y-16467846D02*
X9522939Y-16448798D01*
X9522939Y-16448798D02*
X9532463Y-16439274D01*
X9532463Y-16439274D02*
X9551511Y-16429750D01*
X9551511Y-16429750D02*
X9580082Y-16429750D01*
X9580082Y-16429750D02*
X9599130Y-16439274D01*
X9599130Y-16439274D02*
X9608653Y-16448798D01*
X9608653Y-16448798D02*
X9618177Y-16467846D01*
X9618177Y-16467846D02*
X9618177Y-16524988D01*
X9618177Y-16524988D02*
X9608653Y-16544036D01*
X9608653Y-16544036D02*
X9599130Y-16553560D01*
X9599130Y-16553560D02*
X9580082Y-16563084D01*
X9580082Y-16563084D02*
X9551511Y-16563084D01*
X9732463Y-16563084D02*
X9713415Y-16553560D01*
X9713415Y-16553560D02*
X9703892Y-16534512D01*
X9703892Y-16534512D02*
X9703892Y-16363084D01*
X9884844Y-16553560D02*
X9865796Y-16563084D01*
X9865796Y-16563084D02*
X9827701Y-16563084D01*
X9827701Y-16563084D02*
X9808653Y-16553560D01*
X9808653Y-16553560D02*
X9799130Y-16534512D01*
X9799130Y-16534512D02*
X9799130Y-16458322D01*
X9799130Y-16458322D02*
X9808653Y-16439274D01*
X9808653Y-16439274D02*
X9827701Y-16429750D01*
X9827701Y-16429750D02*
X9865796Y-16429750D01*
X9865796Y-16429750D02*
X9884844Y-16439274D01*
X9884844Y-16439274D02*
X9894368Y-16458322D01*
X9894368Y-16458322D02*
X9894368Y-16477369D01*
X9894368Y-16477369D02*
X9799130Y-16496417D01*
X9970558Y-16553560D02*
X9989606Y-16563084D01*
X9989606Y-16563084D02*
X10027701Y-16563084D01*
X10027701Y-16563084D02*
X10046749Y-16553560D01*
X10046749Y-16553560D02*
X10056273Y-16534512D01*
X10056273Y-16534512D02*
X10056273Y-16524988D01*
X10056273Y-16524988D02*
X10046749Y-16505941D01*
X10046749Y-16505941D02*
X10027701Y-16496417D01*
X10027701Y-16496417D02*
X9999130Y-16496417D01*
X9999130Y-16496417D02*
X9980082Y-16486893D01*
X9980082Y-16486893D02*
X9970558Y-16467846D01*
X9970558Y-16467846D02*
X9970558Y-16458322D01*
X9970558Y-16458322D02*
X9980082Y-16439274D01*
X9980082Y-16439274D02*
X9999130Y-16429750D01*
X9999130Y-16429750D02*
X10027701Y-16429750D01*
X10027701Y-16429750D02*
X10046749Y-16439274D01*
X10122939Y-16639274D02*
X10132463Y-16629750D01*
X10132463Y-16629750D02*
X10151511Y-16601179D01*
X10151511Y-16601179D02*
X10161034Y-16582131D01*
X10161034Y-16582131D02*
X10170558Y-16553560D01*
X10170558Y-16553560D02*
X10180082Y-16505941D01*
X10180082Y-16505941D02*
X10180082Y-16467846D01*
X10180082Y-16467846D02*
X10170558Y-16420227D01*
X10170558Y-16420227D02*
X10161034Y-16391655D01*
X10161034Y-16391655D02*
X10151511Y-16372608D01*
X10151511Y-16372608D02*
X10132463Y-16344036D01*
X10132463Y-16344036D02*
X10122939Y-16334512D01*
D12*
X5141291Y-16774491D02*
X5141291Y-16696709D01*
X5063509Y-16696709D01*
X5063509Y-16774491D01*
X5141291Y-16774491D01*
D11*
X5522939Y-16827084D02*
X5408653Y-16827084D01*
X5465796Y-16827084D02*
X5465796Y-16627084D01*
X5465796Y-16627084D02*
X5446748Y-16655655D01*
X5446748Y-16655655D02*
X5427701Y-16674703D01*
X5427701Y-16674703D02*
X5408653Y-16684227D01*
X5608653Y-16808036D02*
X5618177Y-16817560D01*
X5618177Y-16817560D02*
X5608653Y-16827084D01*
X5608653Y-16827084D02*
X5599129Y-16817560D01*
X5599129Y-16817560D02*
X5608653Y-16808036D01*
X5608653Y-16808036D02*
X5608653Y-16827084D01*
X5808653Y-16827084D02*
X5694367Y-16827084D01*
X5751510Y-16827084D02*
X5751510Y-16627084D01*
X5751510Y-16627084D02*
X5732462Y-16655655D01*
X5732462Y-16655655D02*
X5713415Y-16674703D01*
X5713415Y-16674703D02*
X5694367Y-16684227D01*
X5932462Y-16627084D02*
X5951510Y-16627084D01*
X5951510Y-16627084D02*
X5970558Y-16636608D01*
X5970558Y-16636608D02*
X5980082Y-16646131D01*
X5980082Y-16646131D02*
X5989605Y-16665179D01*
X5989605Y-16665179D02*
X5999129Y-16703274D01*
X5999129Y-16703274D02*
X5999129Y-16750893D01*
X5999129Y-16750893D02*
X5989605Y-16788989D01*
X5989605Y-16788989D02*
X5980082Y-16808036D01*
X5980082Y-16808036D02*
X5970558Y-16817560D01*
X5970558Y-16817560D02*
X5951510Y-16827084D01*
X5951510Y-16827084D02*
X5932462Y-16827084D01*
X5932462Y-16827084D02*
X5913415Y-16817560D01*
X5913415Y-16817560D02*
X5903891Y-16808036D01*
X5903891Y-16808036D02*
X5894367Y-16788989D01*
X5894367Y-16788989D02*
X5884843Y-16750893D01*
X5884843Y-16750893D02*
X5884843Y-16703274D01*
X5884843Y-16703274D02*
X5894367Y-16665179D01*
X5894367Y-16665179D02*
X5903891Y-16646131D01*
X5903891Y-16646131D02*
X5913415Y-16636608D01*
X5913415Y-16636608D02*
X5932462Y-16627084D01*
X6122939Y-16627084D02*
X6141986Y-16627084D01*
X6141986Y-16627084D02*
X6161034Y-16636608D01*
X6161034Y-16636608D02*
X6170558Y-16646131D01*
X6170558Y-16646131D02*
X6180082Y-16665179D01*
X6180082Y-16665179D02*
X6189605Y-16703274D01*
X6189605Y-16703274D02*
X6189605Y-16750893D01*
X6189605Y-16750893D02*
X6180082Y-16788989D01*
X6180082Y-16788989D02*
X6170558Y-16808036D01*
X6170558Y-16808036D02*
X6161034Y-16817560D01*
X6161034Y-16817560D02*
X6141986Y-16827084D01*
X6141986Y-16827084D02*
X6122939Y-16827084D01*
X6122939Y-16827084D02*
X6103891Y-16817560D01*
X6103891Y-16817560D02*
X6094367Y-16808036D01*
X6094367Y-16808036D02*
X6084843Y-16788989D01*
X6084843Y-16788989D02*
X6075320Y-16750893D01*
X6075320Y-16750893D02*
X6075320Y-16703274D01*
X6075320Y-16703274D02*
X6084843Y-16665179D01*
X6084843Y-16665179D02*
X6094367Y-16646131D01*
X6094367Y-16646131D02*
X6103891Y-16636608D01*
X6103891Y-16636608D02*
X6122939Y-16627084D01*
X6275320Y-16827084D02*
X6275320Y-16693750D01*
X6275320Y-16712798D02*
X6284843Y-16703274D01*
X6284843Y-16703274D02*
X6303891Y-16693750D01*
X6303891Y-16693750D02*
X6332463Y-16693750D01*
X6332463Y-16693750D02*
X6351510Y-16703274D01*
X6351510Y-16703274D02*
X6361034Y-16722322D01*
X6361034Y-16722322D02*
X6361034Y-16827084D01*
X6361034Y-16722322D02*
X6370558Y-16703274D01*
X6370558Y-16703274D02*
X6389605Y-16693750D01*
X6389605Y-16693750D02*
X6418177Y-16693750D01*
X6418177Y-16693750D02*
X6437224Y-16703274D01*
X6437224Y-16703274D02*
X6446748Y-16722322D01*
X6446748Y-16722322D02*
X6446748Y-16827084D01*
X6541986Y-16827084D02*
X6541986Y-16693750D01*
X6541986Y-16712798D02*
X6551510Y-16703274D01*
X6551510Y-16703274D02*
X6570558Y-16693750D01*
X6570558Y-16693750D02*
X6599129Y-16693750D01*
X6599129Y-16693750D02*
X6618177Y-16703274D01*
X6618177Y-16703274D02*
X6627701Y-16722322D01*
X6627701Y-16722322D02*
X6627701Y-16827084D01*
X6627701Y-16722322D02*
X6637224Y-16703274D01*
X6637224Y-16703274D02*
X6656272Y-16693750D01*
X6656272Y-16693750D02*
X6684843Y-16693750D01*
X6684843Y-16693750D02*
X6703891Y-16703274D01*
X6703891Y-16703274D02*
X6713415Y-16722322D01*
X6713415Y-16722322D02*
X6713415Y-16827084D01*
X7103891Y-16617560D02*
X6932463Y-16874703D01*
X7361034Y-16627084D02*
X7380082Y-16627084D01*
X7380082Y-16627084D02*
X7399129Y-16636608D01*
X7399129Y-16636608D02*
X7408653Y-16646131D01*
X7408653Y-16646131D02*
X7418177Y-16665179D01*
X7418177Y-16665179D02*
X7427701Y-16703274D01*
X7427701Y-16703274D02*
X7427701Y-16750893D01*
X7427701Y-16750893D02*
X7418177Y-16788989D01*
X7418177Y-16788989D02*
X7408653Y-16808036D01*
X7408653Y-16808036D02*
X7399129Y-16817560D01*
X7399129Y-16817560D02*
X7380082Y-16827084D01*
X7380082Y-16827084D02*
X7361034Y-16827084D01*
X7361034Y-16827084D02*
X7341986Y-16817560D01*
X7341986Y-16817560D02*
X7332463Y-16808036D01*
X7332463Y-16808036D02*
X7322939Y-16788989D01*
X7322939Y-16788989D02*
X7313415Y-16750893D01*
X7313415Y-16750893D02*
X7313415Y-16703274D01*
X7313415Y-16703274D02*
X7322939Y-16665179D01*
X7322939Y-16665179D02*
X7332463Y-16646131D01*
X7332463Y-16646131D02*
X7341986Y-16636608D01*
X7341986Y-16636608D02*
X7361034Y-16627084D01*
X7513415Y-16808036D02*
X7522939Y-16817560D01*
X7522939Y-16817560D02*
X7513415Y-16827084D01*
X7513415Y-16827084D02*
X7503891Y-16817560D01*
X7503891Y-16817560D02*
X7513415Y-16808036D01*
X7513415Y-16808036D02*
X7513415Y-16827084D01*
X7646748Y-16627084D02*
X7665796Y-16627084D01*
X7665796Y-16627084D02*
X7684844Y-16636608D01*
X7684844Y-16636608D02*
X7694367Y-16646131D01*
X7694367Y-16646131D02*
X7703891Y-16665179D01*
X7703891Y-16665179D02*
X7713415Y-16703274D01*
X7713415Y-16703274D02*
X7713415Y-16750893D01*
X7713415Y-16750893D02*
X7703891Y-16788989D01*
X7703891Y-16788989D02*
X7694367Y-16808036D01*
X7694367Y-16808036D02*
X7684844Y-16817560D01*
X7684844Y-16817560D02*
X7665796Y-16827084D01*
X7665796Y-16827084D02*
X7646748Y-16827084D01*
X7646748Y-16827084D02*
X7627701Y-16817560D01*
X7627701Y-16817560D02*
X7618177Y-16808036D01*
X7618177Y-16808036D02*
X7608653Y-16788989D01*
X7608653Y-16788989D02*
X7599129Y-16750893D01*
X7599129Y-16750893D02*
X7599129Y-16703274D01*
X7599129Y-16703274D02*
X7608653Y-16665179D01*
X7608653Y-16665179D02*
X7618177Y-16646131D01*
X7618177Y-16646131D02*
X7627701Y-16636608D01*
X7627701Y-16636608D02*
X7646748Y-16627084D01*
X7884844Y-16693750D02*
X7884844Y-16827084D01*
X7837225Y-16617560D02*
X7789606Y-16760417D01*
X7789606Y-16760417D02*
X7913415Y-16760417D01*
X7970558Y-16627084D02*
X8094367Y-16627084D01*
X8094367Y-16627084D02*
X8027701Y-16703274D01*
X8027701Y-16703274D02*
X8056272Y-16703274D01*
X8056272Y-16703274D02*
X8075320Y-16712798D01*
X8075320Y-16712798D02*
X8084844Y-16722322D01*
X8084844Y-16722322D02*
X8094367Y-16741369D01*
X8094367Y-16741369D02*
X8094367Y-16788989D01*
X8094367Y-16788989D02*
X8084844Y-16808036D01*
X8084844Y-16808036D02*
X8075320Y-16817560D01*
X8075320Y-16817560D02*
X8056272Y-16827084D01*
X8056272Y-16827084D02*
X7999129Y-16827084D01*
X7999129Y-16827084D02*
X7980082Y-16817560D01*
X7980082Y-16817560D02*
X7970558Y-16808036D01*
X8161034Y-16627084D02*
X8284844Y-16627084D01*
X8284844Y-16627084D02*
X8218177Y-16703274D01*
X8218177Y-16703274D02*
X8246748Y-16703274D01*
X8246748Y-16703274D02*
X8265796Y-16712798D01*
X8265796Y-16712798D02*
X8275320Y-16722322D01*
X8275320Y-16722322D02*
X8284844Y-16741369D01*
X8284844Y-16741369D02*
X8284844Y-16788989D01*
X8284844Y-16788989D02*
X8275320Y-16808036D01*
X8275320Y-16808036D02*
X8265796Y-16817560D01*
X8265796Y-16817560D02*
X8246748Y-16827084D01*
X8246748Y-16827084D02*
X8189606Y-16827084D01*
X8189606Y-16827084D02*
X8170558Y-16817560D01*
X8170558Y-16817560D02*
X8161034Y-16808036D01*
X8361034Y-16627084D02*
X8361034Y-16665179D01*
X8437225Y-16627084D02*
X8437225Y-16665179D01*
X8732463Y-16903274D02*
X8722939Y-16893750D01*
X8722939Y-16893750D02*
X8703891Y-16865179D01*
X8703891Y-16865179D02*
X8694368Y-16846131D01*
X8694368Y-16846131D02*
X8684844Y-16817560D01*
X8684844Y-16817560D02*
X8675320Y-16769941D01*
X8675320Y-16769941D02*
X8675320Y-16731846D01*
X8675320Y-16731846D02*
X8684844Y-16684227D01*
X8684844Y-16684227D02*
X8694368Y-16655655D01*
X8694368Y-16655655D02*
X8703891Y-16636608D01*
X8703891Y-16636608D02*
X8722939Y-16608036D01*
X8722939Y-16608036D02*
X8732463Y-16598512D01*
X8913415Y-16827084D02*
X8799130Y-16827084D01*
X8856272Y-16827084D02*
X8856272Y-16627084D01*
X8856272Y-16627084D02*
X8837225Y-16655655D01*
X8837225Y-16655655D02*
X8818177Y-16674703D01*
X8818177Y-16674703D02*
X8799130Y-16684227D01*
X9084844Y-16627084D02*
X9046749Y-16627084D01*
X9046749Y-16627084D02*
X9027701Y-16636608D01*
X9027701Y-16636608D02*
X9018177Y-16646131D01*
X9018177Y-16646131D02*
X8999130Y-16674703D01*
X8999130Y-16674703D02*
X8989606Y-16712798D01*
X8989606Y-16712798D02*
X8989606Y-16788989D01*
X8989606Y-16788989D02*
X8999130Y-16808036D01*
X8999130Y-16808036D02*
X9008653Y-16817560D01*
X9008653Y-16817560D02*
X9027701Y-16827084D01*
X9027701Y-16827084D02*
X9065796Y-16827084D01*
X9065796Y-16827084D02*
X9084844Y-16817560D01*
X9084844Y-16817560D02*
X9094368Y-16808036D01*
X9094368Y-16808036D02*
X9103891Y-16788989D01*
X9103891Y-16788989D02*
X9103891Y-16741369D01*
X9103891Y-16741369D02*
X9094368Y-16722322D01*
X9094368Y-16722322D02*
X9084844Y-16712798D01*
X9084844Y-16712798D02*
X9065796Y-16703274D01*
X9065796Y-16703274D02*
X9027701Y-16703274D01*
X9027701Y-16703274D02*
X9008653Y-16712798D01*
X9008653Y-16712798D02*
X8999130Y-16722322D01*
X8999130Y-16722322D02*
X8989606Y-16741369D01*
X9341987Y-16827084D02*
X9341987Y-16627084D01*
X9427701Y-16827084D02*
X9427701Y-16722322D01*
X9427701Y-16722322D02*
X9418177Y-16703274D01*
X9418177Y-16703274D02*
X9399130Y-16693750D01*
X9399130Y-16693750D02*
X9370558Y-16693750D01*
X9370558Y-16693750D02*
X9351511Y-16703274D01*
X9351511Y-16703274D02*
X9341987Y-16712798D01*
X9551511Y-16827084D02*
X9532463Y-16817560D01*
X9532463Y-16817560D02*
X9522939Y-16808036D01*
X9522939Y-16808036D02*
X9513415Y-16788989D01*
X9513415Y-16788989D02*
X9513415Y-16731846D01*
X9513415Y-16731846D02*
X9522939Y-16712798D01*
X9522939Y-16712798D02*
X9532463Y-16703274D01*
X9532463Y-16703274D02*
X9551511Y-16693750D01*
X9551511Y-16693750D02*
X9580082Y-16693750D01*
X9580082Y-16693750D02*
X9599130Y-16703274D01*
X9599130Y-16703274D02*
X9608653Y-16712798D01*
X9608653Y-16712798D02*
X9618177Y-16731846D01*
X9618177Y-16731846D02*
X9618177Y-16788989D01*
X9618177Y-16788989D02*
X9608653Y-16808036D01*
X9608653Y-16808036D02*
X9599130Y-16817560D01*
X9599130Y-16817560D02*
X9580082Y-16827084D01*
X9580082Y-16827084D02*
X9551511Y-16827084D01*
X9732463Y-16827084D02*
X9713415Y-16817560D01*
X9713415Y-16817560D02*
X9703892Y-16798512D01*
X9703892Y-16798512D02*
X9703892Y-16627084D01*
X9884844Y-16817560D02*
X9865796Y-16827084D01*
X9865796Y-16827084D02*
X9827701Y-16827084D01*
X9827701Y-16827084D02*
X9808653Y-16817560D01*
X9808653Y-16817560D02*
X9799130Y-16798512D01*
X9799130Y-16798512D02*
X9799130Y-16722322D01*
X9799130Y-16722322D02*
X9808653Y-16703274D01*
X9808653Y-16703274D02*
X9827701Y-16693750D01*
X9827701Y-16693750D02*
X9865796Y-16693750D01*
X9865796Y-16693750D02*
X9884844Y-16703274D01*
X9884844Y-16703274D02*
X9894368Y-16722322D01*
X9894368Y-16722322D02*
X9894368Y-16741369D01*
X9894368Y-16741369D02*
X9799130Y-16760417D01*
X9970558Y-16817560D02*
X9989606Y-16827084D01*
X9989606Y-16827084D02*
X10027701Y-16827084D01*
X10027701Y-16827084D02*
X10046749Y-16817560D01*
X10046749Y-16817560D02*
X10056273Y-16798512D01*
X10056273Y-16798512D02*
X10056273Y-16788989D01*
X10056273Y-16788989D02*
X10046749Y-16769941D01*
X10046749Y-16769941D02*
X10027701Y-16760417D01*
X10027701Y-16760417D02*
X9999130Y-16760417D01*
X9999130Y-16760417D02*
X9980082Y-16750893D01*
X9980082Y-16750893D02*
X9970558Y-16731846D01*
X9970558Y-16731846D02*
X9970558Y-16722322D01*
X9970558Y-16722322D02*
X9980082Y-16703274D01*
X9980082Y-16703274D02*
X9999130Y-16693750D01*
X9999130Y-16693750D02*
X10027701Y-16693750D01*
X10027701Y-16693750D02*
X10046749Y-16703274D01*
X10122939Y-16903274D02*
X10132463Y-16893750D01*
X10132463Y-16893750D02*
X10151511Y-16865179D01*
X10151511Y-16865179D02*
X10161034Y-16846131D01*
X10161034Y-16846131D02*
X10170558Y-16817560D01*
X10170558Y-16817560D02*
X10180082Y-16769941D01*
X10180082Y-16769941D02*
X10180082Y-16731846D01*
X10180082Y-16731846D02*
X10170558Y-16684227D01*
X10170558Y-16684227D02*
X10161034Y-16655655D01*
X10161034Y-16655655D02*
X10151511Y-16636608D01*
X10151511Y-16636608D02*
X10132463Y-16608036D01*
X10132463Y-16608036D02*
X10122939Y-16598512D01*
D13*
X5097400Y-17059600D02*
X5157400Y-16999600D01*
X5097400Y-16939600D01*
X5037400Y-16999600D01*
X5097400Y-17059600D01*
D11*
X5522939Y-17091084D02*
X5408653Y-17091084D01*
X5465796Y-17091084D02*
X5465796Y-16891084D01*
X5465796Y-16891084D02*
X5446748Y-16919655D01*
X5446748Y-16919655D02*
X5427701Y-16938703D01*
X5427701Y-16938703D02*
X5408653Y-16948227D01*
X5608653Y-17072036D02*
X5618177Y-17081560D01*
X5618177Y-17081560D02*
X5608653Y-17091084D01*
X5608653Y-17091084D02*
X5599129Y-17081560D01*
X5599129Y-17081560D02*
X5608653Y-17072036D01*
X5608653Y-17072036D02*
X5608653Y-17091084D01*
X5694367Y-16910131D02*
X5703891Y-16900608D01*
X5703891Y-16900608D02*
X5722939Y-16891084D01*
X5722939Y-16891084D02*
X5770558Y-16891084D01*
X5770558Y-16891084D02*
X5789605Y-16900608D01*
X5789605Y-16900608D02*
X5799129Y-16910131D01*
X5799129Y-16910131D02*
X5808653Y-16929179D01*
X5808653Y-16929179D02*
X5808653Y-16948227D01*
X5808653Y-16948227D02*
X5799129Y-16976798D01*
X5799129Y-16976798D02*
X5684843Y-17091084D01*
X5684843Y-17091084D02*
X5808653Y-17091084D01*
X5932462Y-16891084D02*
X5951510Y-16891084D01*
X5951510Y-16891084D02*
X5970558Y-16900608D01*
X5970558Y-16900608D02*
X5980082Y-16910131D01*
X5980082Y-16910131D02*
X5989605Y-16929179D01*
X5989605Y-16929179D02*
X5999129Y-16967274D01*
X5999129Y-16967274D02*
X5999129Y-17014893D01*
X5999129Y-17014893D02*
X5989605Y-17052989D01*
X5989605Y-17052989D02*
X5980082Y-17072036D01*
X5980082Y-17072036D02*
X5970558Y-17081560D01*
X5970558Y-17081560D02*
X5951510Y-17091084D01*
X5951510Y-17091084D02*
X5932462Y-17091084D01*
X5932462Y-17091084D02*
X5913415Y-17081560D01*
X5913415Y-17081560D02*
X5903891Y-17072036D01*
X5903891Y-17072036D02*
X5894367Y-17052989D01*
X5894367Y-17052989D02*
X5884843Y-17014893D01*
X5884843Y-17014893D02*
X5884843Y-16967274D01*
X5884843Y-16967274D02*
X5894367Y-16929179D01*
X5894367Y-16929179D02*
X5903891Y-16910131D01*
X5903891Y-16910131D02*
X5913415Y-16900608D01*
X5913415Y-16900608D02*
X5932462Y-16891084D01*
X6122939Y-16891084D02*
X6141986Y-16891084D01*
X6141986Y-16891084D02*
X6161034Y-16900608D01*
X6161034Y-16900608D02*
X6170558Y-16910131D01*
X6170558Y-16910131D02*
X6180082Y-16929179D01*
X6180082Y-16929179D02*
X6189605Y-16967274D01*
X6189605Y-16967274D02*
X6189605Y-17014893D01*
X6189605Y-17014893D02*
X6180082Y-17052989D01*
X6180082Y-17052989D02*
X6170558Y-17072036D01*
X6170558Y-17072036D02*
X6161034Y-17081560D01*
X6161034Y-17081560D02*
X6141986Y-17091084D01*
X6141986Y-17091084D02*
X6122939Y-17091084D01*
X6122939Y-17091084D02*
X6103891Y-17081560D01*
X6103891Y-17081560D02*
X6094367Y-17072036D01*
X6094367Y-17072036D02*
X6084843Y-17052989D01*
X6084843Y-17052989D02*
X6075320Y-17014893D01*
X6075320Y-17014893D02*
X6075320Y-16967274D01*
X6075320Y-16967274D02*
X6084843Y-16929179D01*
X6084843Y-16929179D02*
X6094367Y-16910131D01*
X6094367Y-16910131D02*
X6103891Y-16900608D01*
X6103891Y-16900608D02*
X6122939Y-16891084D01*
X6275320Y-17091084D02*
X6275320Y-16957750D01*
X6275320Y-16976798D02*
X6284843Y-16967274D01*
X6284843Y-16967274D02*
X6303891Y-16957750D01*
X6303891Y-16957750D02*
X6332463Y-16957750D01*
X6332463Y-16957750D02*
X6351510Y-16967274D01*
X6351510Y-16967274D02*
X6361034Y-16986322D01*
X6361034Y-16986322D02*
X6361034Y-17091084D01*
X6361034Y-16986322D02*
X6370558Y-16967274D01*
X6370558Y-16967274D02*
X6389605Y-16957750D01*
X6389605Y-16957750D02*
X6418177Y-16957750D01*
X6418177Y-16957750D02*
X6437224Y-16967274D01*
X6437224Y-16967274D02*
X6446748Y-16986322D01*
X6446748Y-16986322D02*
X6446748Y-17091084D01*
X6541986Y-17091084D02*
X6541986Y-16957750D01*
X6541986Y-16976798D02*
X6551510Y-16967274D01*
X6551510Y-16967274D02*
X6570558Y-16957750D01*
X6570558Y-16957750D02*
X6599129Y-16957750D01*
X6599129Y-16957750D02*
X6618177Y-16967274D01*
X6618177Y-16967274D02*
X6627701Y-16986322D01*
X6627701Y-16986322D02*
X6627701Y-17091084D01*
X6627701Y-16986322D02*
X6637224Y-16967274D01*
X6637224Y-16967274D02*
X6656272Y-16957750D01*
X6656272Y-16957750D02*
X6684843Y-16957750D01*
X6684843Y-16957750D02*
X6703891Y-16967274D01*
X6703891Y-16967274D02*
X6713415Y-16986322D01*
X6713415Y-16986322D02*
X6713415Y-17091084D01*
X7103891Y-16881560D02*
X6932463Y-17138703D01*
X7361034Y-16891084D02*
X7380082Y-16891084D01*
X7380082Y-16891084D02*
X7399129Y-16900608D01*
X7399129Y-16900608D02*
X7408653Y-16910131D01*
X7408653Y-16910131D02*
X7418177Y-16929179D01*
X7418177Y-16929179D02*
X7427701Y-16967274D01*
X7427701Y-16967274D02*
X7427701Y-17014893D01*
X7427701Y-17014893D02*
X7418177Y-17052989D01*
X7418177Y-17052989D02*
X7408653Y-17072036D01*
X7408653Y-17072036D02*
X7399129Y-17081560D01*
X7399129Y-17081560D02*
X7380082Y-17091084D01*
X7380082Y-17091084D02*
X7361034Y-17091084D01*
X7361034Y-17091084D02*
X7341986Y-17081560D01*
X7341986Y-17081560D02*
X7332463Y-17072036D01*
X7332463Y-17072036D02*
X7322939Y-17052989D01*
X7322939Y-17052989D02*
X7313415Y-17014893D01*
X7313415Y-17014893D02*
X7313415Y-16967274D01*
X7313415Y-16967274D02*
X7322939Y-16929179D01*
X7322939Y-16929179D02*
X7332463Y-16910131D01*
X7332463Y-16910131D02*
X7341986Y-16900608D01*
X7341986Y-16900608D02*
X7361034Y-16891084D01*
X7513415Y-17072036D02*
X7522939Y-17081560D01*
X7522939Y-17081560D02*
X7513415Y-17091084D01*
X7513415Y-17091084D02*
X7503891Y-17081560D01*
X7503891Y-17081560D02*
X7513415Y-17072036D01*
X7513415Y-17072036D02*
X7513415Y-17091084D01*
X7646748Y-16891084D02*
X7665796Y-16891084D01*
X7665796Y-16891084D02*
X7684844Y-16900608D01*
X7684844Y-16900608D02*
X7694367Y-16910131D01*
X7694367Y-16910131D02*
X7703891Y-16929179D01*
X7703891Y-16929179D02*
X7713415Y-16967274D01*
X7713415Y-16967274D02*
X7713415Y-17014893D01*
X7713415Y-17014893D02*
X7703891Y-17052989D01*
X7703891Y-17052989D02*
X7694367Y-17072036D01*
X7694367Y-17072036D02*
X7684844Y-17081560D01*
X7684844Y-17081560D02*
X7665796Y-17091084D01*
X7665796Y-17091084D02*
X7646748Y-17091084D01*
X7646748Y-17091084D02*
X7627701Y-17081560D01*
X7627701Y-17081560D02*
X7618177Y-17072036D01*
X7618177Y-17072036D02*
X7608653Y-17052989D01*
X7608653Y-17052989D02*
X7599129Y-17014893D01*
X7599129Y-17014893D02*
X7599129Y-16967274D01*
X7599129Y-16967274D02*
X7608653Y-16929179D01*
X7608653Y-16929179D02*
X7618177Y-16910131D01*
X7618177Y-16910131D02*
X7627701Y-16900608D01*
X7627701Y-16900608D02*
X7646748Y-16891084D01*
X7884844Y-16957750D02*
X7884844Y-17091084D01*
X7837225Y-16881560D02*
X7789606Y-17024417D01*
X7789606Y-17024417D02*
X7913415Y-17024417D01*
X7970558Y-16891084D02*
X8103891Y-16891084D01*
X8103891Y-16891084D02*
X8018177Y-17091084D01*
X8170558Y-16910131D02*
X8180082Y-16900608D01*
X8180082Y-16900608D02*
X8199129Y-16891084D01*
X8199129Y-16891084D02*
X8246748Y-16891084D01*
X8246748Y-16891084D02*
X8265796Y-16900608D01*
X8265796Y-16900608D02*
X8275320Y-16910131D01*
X8275320Y-16910131D02*
X8284844Y-16929179D01*
X8284844Y-16929179D02*
X8284844Y-16948227D01*
X8284844Y-16948227D02*
X8275320Y-16976798D01*
X8275320Y-16976798D02*
X8161034Y-17091084D01*
X8161034Y-17091084D02*
X8284844Y-17091084D01*
X8361034Y-16891084D02*
X8361034Y-16929179D01*
X8437225Y-16891084D02*
X8437225Y-16929179D01*
X8732463Y-17167274D02*
X8722939Y-17157750D01*
X8722939Y-17157750D02*
X8703891Y-17129179D01*
X8703891Y-17129179D02*
X8694368Y-17110131D01*
X8694368Y-17110131D02*
X8684844Y-17081560D01*
X8684844Y-17081560D02*
X8675320Y-17033941D01*
X8675320Y-17033941D02*
X8675320Y-16995846D01*
X8675320Y-16995846D02*
X8684844Y-16948227D01*
X8684844Y-16948227D02*
X8694368Y-16919655D01*
X8694368Y-16919655D02*
X8703891Y-16900608D01*
X8703891Y-16900608D02*
X8722939Y-16872036D01*
X8722939Y-16872036D02*
X8732463Y-16862512D01*
X8903891Y-16891084D02*
X8808653Y-16891084D01*
X8808653Y-16891084D02*
X8799130Y-16986322D01*
X8799130Y-16986322D02*
X8808653Y-16976798D01*
X8808653Y-16976798D02*
X8827701Y-16967274D01*
X8827701Y-16967274D02*
X8875320Y-16967274D01*
X8875320Y-16967274D02*
X8894368Y-16976798D01*
X8894368Y-16976798D02*
X8903891Y-16986322D01*
X8903891Y-16986322D02*
X8913415Y-17005370D01*
X8913415Y-17005370D02*
X8913415Y-17052989D01*
X8913415Y-17052989D02*
X8903891Y-17072036D01*
X8903891Y-17072036D02*
X8894368Y-17081560D01*
X8894368Y-17081560D02*
X8875320Y-17091084D01*
X8875320Y-17091084D02*
X8827701Y-17091084D01*
X8827701Y-17091084D02*
X8808653Y-17081560D01*
X8808653Y-17081560D02*
X8799130Y-17072036D01*
X9084844Y-16957750D02*
X9084844Y-17091084D01*
X9037225Y-16881560D02*
X8989606Y-17024417D01*
X8989606Y-17024417D02*
X9113415Y-17024417D01*
X9341987Y-17091084D02*
X9341987Y-16891084D01*
X9427701Y-17091084D02*
X9427701Y-16986322D01*
X9427701Y-16986322D02*
X9418177Y-16967274D01*
X9418177Y-16967274D02*
X9399130Y-16957750D01*
X9399130Y-16957750D02*
X9370558Y-16957750D01*
X9370558Y-16957750D02*
X9351511Y-16967274D01*
X9351511Y-16967274D02*
X9341987Y-16976798D01*
X9551511Y-17091084D02*
X9532463Y-17081560D01*
X9532463Y-17081560D02*
X9522939Y-17072036D01*
X9522939Y-17072036D02*
X9513415Y-17052989D01*
X9513415Y-17052989D02*
X9513415Y-16995846D01*
X9513415Y-16995846D02*
X9522939Y-16976798D01*
X9522939Y-16976798D02*
X9532463Y-16967274D01*
X9532463Y-16967274D02*
X9551511Y-16957750D01*
X9551511Y-16957750D02*
X9580082Y-16957750D01*
X9580082Y-16957750D02*
X9599130Y-16967274D01*
X9599130Y-16967274D02*
X9608653Y-16976798D01*
X9608653Y-16976798D02*
X9618177Y-16995846D01*
X9618177Y-16995846D02*
X9618177Y-17052989D01*
X9618177Y-17052989D02*
X9608653Y-17072036D01*
X9608653Y-17072036D02*
X9599130Y-17081560D01*
X9599130Y-17081560D02*
X9580082Y-17091084D01*
X9580082Y-17091084D02*
X9551511Y-17091084D01*
X9732463Y-17091084D02*
X9713415Y-17081560D01*
X9713415Y-17081560D02*
X9703892Y-17062512D01*
X9703892Y-17062512D02*
X9703892Y-16891084D01*
X9884844Y-17081560D02*
X9865796Y-17091084D01*
X9865796Y-17091084D02*
X9827701Y-17091084D01*
X9827701Y-17091084D02*
X9808653Y-17081560D01*
X9808653Y-17081560D02*
X9799130Y-17062512D01*
X9799130Y-17062512D02*
X9799130Y-16986322D01*
X9799130Y-16986322D02*
X9808653Y-16967274D01*
X9808653Y-16967274D02*
X9827701Y-16957750D01*
X9827701Y-16957750D02*
X9865796Y-16957750D01*
X9865796Y-16957750D02*
X9884844Y-16967274D01*
X9884844Y-16967274D02*
X9894368Y-16986322D01*
X9894368Y-16986322D02*
X9894368Y-17005370D01*
X9894368Y-17005370D02*
X9799130Y-17024417D01*
X9970558Y-17081560D02*
X9989606Y-17091084D01*
X9989606Y-17091084D02*
X10027701Y-17091084D01*
X10027701Y-17091084D02*
X10046749Y-17081560D01*
X10046749Y-17081560D02*
X10056273Y-17062512D01*
X10056273Y-17062512D02*
X10056273Y-17052989D01*
X10056273Y-17052989D02*
X10046749Y-17033941D01*
X10046749Y-17033941D02*
X10027701Y-17024417D01*
X10027701Y-17024417D02*
X9999130Y-17024417D01*
X9999130Y-17024417D02*
X9980082Y-17014893D01*
X9980082Y-17014893D02*
X9970558Y-16995846D01*
X9970558Y-16995846D02*
X9970558Y-16986322D01*
X9970558Y-16986322D02*
X9980082Y-16967274D01*
X9980082Y-16967274D02*
X9999130Y-16957750D01*
X9999130Y-16957750D02*
X10027701Y-16957750D01*
X10027701Y-16957750D02*
X10046749Y-16967274D01*
X10122939Y-17167274D02*
X10132463Y-17157750D01*
X10132463Y-17157750D02*
X10151511Y-17129179D01*
X10151511Y-17129179D02*
X10161034Y-17110131D01*
X10161034Y-17110131D02*
X10170558Y-17081560D01*
X10170558Y-17081560D02*
X10180082Y-17033941D01*
X10180082Y-17033941D02*
X10180082Y-16995846D01*
X10180082Y-16995846D02*
X10170558Y-16948227D01*
X10170558Y-16948227D02*
X10161034Y-16919655D01*
X10161034Y-16919655D02*
X10151511Y-16900608D01*
X10151511Y-16900608D02*
X10132463Y-16872036D01*
X10132463Y-16872036D02*
X10122939Y-16862512D01*
X4957400Y-17163600D02*
X5157400Y-17363600D01*
X5157400Y-17163600D02*
X4957400Y-17363600D01*
X5157400Y-17263600D02*
G75*
G02*
X4957400Y-17263600I-100000J0D01*
G01*
X4957400Y-17263600D02*
G75*
G02*
X5157400Y-17263600I100000J0D01*
G01*
X5408653Y-17174131D02*
X5418177Y-17164608D01*
X5418177Y-17164608D02*
X5437224Y-17155084D01*
X5437224Y-17155084D02*
X5484844Y-17155084D01*
X5484844Y-17155084D02*
X5503891Y-17164608D01*
X5503891Y-17164608D02*
X5513415Y-17174131D01*
X5513415Y-17174131D02*
X5522939Y-17193179D01*
X5522939Y-17193179D02*
X5522939Y-17212227D01*
X5522939Y-17212227D02*
X5513415Y-17240798D01*
X5513415Y-17240798D02*
X5399129Y-17355084D01*
X5399129Y-17355084D02*
X5522939Y-17355084D01*
X5608653Y-17336036D02*
X5618177Y-17345560D01*
X5618177Y-17345560D02*
X5608653Y-17355084D01*
X5608653Y-17355084D02*
X5599129Y-17345560D01*
X5599129Y-17345560D02*
X5608653Y-17336036D01*
X5608653Y-17336036D02*
X5608653Y-17355084D01*
X5694367Y-17174131D02*
X5703891Y-17164608D01*
X5703891Y-17164608D02*
X5722939Y-17155084D01*
X5722939Y-17155084D02*
X5770558Y-17155084D01*
X5770558Y-17155084D02*
X5789605Y-17164608D01*
X5789605Y-17164608D02*
X5799129Y-17174131D01*
X5799129Y-17174131D02*
X5808653Y-17193179D01*
X5808653Y-17193179D02*
X5808653Y-17212227D01*
X5808653Y-17212227D02*
X5799129Y-17240798D01*
X5799129Y-17240798D02*
X5684843Y-17355084D01*
X5684843Y-17355084D02*
X5808653Y-17355084D01*
X5932462Y-17155084D02*
X5951510Y-17155084D01*
X5951510Y-17155084D02*
X5970558Y-17164608D01*
X5970558Y-17164608D02*
X5980082Y-17174131D01*
X5980082Y-17174131D02*
X5989605Y-17193179D01*
X5989605Y-17193179D02*
X5999129Y-17231274D01*
X5999129Y-17231274D02*
X5999129Y-17278893D01*
X5999129Y-17278893D02*
X5989605Y-17316989D01*
X5989605Y-17316989D02*
X5980082Y-17336036D01*
X5980082Y-17336036D02*
X5970558Y-17345560D01*
X5970558Y-17345560D02*
X5951510Y-17355084D01*
X5951510Y-17355084D02*
X5932462Y-17355084D01*
X5932462Y-17355084D02*
X5913415Y-17345560D01*
X5913415Y-17345560D02*
X5903891Y-17336036D01*
X5903891Y-17336036D02*
X5894367Y-17316989D01*
X5894367Y-17316989D02*
X5884843Y-17278893D01*
X5884843Y-17278893D02*
X5884843Y-17231274D01*
X5884843Y-17231274D02*
X5894367Y-17193179D01*
X5894367Y-17193179D02*
X5903891Y-17174131D01*
X5903891Y-17174131D02*
X5913415Y-17164608D01*
X5913415Y-17164608D02*
X5932462Y-17155084D01*
X6122939Y-17155084D02*
X6141986Y-17155084D01*
X6141986Y-17155084D02*
X6161034Y-17164608D01*
X6161034Y-17164608D02*
X6170558Y-17174131D01*
X6170558Y-17174131D02*
X6180082Y-17193179D01*
X6180082Y-17193179D02*
X6189605Y-17231274D01*
X6189605Y-17231274D02*
X6189605Y-17278893D01*
X6189605Y-17278893D02*
X6180082Y-17316989D01*
X6180082Y-17316989D02*
X6170558Y-17336036D01*
X6170558Y-17336036D02*
X6161034Y-17345560D01*
X6161034Y-17345560D02*
X6141986Y-17355084D01*
X6141986Y-17355084D02*
X6122939Y-17355084D01*
X6122939Y-17355084D02*
X6103891Y-17345560D01*
X6103891Y-17345560D02*
X6094367Y-17336036D01*
X6094367Y-17336036D02*
X6084843Y-17316989D01*
X6084843Y-17316989D02*
X6075320Y-17278893D01*
X6075320Y-17278893D02*
X6075320Y-17231274D01*
X6075320Y-17231274D02*
X6084843Y-17193179D01*
X6084843Y-17193179D02*
X6094367Y-17174131D01*
X6094367Y-17174131D02*
X6103891Y-17164608D01*
X6103891Y-17164608D02*
X6122939Y-17155084D01*
X6275320Y-17355084D02*
X6275320Y-17221750D01*
X6275320Y-17240798D02*
X6284843Y-17231274D01*
X6284843Y-17231274D02*
X6303891Y-17221750D01*
X6303891Y-17221750D02*
X6332463Y-17221750D01*
X6332463Y-17221750D02*
X6351510Y-17231274D01*
X6351510Y-17231274D02*
X6361034Y-17250322D01*
X6361034Y-17250322D02*
X6361034Y-17355084D01*
X6361034Y-17250322D02*
X6370558Y-17231274D01*
X6370558Y-17231274D02*
X6389605Y-17221750D01*
X6389605Y-17221750D02*
X6418177Y-17221750D01*
X6418177Y-17221750D02*
X6437224Y-17231274D01*
X6437224Y-17231274D02*
X6446748Y-17250322D01*
X6446748Y-17250322D02*
X6446748Y-17355084D01*
X6541986Y-17355084D02*
X6541986Y-17221750D01*
X6541986Y-17240798D02*
X6551510Y-17231274D01*
X6551510Y-17231274D02*
X6570558Y-17221750D01*
X6570558Y-17221750D02*
X6599129Y-17221750D01*
X6599129Y-17221750D02*
X6618177Y-17231274D01*
X6618177Y-17231274D02*
X6627701Y-17250322D01*
X6627701Y-17250322D02*
X6627701Y-17355084D01*
X6627701Y-17250322D02*
X6637224Y-17231274D01*
X6637224Y-17231274D02*
X6656272Y-17221750D01*
X6656272Y-17221750D02*
X6684843Y-17221750D01*
X6684843Y-17221750D02*
X6703891Y-17231274D01*
X6703891Y-17231274D02*
X6713415Y-17250322D01*
X6713415Y-17250322D02*
X6713415Y-17355084D01*
X7103891Y-17145560D02*
X6932463Y-17402703D01*
X7361034Y-17155084D02*
X7380082Y-17155084D01*
X7380082Y-17155084D02*
X7399129Y-17164608D01*
X7399129Y-17164608D02*
X7408653Y-17174131D01*
X7408653Y-17174131D02*
X7418177Y-17193179D01*
X7418177Y-17193179D02*
X7427701Y-17231274D01*
X7427701Y-17231274D02*
X7427701Y-17278893D01*
X7427701Y-17278893D02*
X7418177Y-17316989D01*
X7418177Y-17316989D02*
X7408653Y-17336036D01*
X7408653Y-17336036D02*
X7399129Y-17345560D01*
X7399129Y-17345560D02*
X7380082Y-17355084D01*
X7380082Y-17355084D02*
X7361034Y-17355084D01*
X7361034Y-17355084D02*
X7341986Y-17345560D01*
X7341986Y-17345560D02*
X7332463Y-17336036D01*
X7332463Y-17336036D02*
X7322939Y-17316989D01*
X7322939Y-17316989D02*
X7313415Y-17278893D01*
X7313415Y-17278893D02*
X7313415Y-17231274D01*
X7313415Y-17231274D02*
X7322939Y-17193179D01*
X7322939Y-17193179D02*
X7332463Y-17174131D01*
X7332463Y-17174131D02*
X7341986Y-17164608D01*
X7341986Y-17164608D02*
X7361034Y-17155084D01*
X7513415Y-17336036D02*
X7522939Y-17345560D01*
X7522939Y-17345560D02*
X7513415Y-17355084D01*
X7513415Y-17355084D02*
X7503891Y-17345560D01*
X7503891Y-17345560D02*
X7513415Y-17336036D01*
X7513415Y-17336036D02*
X7513415Y-17355084D01*
X7646748Y-17155084D02*
X7665796Y-17155084D01*
X7665796Y-17155084D02*
X7684844Y-17164608D01*
X7684844Y-17164608D02*
X7694367Y-17174131D01*
X7694367Y-17174131D02*
X7703891Y-17193179D01*
X7703891Y-17193179D02*
X7713415Y-17231274D01*
X7713415Y-17231274D02*
X7713415Y-17278893D01*
X7713415Y-17278893D02*
X7703891Y-17316989D01*
X7703891Y-17316989D02*
X7694367Y-17336036D01*
X7694367Y-17336036D02*
X7684844Y-17345560D01*
X7684844Y-17345560D02*
X7665796Y-17355084D01*
X7665796Y-17355084D02*
X7646748Y-17355084D01*
X7646748Y-17355084D02*
X7627701Y-17345560D01*
X7627701Y-17345560D02*
X7618177Y-17336036D01*
X7618177Y-17336036D02*
X7608653Y-17316989D01*
X7608653Y-17316989D02*
X7599129Y-17278893D01*
X7599129Y-17278893D02*
X7599129Y-17231274D01*
X7599129Y-17231274D02*
X7608653Y-17193179D01*
X7608653Y-17193179D02*
X7618177Y-17174131D01*
X7618177Y-17174131D02*
X7627701Y-17164608D01*
X7627701Y-17164608D02*
X7646748Y-17155084D01*
X7827701Y-17240798D02*
X7808653Y-17231274D01*
X7808653Y-17231274D02*
X7799129Y-17221750D01*
X7799129Y-17221750D02*
X7789606Y-17202703D01*
X7789606Y-17202703D02*
X7789606Y-17193179D01*
X7789606Y-17193179D02*
X7799129Y-17174131D01*
X7799129Y-17174131D02*
X7808653Y-17164608D01*
X7808653Y-17164608D02*
X7827701Y-17155084D01*
X7827701Y-17155084D02*
X7865796Y-17155084D01*
X7865796Y-17155084D02*
X7884844Y-17164608D01*
X7884844Y-17164608D02*
X7894367Y-17174131D01*
X7894367Y-17174131D02*
X7903891Y-17193179D01*
X7903891Y-17193179D02*
X7903891Y-17202703D01*
X7903891Y-17202703D02*
X7894367Y-17221750D01*
X7894367Y-17221750D02*
X7884844Y-17231274D01*
X7884844Y-17231274D02*
X7865796Y-17240798D01*
X7865796Y-17240798D02*
X7827701Y-17240798D01*
X7827701Y-17240798D02*
X7808653Y-17250322D01*
X7808653Y-17250322D02*
X7799129Y-17259846D01*
X7799129Y-17259846D02*
X7789606Y-17278893D01*
X7789606Y-17278893D02*
X7789606Y-17316989D01*
X7789606Y-17316989D02*
X7799129Y-17336036D01*
X7799129Y-17336036D02*
X7808653Y-17345560D01*
X7808653Y-17345560D02*
X7827701Y-17355084D01*
X7827701Y-17355084D02*
X7865796Y-17355084D01*
X7865796Y-17355084D02*
X7884844Y-17345560D01*
X7884844Y-17345560D02*
X7894367Y-17336036D01*
X7894367Y-17336036D02*
X7903891Y-17316989D01*
X7903891Y-17316989D02*
X7903891Y-17278893D01*
X7903891Y-17278893D02*
X7894367Y-17259846D01*
X7894367Y-17259846D02*
X7884844Y-17250322D01*
X7884844Y-17250322D02*
X7865796Y-17240798D01*
X8075320Y-17155084D02*
X8037225Y-17155084D01*
X8037225Y-17155084D02*
X8018177Y-17164608D01*
X8018177Y-17164608D02*
X8008653Y-17174131D01*
X8008653Y-17174131D02*
X7989606Y-17202703D01*
X7989606Y-17202703D02*
X7980082Y-17240798D01*
X7980082Y-17240798D02*
X7980082Y-17316989D01*
X7980082Y-17316989D02*
X7989606Y-17336036D01*
X7989606Y-17336036D02*
X7999129Y-17345560D01*
X7999129Y-17345560D02*
X8018177Y-17355084D01*
X8018177Y-17355084D02*
X8056272Y-17355084D01*
X8056272Y-17355084D02*
X8075320Y-17345560D01*
X8075320Y-17345560D02*
X8084844Y-17336036D01*
X8084844Y-17336036D02*
X8094367Y-17316989D01*
X8094367Y-17316989D02*
X8094367Y-17269370D01*
X8094367Y-17269370D02*
X8084844Y-17250322D01*
X8084844Y-17250322D02*
X8075320Y-17240798D01*
X8075320Y-17240798D02*
X8056272Y-17231274D01*
X8056272Y-17231274D02*
X8018177Y-17231274D01*
X8018177Y-17231274D02*
X7999129Y-17240798D01*
X7999129Y-17240798D02*
X7989606Y-17250322D01*
X7989606Y-17250322D02*
X7980082Y-17269370D01*
X8265796Y-17155084D02*
X8227701Y-17155084D01*
X8227701Y-17155084D02*
X8208653Y-17164608D01*
X8208653Y-17164608D02*
X8199129Y-17174131D01*
X8199129Y-17174131D02*
X8180082Y-17202703D01*
X8180082Y-17202703D02*
X8170558Y-17240798D01*
X8170558Y-17240798D02*
X8170558Y-17316989D01*
X8170558Y-17316989D02*
X8180082Y-17336036D01*
X8180082Y-17336036D02*
X8189606Y-17345560D01*
X8189606Y-17345560D02*
X8208653Y-17355084D01*
X8208653Y-17355084D02*
X8246748Y-17355084D01*
X8246748Y-17355084D02*
X8265796Y-17345560D01*
X8265796Y-17345560D02*
X8275320Y-17336036D01*
X8275320Y-17336036D02*
X8284844Y-17316989D01*
X8284844Y-17316989D02*
X8284844Y-17269370D01*
X8284844Y-17269370D02*
X8275320Y-17250322D01*
X8275320Y-17250322D02*
X8265796Y-17240798D01*
X8265796Y-17240798D02*
X8246748Y-17231274D01*
X8246748Y-17231274D02*
X8208653Y-17231274D01*
X8208653Y-17231274D02*
X8189606Y-17240798D01*
X8189606Y-17240798D02*
X8180082Y-17250322D01*
X8180082Y-17250322D02*
X8170558Y-17269370D01*
X8361034Y-17155084D02*
X8361034Y-17193179D01*
X8437225Y-17155084D02*
X8437225Y-17193179D01*
X8732463Y-17431274D02*
X8722939Y-17421750D01*
X8722939Y-17421750D02*
X8703891Y-17393179D01*
X8703891Y-17393179D02*
X8694368Y-17374131D01*
X8694368Y-17374131D02*
X8684844Y-17345560D01*
X8684844Y-17345560D02*
X8675320Y-17297941D01*
X8675320Y-17297941D02*
X8675320Y-17259846D01*
X8675320Y-17259846D02*
X8684844Y-17212227D01*
X8684844Y-17212227D02*
X8694368Y-17183655D01*
X8694368Y-17183655D02*
X8703891Y-17164608D01*
X8703891Y-17164608D02*
X8722939Y-17136036D01*
X8722939Y-17136036D02*
X8732463Y-17126512D01*
X8789606Y-17155084D02*
X8913415Y-17155084D01*
X8913415Y-17155084D02*
X8846749Y-17231274D01*
X8846749Y-17231274D02*
X8875320Y-17231274D01*
X8875320Y-17231274D02*
X8894368Y-17240798D01*
X8894368Y-17240798D02*
X8903891Y-17250322D01*
X8903891Y-17250322D02*
X8913415Y-17269370D01*
X8913415Y-17269370D02*
X8913415Y-17316989D01*
X8913415Y-17316989D02*
X8903891Y-17336036D01*
X8903891Y-17336036D02*
X8894368Y-17345560D01*
X8894368Y-17345560D02*
X8875320Y-17355084D01*
X8875320Y-17355084D02*
X8818177Y-17355084D01*
X8818177Y-17355084D02*
X8799130Y-17345560D01*
X8799130Y-17345560D02*
X8789606Y-17336036D01*
X9151511Y-17355084D02*
X9151511Y-17155084D01*
X9237225Y-17355084D02*
X9237225Y-17250322D01*
X9237225Y-17250322D02*
X9227701Y-17231274D01*
X9227701Y-17231274D02*
X9208653Y-17221750D01*
X9208653Y-17221750D02*
X9180082Y-17221750D01*
X9180082Y-17221750D02*
X9161034Y-17231274D01*
X9161034Y-17231274D02*
X9151511Y-17240798D01*
X9361034Y-17355084D02*
X9341987Y-17345560D01*
X9341987Y-17345560D02*
X9332463Y-17336036D01*
X9332463Y-17336036D02*
X9322939Y-17316989D01*
X9322939Y-17316989D02*
X9322939Y-17259846D01*
X9322939Y-17259846D02*
X9332463Y-17240798D01*
X9332463Y-17240798D02*
X9341987Y-17231274D01*
X9341987Y-17231274D02*
X9361034Y-17221750D01*
X9361034Y-17221750D02*
X9389606Y-17221750D01*
X9389606Y-17221750D02*
X9408653Y-17231274D01*
X9408653Y-17231274D02*
X9418177Y-17240798D01*
X9418177Y-17240798D02*
X9427701Y-17259846D01*
X9427701Y-17259846D02*
X9427701Y-17316989D01*
X9427701Y-17316989D02*
X9418177Y-17336036D01*
X9418177Y-17336036D02*
X9408653Y-17345560D01*
X9408653Y-17345560D02*
X9389606Y-17355084D01*
X9389606Y-17355084D02*
X9361034Y-17355084D01*
X9541987Y-17355084D02*
X9522939Y-17345560D01*
X9522939Y-17345560D02*
X9513415Y-17326512D01*
X9513415Y-17326512D02*
X9513415Y-17155084D01*
X9694368Y-17345560D02*
X9675320Y-17355084D01*
X9675320Y-17355084D02*
X9637225Y-17355084D01*
X9637225Y-17355084D02*
X9618177Y-17345560D01*
X9618177Y-17345560D02*
X9608653Y-17326512D01*
X9608653Y-17326512D02*
X9608653Y-17250322D01*
X9608653Y-17250322D02*
X9618177Y-17231274D01*
X9618177Y-17231274D02*
X9637225Y-17221750D01*
X9637225Y-17221750D02*
X9675320Y-17221750D01*
X9675320Y-17221750D02*
X9694368Y-17231274D01*
X9694368Y-17231274D02*
X9703892Y-17250322D01*
X9703892Y-17250322D02*
X9703892Y-17269370D01*
X9703892Y-17269370D02*
X9608653Y-17288417D01*
X9780082Y-17345560D02*
X9799130Y-17355084D01*
X9799130Y-17355084D02*
X9837225Y-17355084D01*
X9837225Y-17355084D02*
X9856273Y-17345560D01*
X9856273Y-17345560D02*
X9865796Y-17326512D01*
X9865796Y-17326512D02*
X9865796Y-17316989D01*
X9865796Y-17316989D02*
X9856273Y-17297941D01*
X9856273Y-17297941D02*
X9837225Y-17288417D01*
X9837225Y-17288417D02*
X9808653Y-17288417D01*
X9808653Y-17288417D02*
X9789606Y-17278893D01*
X9789606Y-17278893D02*
X9780082Y-17259846D01*
X9780082Y-17259846D02*
X9780082Y-17250322D01*
X9780082Y-17250322D02*
X9789606Y-17231274D01*
X9789606Y-17231274D02*
X9808653Y-17221750D01*
X9808653Y-17221750D02*
X9837225Y-17221750D01*
X9837225Y-17221750D02*
X9856273Y-17231274D01*
X9932463Y-17431274D02*
X9941987Y-17421750D01*
X9941987Y-17421750D02*
X9961034Y-17393179D01*
X9961034Y-17393179D02*
X9970558Y-17374131D01*
X9970558Y-17374131D02*
X9980082Y-17345560D01*
X9980082Y-17345560D02*
X9989606Y-17297941D01*
X9989606Y-17297941D02*
X9989606Y-17259846D01*
X9989606Y-17259846D02*
X9980082Y-17212227D01*
X9980082Y-17212227D02*
X9970558Y-17183655D01*
X9970558Y-17183655D02*
X9961034Y-17164608D01*
X9961034Y-17164608D02*
X9941987Y-17136036D01*
X9941987Y-17136036D02*
X9932463Y-17126512D01*
M02*
