%TF.GenerationSoftware,KiCad,Pcbnew,8.0.6-8.0.6-0~ubuntu22.04.1*%
%TF.CreationDate,2024-11-29T09:40:30+00:00*%
%TF.ProjectId,zx-spectrum-pico-dma,7a782d73-7065-4637-9472-756d2d706963,rev?*%
%TF.SameCoordinates,Original*%
%TF.FileFunction,Copper,L1,Top*%
%TF.FilePolarity,Positive*%
%FSLAX46Y46*%
G04 Gerber Fmt 4.6, Leading zero omitted, Abs format (unit mm)*
G04 Created by KiCad (PCBNEW 8.0.6-8.0.6-0~ubuntu22.04.1) date 2024-11-29 09:40:30*
%MOMM*%
%LPD*%
G01*
G04 APERTURE LIST*
G04 Aperture macros list*
%AMRoundRect*
0 Rectangle with rounded corners*
0 $1 Rounding radius*
0 $2 $3 $4 $5 $6 $7 $8 $9 X,Y pos of 4 corners*
0 Add a 4 corners polygon primitive as box body*
4,1,4,$2,$3,$4,$5,$6,$7,$8,$9,$2,$3,0*
0 Add four circle primitives for the rounded corners*
1,1,$1+$1,$2,$3*
1,1,$1+$1,$4,$5*
1,1,$1+$1,$6,$7*
1,1,$1+$1,$8,$9*
0 Add four rect primitives between the rounded corners*
20,1,$1+$1,$2,$3,$4,$5,0*
20,1,$1+$1,$4,$5,$6,$7,0*
20,1,$1+$1,$6,$7,$8,$9,0*
20,1,$1+$1,$8,$9,$2,$3,0*%
G04 Aperture macros list end*
%TA.AperFunction,ComponentPad*%
%ADD10R,1.700000X1.700000*%
%TD*%
%TA.AperFunction,ComponentPad*%
%ADD11O,1.700000X1.700000*%
%TD*%
%TA.AperFunction,ComponentPad*%
%ADD12C,2.000000*%
%TD*%
%TA.AperFunction,SMDPad,CuDef*%
%ADD13RoundRect,0.250000X-0.400000X-0.625000X0.400000X-0.625000X0.400000X0.625000X-0.400000X0.625000X0*%
%TD*%
%TA.AperFunction,SMDPad,CuDef*%
%ADD14RoundRect,0.162500X-0.837500X-0.162500X0.837500X-0.162500X0.837500X0.162500X-0.837500X0.162500X0*%
%TD*%
%TA.AperFunction,ComponentPad*%
%ADD15C,4.400000*%
%TD*%
%TA.AperFunction,SMDPad,CuDef*%
%ADD16R,1.500000X2.800000*%
%TD*%
%TA.AperFunction,ComponentPad*%
%ADD17C,1.350000*%
%TD*%
%TA.AperFunction,ComponentPad*%
%ADD18O,1.350000X1.350000*%
%TD*%
%TA.AperFunction,SMDPad,CuDef*%
%ADD19R,2.800000X1.500000*%
%TD*%
%TA.AperFunction,ComponentPad*%
%ADD20O,1.727200X2.800000*%
%TD*%
%TA.AperFunction,ViaPad*%
%ADD21C,0.600000*%
%TD*%
%TA.AperFunction,Conductor*%
%ADD22C,0.200000*%
%TD*%
G04 APERTURE END LIST*
D10*
%TO.P,J108,1,Pin_1*%
%TO.N,/GPIO37*%
X67100000Y-100525000D03*
D11*
%TO.P,J108,2,Pin_2*%
%TO.N,/GPIO38*%
X67100000Y-97985000D03*
%TO.P,J108,3,Pin_3*%
%TO.N,/GPIO39*%
X67100000Y-95445000D03*
%TO.P,J108,4,Pin_4*%
%TO.N,/GPIO40*%
X67100000Y-92905000D03*
%TO.P,J108,5,Pin_5*%
%TO.N,/GPIO41*%
X67100000Y-90365000D03*
%TO.P,J108,6,Pin_6*%
%TO.N,/GPIO42*%
X67100000Y-87825000D03*
%TD*%
D10*
%TO.P,J105,1,Pin_1*%
%TO.N,ZXCLK*%
X144550000Y-83020000D03*
D11*
%TO.P,J105,2,Pin_2*%
%TO.N,ZXINT*%
X144550000Y-85560000D03*
%TO.P,J105,3,Pin_3*%
%TO.N,ZXIORQ*%
X144550000Y-88100000D03*
%TO.P,J105,4,Pin_4*%
%TO.N,ZXMREQ*%
X144550000Y-90640000D03*
%TO.P,J105,5,Pin_5*%
%TO.N,ZXWR*%
X144550000Y-93180000D03*
%TO.P,J105,6,Pin_6*%
%TO.N,ZXRD*%
X144550000Y-95720000D03*
%TO.P,J105,7,Pin_7*%
%TO.N,ZXBUSACK*%
X144550000Y-98260000D03*
%TO.P,J105,8,Pin_8*%
%TO.N,ZXBUSRQ*%
X144550000Y-100800000D03*
%TD*%
D12*
%TO.P,SW104,2,B*%
%TO.N,/BTN_USR2*%
X131800000Y-61299998D03*
X125300000Y-61299998D03*
%TO.P,SW104,1,A*%
%TO.N,GND*%
X131800000Y-56799998D03*
X125300000Y-56799998D03*
%TD*%
%TO.P,SW103,2,B*%
%TO.N,/BTN_USR1*%
X118383332Y-61183332D03*
X111883332Y-61183332D03*
%TO.P,SW103,1,A*%
%TO.N,GND*%
X118383332Y-56683332D03*
X111883332Y-56683332D03*
%TD*%
%TO.P,SW102,2,B*%
%TO.N,/BOOTSEL*%
X104966666Y-61066666D03*
X98466666Y-61066666D03*
%TO.P,SW102,1,A*%
%TO.N,GND*%
X104966666Y-56566666D03*
X98466666Y-56566666D03*
%TD*%
%TO.P,SW101,2,B*%
%TO.N,/~{RESET}*%
X91550000Y-60950000D03*
X85050000Y-60950000D03*
%TO.P,SW101,1,A*%
%TO.N,GND*%
X91550000Y-56450000D03*
X85050000Y-56450000D03*
%TD*%
D13*
%TO.P,R101,2*%
%TO.N,Net-(Q101-B)*%
X138150000Y-118000000D03*
%TO.P,R101,1*%
%TO.N,/RESET_Z80*%
X135050000Y-118000000D03*
%TD*%
D14*
%TO.P,Q101,3,C*%
%TO.N,ZXRESET*%
X145120000Y-117950000D03*
%TO.P,Q101,2,E*%
%TO.N,GND*%
X141700000Y-118900000D03*
%TO.P,Q101,1,B*%
%TO.N,Net-(Q101-B)*%
X141700000Y-117000000D03*
%TD*%
D11*
%TO.P,J107,4,Pin_4*%
%TO.N,GND*%
X56520000Y-56950000D03*
%TO.P,J107,3,Pin_3*%
%TO.N,+3V3*%
X59060000Y-56950000D03*
%TO.P,J107,2,Pin_2*%
%TO.N,/I2C1_SCL*%
X61600000Y-56950000D03*
D10*
%TO.P,J107,1,Pin_1*%
%TO.N,/I2C1_SDA*%
X64140000Y-56950000D03*
%TD*%
D11*
%TO.P,J106,2,Pin_2*%
%TO.N,ZXRESET*%
X144500000Y-109200000D03*
D10*
%TO.P,J106,1,Pin_1*%
%TO.N,ZXROMCS*%
X144500000Y-106660000D03*
%TD*%
%TO.P,J104,1,Pin_1*%
%TO.N,ZXA15*%
X120700000Y-72850000D03*
D11*
%TO.P,J104,2,Pin_2*%
%TO.N,ZXA14*%
X120700000Y-75390000D03*
%TO.P,J104,3,Pin_3*%
%TO.N,ZXA13*%
X120700000Y-77930000D03*
%TO.P,J104,4,Pin_4*%
%TO.N,ZXA12*%
X120700000Y-80470000D03*
%TO.P,J104,5,Pin_5*%
%TO.N,ZXA11*%
X120700000Y-83010000D03*
%TO.P,J104,6,Pin_6*%
%TO.N,ZXA10*%
X120700000Y-85550000D03*
%TO.P,J104,7,Pin_7*%
%TO.N,ZXA9*%
X120700000Y-88090000D03*
%TO.P,J104,8,Pin_8*%
%TO.N,ZXA8*%
X120700000Y-90630000D03*
%TO.P,J104,9,Pin_9*%
%TO.N,ZXA7*%
X120700000Y-93170000D03*
%TO.P,J104,10,Pin_10*%
%TO.N,ZXA6*%
X120700000Y-95710000D03*
%TO.P,J104,11,Pin_11*%
%TO.N,ZXA5*%
X120700000Y-98250000D03*
%TO.P,J104,12,Pin_12*%
%TO.N,ZXA4*%
X120700000Y-100790000D03*
%TO.P,J104,13,Pin_13*%
%TO.N,ZXA3*%
X120700000Y-103330000D03*
%TO.P,J104,14,Pin_14*%
%TO.N,ZXA2*%
X120700000Y-105870000D03*
%TO.P,J104,15,Pin_15*%
%TO.N,ZXA1*%
X120700000Y-108410000D03*
%TO.P,J104,16,Pin_16*%
%TO.N,ZXA0*%
X120700000Y-110950000D03*
%TD*%
D10*
%TO.P,J103,1,Pin_1*%
%TO.N,ZXD7*%
X132700000Y-83030000D03*
D11*
%TO.P,J103,2,Pin_2*%
%TO.N,ZXD6*%
X132700000Y-85570000D03*
%TO.P,J103,3,Pin_3*%
%TO.N,ZXD5*%
X132700000Y-88110000D03*
%TO.P,J103,4,Pin_4*%
%TO.N,ZXD4*%
X132700000Y-90650000D03*
%TO.P,J103,5,Pin_5*%
%TO.N,ZXD3*%
X132700000Y-93190000D03*
%TO.P,J103,6,Pin_6*%
%TO.N,ZXD2*%
X132700000Y-95730000D03*
%TO.P,J103,7,Pin_7*%
%TO.N,ZXD1*%
X132700000Y-98270000D03*
%TO.P,J103,8,Pin_8*%
%TO.N,ZXD0*%
X132700000Y-100810000D03*
%TD*%
%TO.P,J102,2,Pin_2*%
%TO.N,/BLIPPER1*%
X132750000Y-109300000D03*
D10*
%TO.P,J102,1,Pin_1*%
%TO.N,/BLIPPER2*%
X132750000Y-106760000D03*
%TD*%
D11*
%TO.P,J101,3,Pin_3*%
%TO.N,/SWDIO*%
X67100000Y-115800000D03*
%TO.P,J101,2,Pin_2*%
%TO.N,GND*%
X67100000Y-113260000D03*
D10*
%TO.P,J101,1,Pin_1*%
%TO.N,/SWCLK*%
X67100000Y-110720000D03*
%TD*%
D15*
%TO.P,H103,1,1*%
%TO.N,GND*%
X76025000Y-136150000D03*
%TD*%
%TO.P,H102,1,1*%
%TO.N,+3V3*%
X67500000Y-136250000D03*
%TD*%
%TO.P,H101,1,1*%
%TO.N,+5V*%
X58975000Y-136350000D03*
%TD*%
D16*
%TO.P,U101,1,GPIO0*%
%TO.N,ZXD0*%
X86050000Y-113750000D03*
D17*
X86050000Y-113100000D03*
D16*
%TO.P,U101,2,GPIO1*%
%TO.N,ZXD1*%
X88050000Y-113750000D03*
D18*
X88050000Y-113100000D03*
D16*
%TO.P,U101,3,GPIO2*%
%TO.N,ZXD2*%
X90050000Y-113750000D03*
D18*
X90050000Y-113100000D03*
D16*
%TO.P,U101,4,GPIO3*%
%TO.N,ZXD3*%
X92050000Y-113750000D03*
D18*
X92050000Y-113100000D03*
D16*
%TO.P,U101,5,GPIO4*%
%TO.N,ZXD4*%
X94050000Y-113750000D03*
D18*
X94050000Y-113100000D03*
D16*
%TO.P,U101,6,GPIO5*%
%TO.N,ZXD5*%
X96050000Y-113750000D03*
D18*
X96050000Y-113100000D03*
D16*
%TO.P,U101,7,GPIO6*%
%TO.N,ZXD6*%
X98050000Y-113750000D03*
D18*
X98050000Y-113100000D03*
D16*
%TO.P,U101,8,GPIO7*%
%TO.N,ZXD7*%
X100050000Y-113750000D03*
D18*
X100050000Y-113100000D03*
D16*
%TO.P,U101,9,GPIO8*%
%TO.N,ZXA0*%
X102050000Y-113750000D03*
D18*
X102050000Y-113100000D03*
D16*
%TO.P,U101,10,GPIO9*%
%TO.N,ZXA1*%
X104050000Y-113750000D03*
D18*
X104050000Y-113100000D03*
%TO.P,U101,11,GPIO10*%
%TO.N,ZXA2*%
X106050000Y-111100000D03*
D19*
X106700000Y-111100000D03*
D18*
%TO.P,U101,12,GPIO11*%
%TO.N,ZXA3*%
X106050000Y-109100000D03*
D19*
X106700000Y-109100000D03*
D18*
%TO.P,U101,13,GPIO12*%
%TO.N,ZXA4*%
X106050000Y-107100000D03*
D19*
X106700000Y-107100000D03*
D18*
%TO.P,U101,14,GPIO13*%
%TO.N,ZXA5*%
X106050000Y-105100000D03*
D19*
X106700000Y-105100000D03*
D18*
%TO.P,U101,15,GPIO14*%
%TO.N,ZXA6*%
X106050000Y-103100000D03*
D19*
X106700000Y-103100000D03*
D18*
%TO.P,U101,16,GPIO15*%
%TO.N,ZXA7*%
X106050000Y-101100000D03*
D19*
X106700000Y-101100000D03*
D18*
%TO.P,U101,17,GPIO16*%
%TO.N,ZXA8*%
X106050000Y-99100000D03*
D19*
X106700000Y-99100000D03*
D18*
%TO.P,U101,18,GPIO17*%
%TO.N,ZXA9*%
X106050000Y-97100000D03*
D19*
X106700000Y-97100000D03*
D18*
%TO.P,U101,19,GPIO18*%
%TO.N,ZXA10*%
X106050000Y-95100000D03*
D19*
X106700000Y-95100000D03*
D18*
%TO.P,U101,20,GPIO19*%
%TO.N,ZXA11*%
X106050000Y-93100000D03*
D19*
X106700000Y-93100000D03*
D18*
%TO.P,U101,21,GPIO20*%
%TO.N,ZXA12*%
X106050000Y-91100000D03*
D19*
X106700000Y-91100000D03*
D18*
%TO.P,U101,22,GPIO21*%
%TO.N,ZXA13*%
X106050000Y-89100000D03*
D19*
X106700000Y-89100000D03*
D18*
%TO.P,U101,23,GPIO22*%
%TO.N,ZXA14*%
X106050000Y-87100000D03*
D19*
X106700000Y-87100000D03*
D18*
%TO.P,U101,24,GPIO23*%
%TO.N,ZXA15*%
X106050000Y-85100000D03*
D19*
X106700000Y-85100000D03*
D18*
%TO.P,U101,25,GPIO24*%
%TO.N,ZXCLK*%
X106050000Y-83100000D03*
D19*
X106700000Y-83100000D03*
D18*
%TO.P,U101,26,GPIO25*%
%TO.N,ZXINT*%
X106050000Y-81100000D03*
D19*
X106700000Y-81100000D03*
D18*
%TO.P,U101,27,GPIO26*%
%TO.N,ZXRD*%
X106050000Y-79100000D03*
D19*
X106700000Y-79100000D03*
D18*
%TO.P,U101,28,GPIO27*%
%TO.N,ZXWR*%
X106050000Y-77100000D03*
D19*
X106700000Y-77100000D03*
D18*
%TO.P,U101,29,GPIO28*%
%TO.N,ZXROMCS*%
X106050000Y-75100000D03*
D19*
X106700000Y-75100000D03*
D18*
%TO.P,U101,30,GPIO29*%
%TO.N,ZXMREQ*%
X106050000Y-73100000D03*
D19*
X106700000Y-73100000D03*
%TO.P,U101,31,GND*%
%TO.N,GND*%
X83400000Y-93100000D03*
D18*
X84050000Y-93100000D03*
D19*
%TO.P,U101,32,VBAT*%
%TO.N,unconnected-(U101A-VBAT-Pad32)*%
X83400000Y-95100000D03*
D18*
%TO.N,unconnected-(U101A-VBAT-Pad32)_1*%
X84050000Y-95100000D03*
D19*
%TO.P,U101,33,5V*%
%TO.N,+5V*%
X83400000Y-97100000D03*
D18*
X84050000Y-97100000D03*
D19*
%TO.P,U101,34,3.3V*%
%TO.N,+3V3*%
X83400000Y-99100000D03*
D18*
X84050000Y-99100000D03*
D19*
%TO.P,U101,35,USB_D-*%
%TO.N,unconnected-(U101A-USB_D--Pad35)_1*%
X83400000Y-101100000D03*
D18*
%TO.N,unconnected-(U101A-USB_D--Pad35)*%
X84050000Y-101100000D03*
D19*
%TO.P,U101,36,USB_D+*%
%TO.N,unconnected-(U101A-USB_D+-Pad36)_1*%
X83400000Y-103100000D03*
D18*
%TO.N,unconnected-(U101A-USB_D+-Pad36)*%
X84050000Y-103100000D03*
D19*
%TO.P,U101,37,SWDIO*%
%TO.N,/SWDIO*%
X83400000Y-105100000D03*
D18*
X84050000Y-105100000D03*
D19*
%TO.P,U101,38,SWCLK*%
%TO.N,/SWCLK*%
X83400000Y-107100000D03*
D18*
X84050000Y-107100000D03*
D19*
%TO.P,U101,39,~{RESET}*%
%TO.N,/~{RESET}*%
X83400000Y-109100000D03*
D18*
X84050000Y-109100000D03*
D19*
%TO.P,U101,40,BOOTSEL*%
%TO.N,/BOOTSEL*%
X83400000Y-111100000D03*
D18*
X84050000Y-111100000D03*
%TO.P,U101,41,GPIO30*%
%TO.N,ZXIORQ*%
X104050000Y-71100000D03*
D16*
X104050000Y-70450000D03*
D18*
%TO.P,U101,42,GPIO31*%
%TO.N,ZXBUSRQ*%
X102050000Y-71100000D03*
D16*
X102050000Y-70450000D03*
D18*
%TO.P,U101,43,GPIO32*%
%TO.N,ZXBUSACK*%
X100050000Y-71100000D03*
D16*
X100050000Y-70450000D03*
D18*
%TO.P,U101,44,GPIO33*%
%TO.N,ZXWAIT*%
X98050000Y-71100000D03*
D16*
X98050000Y-70450000D03*
D18*
%TO.P,U101,45,GPIO34*%
%TO.N,/I2C1_SDA*%
X96050000Y-71100000D03*
D16*
X96050000Y-70450000D03*
D18*
%TO.P,U101,46,GPIO35*%
%TO.N,/I2C1_SCL*%
X94050000Y-71100000D03*
D16*
X94050000Y-70450000D03*
D18*
%TO.P,U101,47,GPIO36*%
%TO.N,ZXRESET*%
X92050000Y-71100000D03*
D16*
X92050000Y-70450000D03*
D18*
%TO.P,U101,48,GPIO37*%
%TO.N,/GPIO37*%
X90050000Y-71100000D03*
D16*
X90050000Y-70450000D03*
D18*
%TO.P,U101,49,GPIO38*%
%TO.N,/GPIO38*%
X88050000Y-71100000D03*
D16*
X88050000Y-70450000D03*
D18*
%TO.P,U101,50,GPIO39*%
%TO.N,/GPIO39*%
X86050000Y-71100000D03*
D16*
X86050000Y-70450000D03*
D19*
%TO.P,U101,51,GPIO40*%
%TO.N,/GPIO40*%
X83400000Y-73100000D03*
D18*
X84050000Y-73100000D03*
D19*
%TO.P,U101,52,GPIO41*%
%TO.N,/GPIO41*%
X83400000Y-75100000D03*
D18*
X84050000Y-75100000D03*
D19*
%TO.P,U101,53,GPIO42*%
%TO.N,/GPIO42*%
X83400000Y-77100000D03*
D18*
X84050000Y-77100000D03*
D19*
%TO.P,U101,54,GPIO43*%
%TO.N,/RESET_Z80*%
X83400000Y-79100000D03*
D18*
X84050000Y-79100000D03*
D19*
%TO.P,U101,55,GPIO44*%
%TO.N,/BTN_USR1*%
X83400000Y-81100000D03*
D18*
X84050000Y-81100000D03*
D19*
%TO.P,U101,56,GPIO45*%
%TO.N,/BTN_USR2*%
X83400000Y-83100000D03*
D18*
X84050000Y-83100000D03*
D19*
%TO.P,U101,57,GPIO46*%
%TO.N,/BLIPPER1*%
X83400000Y-85100000D03*
D18*
X84050000Y-85100000D03*
D19*
%TO.P,U101,58,GPIO47*%
%TO.N,/BLIPPER2*%
X83400000Y-87100000D03*
D18*
X84050000Y-87100000D03*
D19*
%TO.P,U101,59,BAT_STAT*%
%TO.N,unconnected-(U101A-BAT_STAT-Pad59)_1*%
X83400000Y-89100000D03*
D18*
%TO.N,unconnected-(U101A-BAT_STAT-Pad59)*%
X84050000Y-89100000D03*
D19*
%TO.P,U101,60,LDO_EN*%
%TO.N,unconnected-(U101A-LDO_EN-Pad60)*%
X83400000Y-91100000D03*
D18*
%TO.N,unconnected-(U101A-LDO_EN-Pad60)_1*%
X84050000Y-91100000D03*
%TD*%
D20*
%TO.P,Z101,A1,A15*%
%TO.N,ZXA15*%
X77242000Y-144948000D03*
%TO.P,Z101,A2,A13*%
%TO.N,ZXA13*%
X79782000Y-144948000D03*
%TO.P,Z101,A3,D7*%
%TO.N,ZXD7*%
X82322000Y-144948000D03*
%TO.P,Z101,A4,NC*%
%TO.N,unconnected-(Z101-NC-PadA4)*%
X84862000Y-144948000D03*
%TO.P,Z101,A6,D0*%
%TO.N,ZXD0*%
X89942000Y-144948000D03*
%TO.P,Z101,A7,D1*%
%TO.N,ZXD1*%
X92482000Y-144948000D03*
%TO.P,Z101,A8,D2*%
%TO.N,ZXD2*%
X95022000Y-144948000D03*
%TO.P,Z101,A9,D6*%
%TO.N,ZXD6*%
X97562000Y-144948000D03*
%TO.P,Z101,A10,D5*%
%TO.N,ZXD5*%
X100102000Y-144948000D03*
%TO.P,Z101,A11,D3*%
%TO.N,ZXD3*%
X102642000Y-144948000D03*
%TO.P,Z101,A12,D4*%
%TO.N,ZXD4*%
X105182000Y-144948000D03*
%TO.P,Z101,A13,~{INT}*%
%TO.N,ZXINT*%
X107722000Y-144948000D03*
%TO.P,Z101,A14,~{NMI}*%
%TO.N,unconnected-(Z101-~{NMI}-PadA14)*%
X110262000Y-144948000D03*
%TO.P,Z101,A15,~{HALT}*%
%TO.N,unconnected-(Z101-~{HALT}-PadA15)*%
X112802000Y-144948000D03*
%TO.P,Z101,A16,~{MREQ}*%
%TO.N,ZXMREQ*%
X115342000Y-144948000D03*
%TO.P,Z101,A17,~{IORQ}*%
%TO.N,ZXIORQ*%
X117882000Y-144948000D03*
%TO.P,Z101,A18,~{RD}*%
%TO.N,ZXRD*%
X120422000Y-144948000D03*
%TO.P,Z101,A19,~{WR}*%
%TO.N,ZXWR*%
X122962000Y-144948000D03*
%TO.P,Z101,A20,-5V*%
%TO.N,unconnected-(Z101--5V-PadA20)*%
X125502000Y-144948000D03*
%TO.P,Z101,A21,~{WAIT}*%
%TO.N,ZXWAIT*%
X128042000Y-144948000D03*
%TO.P,Z101,A22,+12V*%
%TO.N,unconnected-(Z101-+12V-PadA22)*%
X130582000Y-144948000D03*
%TO.P,Z101,A23,+12VAC*%
%TO.N,unconnected-(Z101-+12VAC-PadA23)*%
X133122000Y-144948000D03*
%TO.P,Z101,A24,~{M1}*%
%TO.N,unconnected-(Z101-~{M1}-PadA24)*%
X135662000Y-144948000D03*
%TO.P,Z101,A25,~{RFSH}*%
%TO.N,unconnected-(Z101-~{RFSH}-PadA25)*%
X138202000Y-144948000D03*
%TO.P,Z101,A26,A8*%
%TO.N,ZXA8*%
X140742000Y-144948000D03*
%TO.P,Z101,A27,A10*%
%TO.N,ZXA10*%
X143282000Y-144948000D03*
%TO.P,Z101,A28,NC*%
%TO.N,unconnected-(Z101-NC-PadA28)*%
X145822000Y-144948000D03*
%TO.P,Z101,B1,A14*%
%TO.N,ZXA14*%
X77242000Y-150028000D03*
%TO.P,Z101,B2,A12*%
%TO.N,ZXA12*%
X79782000Y-150028000D03*
%TO.P,Z101,B3,+5v*%
%TO.N,+5V*%
X82322000Y-150028000D03*
%TO.P,Z101,B4,+9V*%
%TO.N,unconnected-(Z101-+9V-PadB4)*%
X84862000Y-150028000D03*
%TO.P,Z101,B6,GND*%
%TO.N,GND*%
X89942000Y-150028000D03*
%TO.P,Z101,B7,GND*%
X92482000Y-150028000D03*
%TO.P,Z101,B8,CLK*%
%TO.N,ZXCLK*%
X95022000Y-150028000D03*
%TO.P,Z101,B9,A0*%
%TO.N,ZXA0*%
X97562000Y-150028000D03*
%TO.P,Z101,B10,A1*%
%TO.N,ZXA1*%
X100102000Y-150028000D03*
%TO.P,Z101,B11,A2*%
%TO.N,ZXA2*%
X102642000Y-150028000D03*
%TO.P,Z101,B12,A3*%
%TO.N,ZXA3*%
X105182000Y-150028000D03*
%TO.P,Z101,B13,~{IORQGE}*%
%TO.N,unconnected-(Z101-~{IORQGE}-PadB13)*%
X107722000Y-150028000D03*
%TO.P,Z101,B14,GND*%
%TO.N,GND*%
X110262000Y-150028000D03*
%TO.P,Z101,B15,VIDEO*%
%TO.N,unconnected-(Z101-VIDEO-PadB15)*%
X112802000Y-150028000D03*
%TO.P,Z101,B16,Y*%
%TO.N,unconnected-(Z101-Y-PadB16)*%
X115342000Y-150028000D03*
%TO.P,Z101,B17,V*%
%TO.N,unconnected-(Z101-V-PadB17)*%
X117882000Y-150028000D03*
%TO.P,Z101,B18,U*%
%TO.N,unconnected-(Z101-U-PadB18)*%
X120422000Y-150028000D03*
%TO.P,Z101,B19,~{BUSRQ}*%
%TO.N,ZXBUSRQ*%
X122962000Y-150028000D03*
%TO.P,Z101,B20,~{RESET}*%
%TO.N,ZXRESET*%
X125502000Y-150028000D03*
%TO.P,Z101,B21,A7*%
%TO.N,ZXA7*%
X128042000Y-150028000D03*
%TO.P,Z101,B22,A6*%
%TO.N,ZXA6*%
X130582000Y-150028000D03*
%TO.P,Z101,B23,A5*%
%TO.N,ZXA5*%
X133122000Y-150028000D03*
%TO.P,Z101,B24,A4*%
%TO.N,ZXA4*%
X135662000Y-150028000D03*
%TO.P,Z101,B25,~{ROMCS}*%
%TO.N,ZXROMCS*%
X138202000Y-150028000D03*
%TO.P,Z101,B26,~{BUSACK}*%
%TO.N,ZXBUSACK*%
X140742000Y-150028000D03*
%TO.P,Z101,B27,A9*%
%TO.N,ZXA9*%
X143282000Y-150028000D03*
%TO.P,Z101,B28,A11*%
%TO.N,ZXA11*%
X145822000Y-150028000D03*
%TD*%
D21*
%TO.N,+5V*%
X83698400Y-141400000D03*
%TO.N,ZXRESET*%
X124200000Y-142050000D03*
%TO.N,ZXA3*%
X106500000Y-139150000D03*
X109485600Y-139200000D03*
%TO.N,ZXA2*%
X103950000Y-142900000D03*
X108900000Y-142600000D03*
%TO.N,ZXA1*%
X101450000Y-142300000D03*
X105850000Y-142150000D03*
%TO.N,ZXA0*%
X98800000Y-140050000D03*
%TO.N,/GPIO40*%
X64650000Y-92950000D03*
X64650000Y-73100000D03*
%TO.N,/GPIO41*%
X63700000Y-90300000D03*
X63650000Y-75200000D03*
%TO.N,/GPIO42*%
X67450000Y-77100000D03*
%TO.N,/SWCLK*%
X76750000Y-107150000D03*
X76800000Y-110350000D03*
%TO.N,/SWDIO*%
X77550000Y-105000000D03*
X77600000Y-115850000D03*
%TO.N,+5V*%
X78400000Y-97000000D03*
X59000000Y-122150000D03*
X78400000Y-122100000D03*
X58975000Y-141400000D03*
%TO.N,+3V3*%
X67550000Y-122900000D03*
X73600000Y-122900000D03*
X59450000Y-66550000D03*
X73600000Y-99100000D03*
X73600000Y-66700000D03*
%TO.N,/~{RESET}*%
X74700000Y-109200000D03*
X74650000Y-61050000D03*
%TO.N,/BOOTSEL*%
X75500000Y-111100000D03*
X75550000Y-62850000D03*
%TO.N,/BTN_USR1*%
X76650000Y-63400000D03*
X111850000Y-63450000D03*
X76650000Y-81150000D03*
%TO.N,/BTN_USR2*%
X77850000Y-83150000D03*
X125300000Y-64150000D03*
X77800000Y-64050000D03*
%TO.N,/I2C1_SDA*%
X63950000Y-67550000D03*
X96000000Y-67650000D03*
%TO.N,/I2C1_SCL*%
X62150000Y-68350000D03*
X94000000Y-68350000D03*
%TO.N,/GPIO37*%
X70700000Y-69400000D03*
%TO.N,/GPIO38*%
X69700000Y-70250000D03*
%TO.N,/GPIO39*%
X68900000Y-71200000D03*
%TO.N,ZXRD*%
X120422000Y-140650000D03*
X133800000Y-140650000D03*
X134800000Y-103850000D03*
X141350000Y-103800000D03*
%TO.N,ZXBUSACK*%
X140150000Y-98260000D03*
%TO.N,ZXWR*%
X123000000Y-139200000D03*
X133350000Y-115750000D03*
X135200000Y-115800000D03*
X135400000Y-93100000D03*
X133300000Y-139050000D03*
%TO.N,ZXMREQ*%
X136050000Y-138200000D03*
X135800000Y-90450000D03*
X115100000Y-138100000D03*
%TO.N,ZXIORQ*%
X138000000Y-137300000D03*
X117850000Y-137250000D03*
%TO.N,ZXBUSRQ*%
X137600000Y-107600000D03*
X139550000Y-107550000D03*
%TO.N,ZXINT*%
X107700000Y-140650000D03*
X113900000Y-140750000D03*
X113550000Y-81100000D03*
%TO.N,ZXCLK*%
X116900000Y-127600000D03*
X96800000Y-127650000D03*
X114000000Y-83100000D03*
%TO.N,ZXA15*%
X116250000Y-126900000D03*
X73250000Y-126850000D03*
X73250000Y-144700000D03*
X114000000Y-85100000D03*
%TO.N,ZXA14*%
X78950000Y-126300000D03*
X115700000Y-126100000D03*
X114950000Y-87100000D03*
%TO.N,ZXA13*%
X80100000Y-125650000D03*
X115250000Y-125400000D03*
X114485852Y-89111590D03*
%TO.N,ZXA12*%
X81250000Y-125100000D03*
X114625499Y-124900000D03*
X114550000Y-91100000D03*
%TO.N,ZXWAIT*%
X98150000Y-67550000D03*
X128100000Y-128950000D03*
X110600000Y-67650000D03*
X113250000Y-128750000D03*
%TO.N,ZXBUSRQ*%
X139550000Y-133200000D03*
X121750000Y-133050000D03*
%TO.N,ZXRESET*%
X146985600Y-141950000D03*
%TO.N,ZXROMCS*%
X137000000Y-106700000D03*
%TO.N,ZXA11*%
X144650000Y-129600000D03*
X112700000Y-129600000D03*
X109150000Y-93100000D03*
%TO.N,ZXA10*%
X142750000Y-130250000D03*
X112300000Y-130549997D03*
X109150000Y-95100000D03*
%TO.N,ZXA9*%
X142050000Y-131350000D03*
X111900000Y-131350000D03*
X109200000Y-97100000D03*
%TO.N,ZXA8*%
X140900000Y-132450000D03*
X111500000Y-132450000D03*
X109200000Y-99100000D03*
%TO.N,ZXA7*%
X126950000Y-133800000D03*
X111100000Y-133325735D03*
X109250000Y-101100000D03*
%TO.N,ZXA6*%
X129400000Y-134450000D03*
X111200000Y-134450000D03*
X109200000Y-103100000D03*
%TO.N,ZXA5*%
X131900000Y-136250000D03*
X110600000Y-136250000D03*
X109100000Y-105100000D03*
%TO.N,ZXA4*%
X134500000Y-135300000D03*
X109950000Y-135300000D03*
X109000000Y-107100000D03*
%TO.N,ZXA3*%
X108800000Y-109100000D03*
%TO.N,ZXA2*%
X108700000Y-111100000D03*
%TO.N,ZXA0*%
X101450000Y-140000000D03*
%TO.N,ZXD7*%
X82300000Y-135150000D03*
X100000000Y-135250000D03*
%TO.N,ZXD5*%
X100100000Y-136250000D03*
X96050000Y-136200000D03*
%TO.N,ZXD4*%
X105100000Y-137200000D03*
X94100000Y-137200000D03*
%TO.N,ZXD3*%
X102700000Y-138000000D03*
X92100000Y-138000000D03*
%TO.N,ZXD2*%
X95050000Y-139200000D03*
X90150000Y-139150000D03*
%TO.N,ZXD1*%
X92450000Y-140350000D03*
X88150000Y-140350000D03*
%TO.N,ZXD0*%
X89700000Y-141250000D03*
X86050000Y-141250000D03*
%TO.N,GND*%
X141700000Y-120150000D03*
%TO.N,/RESET_Z80*%
X135000000Y-123950000D03*
X79200000Y-79150000D03*
X79200000Y-124300000D03*
%TO.N,Net-(Q101-B)*%
X138150000Y-115700000D03*
X141750000Y-115700000D03*
%TO.N,ZXRESET*%
X137350000Y-74000000D03*
X134800000Y-65200000D03*
X146650000Y-74050000D03*
X92000000Y-64750000D03*
%TO.N,ZXBUSACK*%
X100000000Y-65600000D03*
X134257186Y-65793033D03*
X136700000Y-98400000D03*
%TO.N,ZXBUSRQ*%
X133682834Y-66349920D03*
X136150000Y-74800000D03*
%TO.N,ZXIORQ*%
X133172742Y-66966208D03*
X135350000Y-75600000D03*
%TO.N,ZXMREQ*%
X132648295Y-67570327D03*
X134500000Y-76250000D03*
%TO.N,ZXROMCS*%
X132165026Y-68207865D03*
X133650000Y-76950000D03*
%TO.N,ZXWR*%
X131661763Y-68829741D03*
X132750000Y-77750000D03*
%TO.N,ZXRD*%
X131117154Y-69415748D03*
X131850000Y-78350000D03*
%TO.N,ZXINT*%
X130591154Y-70018516D03*
X130950000Y-79100000D03*
%TO.N,ZXCLK*%
X130100000Y-70650000D03*
X130150000Y-79900000D03*
%TO.N,ZXBUSRQ*%
X102050000Y-68400000D03*
X137450000Y-100850000D03*
X137350000Y-74900000D03*
X111750000Y-68400000D03*
X111750000Y-66000000D03*
%TO.N,ZXIORQ*%
X138200000Y-75650000D03*
X112700000Y-71150000D03*
X138200000Y-88000000D03*
X112650000Y-66600000D03*
%TO.N,ZXMREQ*%
X138950000Y-76300000D03*
X113300000Y-73100000D03*
X138850000Y-90400000D03*
X113300000Y-67300000D03*
%TO.N,ZXROMCS*%
X139550000Y-77050000D03*
X139550000Y-106650000D03*
X113950000Y-75000000D03*
X113900000Y-67950000D03*
%TO.N,ZXWR*%
X114800000Y-68550000D03*
X140450000Y-93050000D03*
X140450000Y-77800000D03*
X114750000Y-77050000D03*
%TO.N,ZXRD*%
X141300000Y-95700000D03*
X141300000Y-78450000D03*
X115850000Y-69250000D03*
X115850000Y-79100000D03*
%TO.N,ZXINT*%
X142300000Y-79300000D03*
X115700000Y-81100000D03*
X142350000Y-85450000D03*
X116950000Y-70000000D03*
%TO.N,ZXCLK*%
X144550000Y-79900000D03*
X118000000Y-70650000D03*
X116250000Y-83250000D03*
%TO.N,ZXA15*%
X116767231Y-84934239D03*
%TO.N,ZXA13*%
X117550000Y-87875735D03*
%TO.N,ZXA12*%
X117450000Y-90425735D03*
%TO.N,ZXA11*%
X117300000Y-92800000D03*
%TO.N,ZXA10*%
X117975735Y-93475735D03*
%TO.N,ZXA9*%
X117475735Y-97100000D03*
%TO.N,ZXA8*%
X118075735Y-98375735D03*
%TO.N,ZXA7*%
X117948732Y-101062937D03*
%TO.N,ZXA6*%
X118700000Y-101337892D03*
%TO.N,ZXA5*%
X118850000Y-103732892D03*
%TO.N,ZXA4*%
X118850000Y-106302892D03*
%TO.N,ZXA3*%
X118600000Y-109000000D03*
%TO.N,ZXA2*%
X119200000Y-111100000D03*
%TO.N,ZXA1*%
X122050000Y-115400000D03*
X105750000Y-115400000D03*
%TO.N,ZXA0*%
X120850000Y-116100000D03*
X102050000Y-116100000D03*
%TO.N,/BLIPPER1*%
X80200000Y-123450000D03*
X80200000Y-85050000D03*
X132500000Y-123300000D03*
%TO.N,/BLIPPER2*%
X80950000Y-87050000D03*
X80850000Y-122550000D03*
X131300000Y-122550000D03*
%TO.N,ZXD0*%
X130500000Y-100900000D03*
X86050000Y-121400000D03*
X130500000Y-121350000D03*
%TO.N,ZXD1*%
X129750000Y-120600000D03*
X88100000Y-120700000D03*
X129750000Y-98350000D03*
%TO.N,ZXD2*%
X129050000Y-95800000D03*
X129000000Y-120000000D03*
X90150000Y-119950000D03*
%TO.N,ZXD3*%
X92100000Y-119200000D03*
X128200000Y-119400000D03*
X128250000Y-93300000D03*
%TO.N,ZXD4*%
X127350000Y-90550000D03*
X94050000Y-118550000D03*
X127350000Y-118800000D03*
%TO.N,ZXD5*%
X126450000Y-88150000D03*
X96050000Y-117800000D03*
X126450000Y-118000000D03*
%TO.N,ZXD6*%
X125600000Y-85550000D03*
X98050000Y-117350000D03*
X125600000Y-117350000D03*
%TO.N,ZXD7*%
X124900000Y-83000000D03*
X124900000Y-116700000D03*
X100050000Y-116700000D03*
%TO.N,GND*%
X138250000Y-62900000D03*
X138250000Y-55050000D03*
X147900000Y-54850000D03*
X147650000Y-62850000D03*
%TO.N,ZXA14*%
X116950000Y-87150000D03*
%TD*%
D22*
%TO.N,+3V3*%
X67550000Y-122900000D02*
X67550000Y-123500000D01*
X67550000Y-123500000D02*
X67500000Y-123550000D01*
X67500000Y-123550000D02*
X67500000Y-136250000D01*
%TO.N,+5V*%
X83698400Y-141400000D02*
X83698400Y-148651600D01*
X83698400Y-148651600D02*
X82322000Y-150028000D01*
X58975000Y-141400000D02*
X58975000Y-136350000D01*
%TO.N,ZXRESET*%
X124200000Y-145450000D02*
X124200000Y-142050000D01*
X125502000Y-150028000D02*
X124200000Y-148726000D01*
X124200000Y-148726000D02*
X124200000Y-145450000D01*
X146985600Y-141950000D02*
X146985600Y-119815600D01*
X146985600Y-119815600D02*
X145120000Y-117950000D01*
%TO.N,ZXBUSRQ*%
X121750000Y-133050000D02*
X121750000Y-148816000D01*
X121750000Y-148816000D02*
X122962000Y-150028000D01*
%TO.N,ZXA3*%
X106500000Y-145100000D02*
X106500000Y-139150000D01*
X105182000Y-150028000D02*
X106500000Y-148710000D01*
X106500000Y-148710000D02*
X106500000Y-145100000D01*
X109350000Y-139200000D02*
X109285600Y-139135600D01*
X109285600Y-139135600D02*
X109285600Y-111362929D01*
X109285600Y-111362929D02*
X109300000Y-111348529D01*
X109300000Y-111348529D02*
X109300000Y-109600000D01*
X109300000Y-109600000D02*
X108800000Y-109100000D01*
%TO.N,ZXA2*%
X103950000Y-145300000D02*
X103950000Y-142900000D01*
X102642000Y-150028000D02*
X103950000Y-148720000D01*
X103950000Y-148720000D02*
X103950000Y-145300000D01*
X108900000Y-142600000D02*
X108885600Y-142585600D01*
X108885600Y-142585600D02*
X108885600Y-111285600D01*
X108885600Y-111285600D02*
X108700000Y-111100000D01*
%TO.N,ZXA1*%
X101478400Y-142328400D02*
X101450000Y-142300000D01*
X101478400Y-145721600D02*
X101478400Y-142328400D01*
X100102000Y-150028000D02*
X101478400Y-148651600D01*
X101478400Y-148651600D02*
X101478400Y-145721600D01*
%TO.N,ZXA0*%
X98800000Y-140050000D02*
X98800000Y-148790000D01*
X98800000Y-148790000D02*
X97562000Y-150028000D01*
X102050000Y-116100000D02*
X101350000Y-116800000D01*
X101350000Y-116800000D02*
X101350000Y-139900000D01*
X101350000Y-139900000D02*
X101450000Y-140000000D01*
%TO.N,ZXRD*%
X120422000Y-140650000D02*
X120422000Y-144948000D01*
X134100000Y-104550000D02*
X134800000Y-103850000D01*
X133800000Y-140650000D02*
X133900000Y-140550000D01*
X133900000Y-140550000D02*
X133900000Y-135051471D01*
X134100000Y-134851471D02*
X134100000Y-104550000D01*
X133900000Y-135051471D02*
X134100000Y-134851471D01*
%TO.N,/GPIO40*%
X64650000Y-73100000D02*
X64650000Y-92950000D01*
%TO.N,/GPIO41*%
X63650000Y-75200000D02*
X63650000Y-90250000D01*
X63650000Y-90250000D02*
X63700000Y-90300000D01*
%TO.N,/GPIO42*%
X67450000Y-77100000D02*
X67450000Y-77600000D01*
X67450000Y-77600000D02*
X67100000Y-77950000D01*
X67100000Y-77950000D02*
X67100000Y-87825000D01*
%TO.N,/SWCLK*%
X76800000Y-110350000D02*
X76800000Y-107200000D01*
X76800000Y-107200000D02*
X76750000Y-107150000D01*
%TO.N,/SWDIO*%
X77600000Y-105050000D02*
X77550000Y-105000000D01*
X77600000Y-115850000D02*
X77600000Y-105050000D01*
%TO.N,+5V*%
X58975000Y-122175000D02*
X59000000Y-122150000D01*
X78400000Y-122100000D02*
X78400000Y-97000000D01*
X58975000Y-136350000D02*
X58975000Y-122175000D01*
%TO.N,+3V3*%
X73600000Y-99100000D02*
X73600000Y-122900000D01*
X59060000Y-66160000D02*
X59060000Y-56950000D01*
X73600000Y-99100000D02*
X73600000Y-66700000D01*
X59450000Y-66550000D02*
X59060000Y-66160000D01*
%TO.N,/~{RESET}*%
X74650000Y-109150000D02*
X74700000Y-109200000D01*
X74650000Y-61050000D02*
X74650000Y-109150000D01*
%TO.N,/BOOTSEL*%
X75550000Y-111050000D02*
X75500000Y-111100000D01*
X75550000Y-62850000D02*
X75550000Y-111050000D01*
%TO.N,/BTN_USR1*%
X76650000Y-63400000D02*
X76650000Y-81150000D01*
X111883332Y-61183332D02*
X111883332Y-63416668D01*
X111883332Y-63416668D02*
X111850000Y-63450000D01*
%TO.N,/BTN_USR2*%
X77800000Y-83100000D02*
X77850000Y-83150000D01*
X125300000Y-61299998D02*
X125300000Y-64150000D01*
X77800000Y-64050000D02*
X77800000Y-83100000D01*
%TO.N,/I2C1_SDA*%
X96050000Y-71100000D02*
X96050000Y-67700000D01*
X96050000Y-67700000D02*
X96000000Y-67650000D01*
X63950000Y-67550000D02*
X64140000Y-67360000D01*
X64140000Y-67360000D02*
X64140000Y-56950000D01*
%TO.N,/I2C1_SCL*%
X94050000Y-71100000D02*
X94050000Y-68400000D01*
X94050000Y-68400000D02*
X94000000Y-68350000D01*
X62150000Y-68350000D02*
X62150000Y-67450000D01*
X61600000Y-66900000D02*
X61600000Y-56950000D01*
X62150000Y-67450000D02*
X61600000Y-66900000D01*
%TO.N,/GPIO37*%
X70700000Y-69400000D02*
X70700000Y-96925000D01*
X70700000Y-96925000D02*
X67100000Y-100525000D01*
%TO.N,/GPIO38*%
X69700000Y-70250000D02*
X69700000Y-95385000D01*
X69700000Y-95385000D02*
X67100000Y-97985000D01*
%TO.N,/GPIO39*%
X68900000Y-71200000D02*
X68900000Y-93645000D01*
X68900000Y-93645000D02*
X67100000Y-95445000D01*
%TO.N,ZXRD*%
X141300000Y-103750000D02*
X141350000Y-103800000D01*
X141300000Y-95700000D02*
X141300000Y-103750000D01*
%TO.N,ZXBUSACK*%
X139578400Y-148864400D02*
X139578400Y-142221600D01*
X140742000Y-150028000D02*
X139578400Y-148864400D01*
X139578400Y-142221600D02*
X140150000Y-141650000D01*
X140150000Y-141650000D02*
X140150000Y-98260000D01*
%TO.N,ZXWR*%
X123000000Y-139200000D02*
X122962000Y-139238000D01*
X122962000Y-139238000D02*
X122962000Y-144948000D01*
X135400000Y-93100000D02*
X135400000Y-115600000D01*
X135400000Y-115600000D02*
X135200000Y-115800000D01*
X133350000Y-139000000D02*
X133300000Y-139050000D01*
X133350000Y-115750000D02*
X133350000Y-139000000D01*
%TO.N,ZXMREQ*%
X136000000Y-90650000D02*
X136000000Y-138150000D01*
X135800000Y-90450000D02*
X136000000Y-90650000D01*
X136000000Y-138150000D02*
X136050000Y-138200000D01*
X115100000Y-138100000D02*
X115342000Y-138342000D01*
X115342000Y-138342000D02*
X115342000Y-144948000D01*
%TO.N,ZXIORQ*%
X138000000Y-121000000D02*
X138000000Y-137300000D01*
X139100000Y-110800000D02*
X139100000Y-119900000D01*
X138200000Y-93700000D02*
X138200000Y-109900000D01*
X139100000Y-119900000D02*
X138000000Y-121000000D01*
X138200000Y-88000000D02*
X138200000Y-93700000D01*
X138200000Y-109900000D02*
X139100000Y-110800000D01*
X117882000Y-137282000D02*
X117882000Y-144948000D01*
X117850000Y-137250000D02*
X117882000Y-137282000D01*
%TO.N,ZXBUSRQ*%
X137600000Y-107600000D02*
X137600000Y-105548529D01*
X137600000Y-105548529D02*
X137450000Y-105398529D01*
X139550000Y-107550000D02*
X139550000Y-107498529D01*
%TO.N,ZXINT*%
X113400000Y-123750000D02*
X113850000Y-124200000D01*
X113850000Y-124200000D02*
X113850000Y-140700000D01*
X113850000Y-140700000D02*
X113900000Y-140750000D01*
X107700000Y-140650000D02*
X107722000Y-140672000D01*
X107722000Y-140672000D02*
X107722000Y-144948000D01*
%TO.N,ZXA12*%
X114625499Y-124900000D02*
X114750000Y-124775499D01*
X114750000Y-124775499D02*
X114750000Y-91300000D01*
X114750000Y-91300000D02*
X114550000Y-91100000D01*
%TO.N,ZXA13*%
X115250000Y-125400000D02*
X115450000Y-125200000D01*
X115450000Y-125200000D02*
X115450000Y-90075738D01*
X115450000Y-90075738D02*
X114485852Y-89111590D01*
%TO.N,ZXA14*%
X115700000Y-126100000D02*
X115850000Y-125950000D01*
X115850000Y-125950000D02*
X115850000Y-89631370D01*
X115850000Y-89631370D02*
X114950000Y-88731370D01*
X114950000Y-88731370D02*
X114950000Y-87100000D01*
%TO.N,ZXA15*%
X116250000Y-126900000D02*
X116300000Y-126850000D01*
X116300000Y-126850000D02*
X116300000Y-89515685D01*
X115784315Y-89000000D02*
X115550000Y-88765686D01*
X115550000Y-88765686D02*
X115550000Y-86650000D01*
X116300000Y-89515685D02*
X115784315Y-89000000D01*
X115550000Y-86650000D02*
X114000000Y-85100000D01*
%TO.N,ZXCLK*%
X116900000Y-127600000D02*
X116850000Y-127550000D01*
X116850000Y-127550000D02*
X116850000Y-93198529D01*
X116850000Y-92401471D02*
X116850000Y-89500000D01*
X116850000Y-93198529D02*
X116700000Y-93048529D01*
X116700000Y-93048529D02*
X116700000Y-92551471D01*
X115950000Y-86484314D02*
X114700000Y-85234314D01*
X114700000Y-85234314D02*
X114700000Y-83800000D01*
X116700000Y-92551471D02*
X116850000Y-92401471D01*
X114700000Y-83800000D02*
X114000000Y-83100000D01*
X116850000Y-89500000D02*
X115950000Y-88600000D01*
X115950000Y-88600000D02*
X115950000Y-86484314D01*
%TO.N,ZXINT*%
X113350000Y-84500000D02*
X113400000Y-84550000D01*
X113400000Y-84550000D02*
X113400000Y-123750000D01*
X113550000Y-81100000D02*
X113350000Y-81300000D01*
X113350000Y-81300000D02*
X113350000Y-84500000D01*
%TO.N,ZXWAIT*%
X113250000Y-128750000D02*
X113000000Y-128500000D01*
X113000000Y-128500000D02*
X113000000Y-96384315D01*
X113000000Y-96384315D02*
X112950000Y-96334315D01*
X112950000Y-96334315D02*
X112950000Y-73598529D01*
X112950000Y-73598529D02*
X110600000Y-71248529D01*
X110600000Y-71248529D02*
X110600000Y-67650000D01*
%TO.N,ZXCLK*%
X96800000Y-127650000D02*
X96800000Y-143528021D01*
X96800000Y-143528021D02*
X96398400Y-143929621D01*
X96398400Y-143929621D02*
X96398400Y-148651600D01*
X96398400Y-148651600D02*
X95022000Y-150028000D01*
%TO.N,ZXA15*%
X73250000Y-126850000D02*
X73250000Y-144700000D01*
%TO.N,ZXA14*%
X78950000Y-126300000D02*
X78618400Y-126631600D01*
X78618400Y-126631600D02*
X78618400Y-148651600D01*
X78618400Y-148651600D02*
X77242000Y-150028000D01*
%TO.N,ZXA13*%
X79782000Y-125968000D02*
X79782000Y-144948000D01*
X80100000Y-125650000D02*
X79782000Y-125968000D01*
%TO.N,ZXA12*%
X81250000Y-125100000D02*
X81158400Y-125191600D01*
X81158400Y-148651600D02*
X79782000Y-150028000D01*
X81158400Y-125191600D02*
X81158400Y-148651600D01*
%TO.N,ZXWAIT*%
X98150000Y-67550000D02*
X98050000Y-67650000D01*
X128042000Y-129008000D02*
X128100000Y-128950000D01*
X128042000Y-144948000D02*
X128042000Y-129008000D01*
X98050000Y-67650000D02*
X98050000Y-70450000D01*
%TO.N,ZXA7*%
X126950000Y-133800000D02*
X126878400Y-133871600D01*
X126878400Y-133871600D02*
X126878400Y-148864400D01*
X126878400Y-148864400D02*
X128042000Y-150028000D01*
%TO.N,ZXBUSRQ*%
X137450000Y-105398529D02*
X137450000Y-100850000D01*
X139550000Y-133200000D02*
X139550000Y-107550000D01*
%TO.N,ZXROMCS*%
X137000000Y-113950000D02*
X137000000Y-106700000D01*
X137000000Y-148826000D02*
X137000000Y-144350000D01*
X138202000Y-150028000D02*
X137000000Y-148826000D01*
X137000000Y-144350000D02*
X137000000Y-113950000D01*
%TO.N,ZXA11*%
X144650000Y-129600000D02*
X144650000Y-130583200D01*
X144650000Y-130583200D02*
X144658400Y-130591600D01*
X144658400Y-130591600D02*
X144658400Y-148864400D01*
X144658400Y-148864400D02*
X145822000Y-150028000D01*
X112600000Y-96550000D02*
X112600000Y-98900000D01*
X109150000Y-93100000D02*
X112600000Y-96550000D01*
X112600000Y-98900000D02*
X112600000Y-129500000D01*
X112600000Y-129500000D02*
X112700000Y-129600000D01*
%TO.N,ZXA10*%
X142750000Y-130250000D02*
X142900000Y-130400000D01*
X142900000Y-130400000D02*
X142900000Y-144566000D01*
X142900000Y-144566000D02*
X143282000Y-144948000D01*
%TO.N,ZXA9*%
X142050000Y-131350000D02*
X142118400Y-131418400D01*
X142118400Y-131418400D02*
X142118400Y-148864400D01*
X142118400Y-148864400D02*
X143282000Y-150028000D01*
%TO.N,ZXA10*%
X112100000Y-98050000D02*
X112100000Y-99765686D01*
X109150000Y-95100000D02*
X112100000Y-98050000D01*
X112100000Y-99765686D02*
X112100000Y-130349997D01*
X112100000Y-130349997D02*
X112300000Y-130549997D01*
%TO.N,ZXA9*%
X111700000Y-99600000D02*
X111700000Y-101365686D01*
X109200000Y-97100000D02*
X111700000Y-99600000D01*
X111700000Y-101365686D02*
X111700000Y-131150000D01*
X111700000Y-131150000D02*
X111900000Y-131350000D01*
%TO.N,ZXA8*%
X111300000Y-101200000D02*
X111300000Y-103950000D01*
X109200000Y-99100000D02*
X111300000Y-101200000D01*
X111300000Y-103950000D02*
X111300000Y-132250000D01*
X111300000Y-132250000D02*
X111500000Y-132450000D01*
X140742000Y-132608000D02*
X140742000Y-144948000D01*
X140900000Y-132450000D02*
X140742000Y-132608000D01*
%TO.N,ZXA7*%
X110900000Y-102750000D02*
X110900000Y-106950000D01*
X109250000Y-101100000D02*
X110900000Y-102750000D01*
X110900000Y-106950000D02*
X110900000Y-133125735D01*
X110900000Y-133125735D02*
X111100000Y-133325735D01*
%TO.N,ZXA6*%
X109200000Y-103100000D02*
X110500000Y-104400000D01*
X110500000Y-104400000D02*
X110500000Y-133750000D01*
X110500000Y-133750000D02*
X111200000Y-134450000D01*
%TO.N,ZXA5*%
X109100000Y-105100000D02*
X110100000Y-106100000D01*
X110100000Y-106100000D02*
X110100000Y-134601471D01*
X110100000Y-134601471D02*
X110600000Y-135101471D01*
X110600000Y-135101471D02*
X110600000Y-136250000D01*
%TO.N,ZXA4*%
X109000000Y-107100000D02*
X109700000Y-107800000D01*
X109700000Y-135050000D02*
X109950000Y-135300000D01*
X109700000Y-107800000D02*
X109700000Y-135050000D01*
%TO.N,ZXA6*%
X129418400Y-146268400D02*
X130582000Y-147432000D01*
X129400000Y-134450000D02*
X129418400Y-134468400D01*
X129418400Y-134468400D02*
X129418400Y-146268400D01*
X130582000Y-147432000D02*
X130582000Y-150028000D01*
%TO.N,ZXA5*%
X131900000Y-136250000D02*
X131900000Y-148806000D01*
X131900000Y-148806000D02*
X133122000Y-150028000D01*
%TO.N,ZXA4*%
X134500000Y-135300000D02*
X134498400Y-135301600D01*
X134498400Y-135301600D02*
X134498400Y-148864400D01*
X134498400Y-148864400D02*
X135662000Y-150028000D01*
%TO.N,ZXROMCS*%
X113950000Y-75000000D02*
X113900000Y-74950000D01*
X113900000Y-74950000D02*
X113900000Y-67950000D01*
%TO.N,ZXWR*%
X114750000Y-77050000D02*
X114800000Y-77000000D01*
X114800000Y-77000000D02*
X114800000Y-68550000D01*
%TO.N,ZXRD*%
X115850000Y-79100000D02*
X115850000Y-69250000D01*
%TO.N,ZXINT*%
X115700000Y-81100000D02*
X116950000Y-79850000D01*
X116950000Y-79850000D02*
X116950000Y-70000000D01*
%TO.N,ZXCLK*%
X116250000Y-83250000D02*
X116250000Y-81400000D01*
X117400000Y-80250000D02*
X117400000Y-76600000D01*
X116250000Y-81400000D02*
X117400000Y-80250000D01*
X117400000Y-76600000D02*
X118000000Y-76000000D01*
X118000000Y-76000000D02*
X118000000Y-70650000D01*
%TO.N,ZXA15*%
X116767231Y-84934239D02*
X116767231Y-83582769D01*
X116767231Y-83582769D02*
X117300000Y-83050000D01*
X117300000Y-83050000D02*
X117300000Y-81400000D01*
X117300000Y-81400000D02*
X118200000Y-80500000D01*
X118200000Y-80500000D02*
X118200000Y-76850000D01*
X118200000Y-76850000D02*
X119150000Y-75900000D01*
X119150000Y-75900000D02*
X119150000Y-74400000D01*
X119150000Y-74400000D02*
X120700000Y-72850000D01*
%TO.N,ZXA14*%
X116950000Y-87150000D02*
X116950000Y-85600000D01*
X116950000Y-85600000D02*
X117450000Y-85100000D01*
X117450000Y-85100000D02*
X117450000Y-83600000D01*
X117450000Y-83600000D02*
X118000000Y-83050000D01*
X118000000Y-83050000D02*
X118000000Y-81650000D01*
X118000000Y-81650000D02*
X118800000Y-80850000D01*
X118800000Y-80850000D02*
X118800000Y-77290000D01*
X118800000Y-77290000D02*
X120700000Y-75390000D01*
%TO.N,ZXA13*%
X118650000Y-81850000D02*
X119300000Y-81200000D01*
X118650000Y-83300000D02*
X118650000Y-81850000D01*
X117550000Y-85950000D02*
X118050000Y-85450000D01*
X117550000Y-87875735D02*
X117550000Y-85950000D01*
X118050000Y-85450000D02*
X118050000Y-83900000D01*
X118050000Y-83900000D02*
X118650000Y-83300000D01*
X119300000Y-81200000D02*
X119300000Y-79330000D01*
X119300000Y-79330000D02*
X120700000Y-77930000D01*
%TO.N,ZXA12*%
X118550000Y-85800000D02*
X118550000Y-84150000D01*
X119150000Y-83550000D02*
X119150000Y-82020000D01*
X117450000Y-88850000D02*
X118150000Y-88150000D01*
X118150000Y-88150000D02*
X118150000Y-86200000D01*
X117450000Y-90425735D02*
X117450000Y-88850000D01*
X118550000Y-84150000D02*
X119150000Y-83550000D01*
X118150000Y-86200000D02*
X118550000Y-85800000D01*
X119150000Y-82020000D02*
X120700000Y-80470000D01*
%TO.N,ZXA11*%
X118600000Y-86550000D02*
X119150000Y-86000000D01*
X118600000Y-88600000D02*
X118600000Y-86550000D01*
X117300000Y-91450000D02*
X118050000Y-90700000D01*
X117300000Y-92800000D02*
X117300000Y-91450000D01*
X118050000Y-90700000D02*
X118050000Y-89150000D01*
X118050000Y-89150000D02*
X118600000Y-88600000D01*
X119150000Y-86000000D02*
X119150000Y-84560000D01*
X119150000Y-84560000D02*
X120700000Y-83010000D01*
%TO.N,ZXA10*%
X117975735Y-93475735D02*
X117975735Y-91724265D01*
X117975735Y-91724265D02*
X118700000Y-91000000D01*
X118700000Y-91000000D02*
X118700000Y-89450000D01*
X119250000Y-87000000D02*
X120700000Y-85550000D01*
X118700000Y-89450000D02*
X119250000Y-88900000D01*
X119250000Y-88900000D02*
X119250000Y-87000000D01*
%TO.N,ZXA9*%
X118600000Y-91800000D02*
X119300000Y-91100000D01*
X118600000Y-93700000D02*
X118600000Y-91800000D01*
X117475735Y-97100000D02*
X117475735Y-94824265D01*
X117475735Y-94824265D02*
X118600000Y-93700000D01*
X119300000Y-91100000D02*
X119300000Y-89490000D01*
X119300000Y-89490000D02*
X120700000Y-88090000D01*
%TO.N,ZXA8*%
X118350000Y-94750000D02*
X119400000Y-93700000D01*
X119400000Y-91930000D02*
X120700000Y-90630000D01*
X118350000Y-96200000D02*
X118350000Y-94750000D01*
X118075735Y-98375735D02*
X118075735Y-96474265D01*
X118075735Y-96474265D02*
X118350000Y-96200000D01*
X119400000Y-93700000D02*
X119400000Y-91930000D01*
%TO.N,ZXA7*%
X117948732Y-101062937D02*
X117948732Y-99351268D01*
X117948732Y-99351268D02*
X118750000Y-98550000D01*
X118750000Y-98550000D02*
X118750000Y-96600000D01*
X118750000Y-96600000D02*
X119350000Y-96000000D01*
X119350000Y-96000000D02*
X119350000Y-94520000D01*
X119350000Y-94520000D02*
X120700000Y-93170000D01*
%TO.N,ZXA6*%
X118700000Y-99300000D02*
X119200000Y-98800000D01*
X118700000Y-101337892D02*
X118700000Y-99300000D01*
X119200000Y-98800000D02*
X119200000Y-97210000D01*
X119200000Y-97210000D02*
X120700000Y-95710000D01*
%TO.N,ZXA5*%
X118850000Y-103732892D02*
X118850000Y-102074314D01*
X118850000Y-102074314D02*
X119300000Y-101624314D01*
X119300000Y-101624314D02*
X119300000Y-99650000D01*
X119300000Y-99650000D02*
X120700000Y-98250000D01*
%TO.N,ZXA4*%
X118850000Y-106302892D02*
X118850000Y-104614314D01*
X118850000Y-104614314D02*
X119450000Y-104014314D01*
X119450000Y-104014314D02*
X119450000Y-102040000D01*
X119450000Y-102040000D02*
X120700000Y-100790000D01*
%TO.N,ZXA3*%
X120700000Y-103330000D02*
X119450000Y-104580000D01*
X119450000Y-104580000D02*
X119450000Y-106554314D01*
X119450000Y-106554314D02*
X118800000Y-107204314D01*
X118800000Y-107204314D02*
X118800000Y-108800000D01*
X118800000Y-108800000D02*
X118600000Y-109000000D01*
%TO.N,ZXA1*%
X105750000Y-115400000D02*
X105750000Y-142050000D01*
X105750000Y-142050000D02*
X105850000Y-142150000D01*
%TO.N,ZXD7*%
X82300000Y-135700000D02*
X82322000Y-135722000D01*
X82322000Y-135722000D02*
X82322000Y-144948000D01*
X100050000Y-116700000D02*
X100050000Y-135200000D01*
X100050000Y-135200000D02*
X100000000Y-135250000D01*
X82300000Y-135150000D02*
X82300000Y-135700000D01*
%TO.N,ZXD6*%
X98050000Y-117350000D02*
X97562000Y-117838000D01*
X97562000Y-117838000D02*
X97562000Y-144948000D01*
%TO.N,ZXD5*%
X96050000Y-117800000D02*
X96050000Y-136200000D01*
X100100000Y-136250000D02*
X100102000Y-136252000D01*
X100102000Y-136252000D02*
X100102000Y-144948000D01*
%TO.N,ZXD4*%
X94050000Y-118550000D02*
X94050000Y-137150000D01*
X94050000Y-137150000D02*
X94100000Y-137200000D01*
X105182000Y-137682000D02*
X105182000Y-144948000D01*
X105100000Y-137200000D02*
X105100000Y-137600000D01*
X105100000Y-137600000D02*
X105182000Y-137682000D01*
%TO.N,ZXD3*%
X92100000Y-119200000D02*
X92100000Y-138000000D01*
X102700000Y-138000000D02*
X102700000Y-139050000D01*
X102700000Y-139050000D02*
X102642000Y-139108000D01*
X102642000Y-139108000D02*
X102642000Y-144948000D01*
%TO.N,ZXD2*%
X90150000Y-119950000D02*
X90150000Y-139150000D01*
X95050000Y-139200000D02*
X95022000Y-139228000D01*
X95022000Y-139228000D02*
X95022000Y-144948000D01*
%TO.N,ZXD1*%
X92450000Y-140350000D02*
X92482000Y-140382000D01*
X92482000Y-140382000D02*
X92482000Y-144948000D01*
X88100000Y-140300000D02*
X88150000Y-140350000D01*
X88100000Y-120700000D02*
X88100000Y-140300000D01*
%TO.N,ZXD0*%
X86050000Y-121400000D02*
X86050000Y-141250000D01*
X89700000Y-141250000D02*
X89942000Y-141492000D01*
X89942000Y-141492000D02*
X89942000Y-144948000D01*
%TO.N,ZXROMCS*%
X139550000Y-77050000D02*
X139550000Y-106650000D01*
%TO.N,GND*%
X141700000Y-118900000D02*
X141700000Y-120150000D01*
%TO.N,/RESET_Z80*%
X79200000Y-124300000D02*
X79200000Y-79150000D01*
X135050000Y-123900000D02*
X135000000Y-123950000D01*
X135050000Y-118000000D02*
X135050000Y-123900000D01*
%TO.N,Net-(Q101-B)*%
X141700000Y-117000000D02*
X141700000Y-115750000D01*
X141700000Y-115750000D02*
X141750000Y-115700000D01*
X138150000Y-115700000D02*
X138150000Y-118000000D01*
%TO.N,ZXRESET*%
X144500000Y-109200000D02*
X144500000Y-117330000D01*
X144500000Y-117330000D02*
X145120000Y-117950000D01*
X137350000Y-67750000D02*
X137350000Y-74000000D01*
X134800000Y-65200000D02*
X137350000Y-67750000D01*
X146650000Y-74050000D02*
X146650000Y-107050000D01*
X146650000Y-107050000D02*
X144500000Y-109200000D01*
X92050000Y-64800000D02*
X92000000Y-64750000D01*
X92050000Y-71100000D02*
X92050000Y-64800000D01*
%TO.N,ZXBUSACK*%
X136750000Y-68285847D02*
X136750000Y-98350000D01*
X134257186Y-65793033D02*
X136750000Y-68285847D01*
X100050000Y-65650000D02*
X100000000Y-65600000D01*
X100050000Y-71100000D02*
X100050000Y-65650000D01*
X136750000Y-98350000D02*
X136700000Y-98400000D01*
%TO.N,ZXBUSRQ*%
X133682834Y-66349920D02*
X136150000Y-68817086D01*
X136150000Y-68817086D02*
X136150000Y-74800000D01*
%TO.N,ZXIORQ*%
X133172742Y-66966208D02*
X135350000Y-69143466D01*
X135350000Y-69143466D02*
X135350000Y-75600000D01*
%TO.N,ZXMREQ*%
X132648295Y-67570327D02*
X134500000Y-69422032D01*
X134500000Y-69422032D02*
X134500000Y-76250000D01*
%TO.N,ZXROMCS*%
X132165026Y-68207865D02*
X133650000Y-69692839D01*
X133650000Y-69692839D02*
X133650000Y-76950000D01*
%TO.N,ZXWR*%
X132750000Y-77750000D02*
X132750000Y-69917978D01*
X132750000Y-69917978D02*
X131661763Y-68829741D01*
%TO.N,ZXRD*%
X131117154Y-69415748D02*
X131850000Y-70148594D01*
X131850000Y-70148594D02*
X131850000Y-78350000D01*
%TO.N,ZXINT*%
X130591154Y-70018516D02*
X130950000Y-70377362D01*
X130950000Y-70377362D02*
X130950000Y-79100000D01*
%TO.N,ZXBUSRQ*%
X137350000Y-74900000D02*
X137350000Y-100750000D01*
X137350000Y-100750000D02*
X137450000Y-100850000D01*
%TO.N,ZXIORQ*%
X138200000Y-75650000D02*
X138200000Y-88000000D01*
%TO.N,ZXMREQ*%
X138950000Y-76300000D02*
X138950000Y-90300000D01*
X138950000Y-90300000D02*
X138850000Y-90400000D01*
%TO.N,ZXWR*%
X140450000Y-77800000D02*
X140450000Y-93050000D01*
%TO.N,ZXRD*%
X141300000Y-78450000D02*
X141300000Y-95700000D01*
%TO.N,ZXINT*%
X142300000Y-79300000D02*
X142300000Y-85400000D01*
X142300000Y-85400000D02*
X142350000Y-85450000D01*
%TO.N,ZXCLK*%
X130150000Y-70700000D02*
X130100000Y-70650000D01*
X130150000Y-79900000D02*
X130150000Y-70700000D01*
X144550000Y-79900000D02*
X144550000Y-83020000D01*
%TO.N,ZXBUSRQ*%
X111750000Y-68400000D02*
X111750000Y-66000000D01*
X102050000Y-71100000D02*
X102050000Y-68400000D01*
%TO.N,ZXIORQ*%
X112700000Y-71150000D02*
X112700000Y-66650000D01*
X112700000Y-66650000D02*
X112650000Y-66600000D01*
%TO.N,ZXMREQ*%
X113300000Y-73100000D02*
X113300000Y-67300000D01*
%TO.N,ZXA2*%
X119200000Y-111100000D02*
X119200000Y-107370000D01*
X119200000Y-107370000D02*
X120700000Y-105870000D01*
%TO.N,ZXA1*%
X122050000Y-109760000D02*
X120700000Y-108410000D01*
X104050000Y-113750000D02*
X105700000Y-115400000D01*
X105700000Y-115400000D02*
X105750000Y-115400000D01*
X122050000Y-115400000D02*
X122050000Y-109760000D01*
%TO.N,ZXA0*%
X102050000Y-113750000D02*
X102050000Y-116100000D01*
X120850000Y-116100000D02*
X120850000Y-115400000D01*
X120700000Y-115250000D02*
X120700000Y-110950000D01*
X120850000Y-115400000D02*
X120700000Y-115250000D01*
%TO.N,/BLIPPER1*%
X132500000Y-123300000D02*
X132500000Y-122950000D01*
X80200000Y-85050000D02*
X80200000Y-123450000D01*
X132500000Y-122950000D02*
X132750000Y-122700000D01*
X132750000Y-122700000D02*
X132750000Y-109300000D01*
%TO.N,/BLIPPER2*%
X131300000Y-122550000D02*
X131300000Y-108210000D01*
X80950000Y-87050000D02*
X80950000Y-122450000D01*
X80950000Y-122450000D02*
X80850000Y-122550000D01*
X131300000Y-108210000D02*
X132750000Y-106760000D01*
%TO.N,ZXD0*%
X86050000Y-113750000D02*
X86050000Y-121400000D01*
X130500000Y-121350000D02*
X130500000Y-100900000D01*
%TO.N,ZXD1*%
X129750000Y-120600000D02*
X129750000Y-98350000D01*
X88050000Y-113100000D02*
X88050000Y-120650000D01*
X88050000Y-120650000D02*
X88100000Y-120700000D01*
%TO.N,ZXD2*%
X129000000Y-95850000D02*
X129050000Y-95800000D01*
X90050000Y-113750000D02*
X90050000Y-119850000D01*
X90050000Y-119850000D02*
X90150000Y-119950000D01*
X129000000Y-120000000D02*
X129000000Y-95850000D01*
%TO.N,ZXD3*%
X128200000Y-119400000D02*
X128200000Y-93350000D01*
X92050000Y-113100000D02*
X92050000Y-119150000D01*
X92050000Y-119150000D02*
X92100000Y-119200000D01*
X128200000Y-93350000D02*
X128250000Y-93300000D01*
%TO.N,ZXD4*%
X127350000Y-118800000D02*
X127350000Y-90550000D01*
X94050000Y-113100000D02*
X94050000Y-118550000D01*
%TO.N,ZXD5*%
X126450000Y-118000000D02*
X126450000Y-88150000D01*
X96050000Y-113100000D02*
X96050000Y-117800000D01*
%TO.N,ZXD6*%
X125600000Y-117350000D02*
X125600000Y-85550000D01*
X98050000Y-113100000D02*
X98050000Y-117350000D01*
%TO.N,ZXD7*%
X124900000Y-116700000D02*
X124900000Y-83000000D01*
X100050000Y-113100000D02*
X100050000Y-116700000D01*
%TD*%
%TA.AperFunction,Conductor*%
%TO.N,GND*%
G36*
X136311883Y-65086770D02*
G01*
X136273386Y-65042342D01*
X136262000Y-64990000D01*
X136262000Y-53702500D01*
X136266524Y-53687090D01*
X136311883Y-65086770D01*
G37*
%TD.AperFunction*%
%TD*%
%TA.AperFunction,Conductor*%
%TO.N,GND*%
G36*
X149229621Y-53596502D02*
G01*
X149276114Y-53650158D01*
X149287500Y-53702500D01*
X149287500Y-64990000D01*
X149267498Y-65058121D01*
X149213842Y-65104614D01*
X149161500Y-65116000D01*
X136388000Y-65116000D01*
X136319879Y-65095998D01*
X136311883Y-65086770D01*
X136266524Y-53687090D01*
X136282002Y-53634379D01*
X136335658Y-53587886D01*
X136388000Y-53576500D01*
X149161500Y-53576500D01*
X149229621Y-53596502D01*
G37*
%TD.AperFunction*%
%TD*%
M02*
