%TF.GenerationSoftware,KiCad,Pcbnew,8.0.6-8.0.6-0~ubuntu22.04.1*%
%TF.CreationDate,2024-11-29T09:43:17+00:00*%
%TF.ProjectId,zx-spectrum-pico-dma,7a782d73-7065-4637-9472-756d2d706963,rev?*%
%TF.SameCoordinates,Original*%
%TF.FileFunction,Drillmap*%
%TF.FilePolarity,Positive*%
%FSLAX45Y45*%
G04 Gerber Fmt 4.5, Leading zero omitted, Abs format (unit mm)*
G04 Created by KiCad (PCBNEW 8.0.6-8.0.6-0~ubuntu22.04.1) date 2024-11-29 09:43:17*
%MOMM*%
%LPD*%
G01*
G04 APERTURE LIST*
%ADD10C,0.100000*%
%ADD11C,0.200000*%
G04 APERTURE END LIST*
D10*
X5162400Y-5307600D02*
X14978800Y-5307600D01*
X14978800Y-15298600D01*
X5162400Y-15298600D01*
X5162400Y-5307600D01*
D11*
X5418177Y-15615084D02*
X5418177Y-15415084D01*
X5418177Y-15415084D02*
X5465796Y-15415084D01*
X5465796Y-15415084D02*
X5494367Y-15424608D01*
X5494367Y-15424608D02*
X5513415Y-15443655D01*
X5513415Y-15443655D02*
X5522939Y-15462703D01*
X5522939Y-15462703D02*
X5532463Y-15500798D01*
X5532463Y-15500798D02*
X5532463Y-15529369D01*
X5532463Y-15529369D02*
X5522939Y-15567465D01*
X5522939Y-15567465D02*
X5513415Y-15586512D01*
X5513415Y-15586512D02*
X5494367Y-15605560D01*
X5494367Y-15605560D02*
X5465796Y-15615084D01*
X5465796Y-15615084D02*
X5418177Y-15615084D01*
X5618177Y-15615084D02*
X5618177Y-15481750D01*
X5618177Y-15519846D02*
X5627701Y-15500798D01*
X5627701Y-15500798D02*
X5637224Y-15491274D01*
X5637224Y-15491274D02*
X5656272Y-15481750D01*
X5656272Y-15481750D02*
X5675320Y-15481750D01*
X5741986Y-15615084D02*
X5741986Y-15481750D01*
X5741986Y-15415084D02*
X5732462Y-15424608D01*
X5732462Y-15424608D02*
X5741986Y-15434131D01*
X5741986Y-15434131D02*
X5751510Y-15424608D01*
X5751510Y-15424608D02*
X5741986Y-15415084D01*
X5741986Y-15415084D02*
X5741986Y-15434131D01*
X5865796Y-15615084D02*
X5846748Y-15605560D01*
X5846748Y-15605560D02*
X5837224Y-15586512D01*
X5837224Y-15586512D02*
X5837224Y-15415084D01*
X5970558Y-15615084D02*
X5951510Y-15605560D01*
X5951510Y-15605560D02*
X5941986Y-15586512D01*
X5941986Y-15586512D02*
X5941986Y-15415084D01*
X6199129Y-15615084D02*
X6199129Y-15415084D01*
X6199129Y-15415084D02*
X6265796Y-15557941D01*
X6265796Y-15557941D02*
X6332462Y-15415084D01*
X6332462Y-15415084D02*
X6332462Y-15615084D01*
X6513415Y-15615084D02*
X6513415Y-15510322D01*
X6513415Y-15510322D02*
X6503891Y-15491274D01*
X6503891Y-15491274D02*
X6484843Y-15481750D01*
X6484843Y-15481750D02*
X6446748Y-15481750D01*
X6446748Y-15481750D02*
X6427701Y-15491274D01*
X6513415Y-15605560D02*
X6494367Y-15615084D01*
X6494367Y-15615084D02*
X6446748Y-15615084D01*
X6446748Y-15615084D02*
X6427701Y-15605560D01*
X6427701Y-15605560D02*
X6418177Y-15586512D01*
X6418177Y-15586512D02*
X6418177Y-15567465D01*
X6418177Y-15567465D02*
X6427701Y-15548417D01*
X6427701Y-15548417D02*
X6446748Y-15538893D01*
X6446748Y-15538893D02*
X6494367Y-15538893D01*
X6494367Y-15538893D02*
X6513415Y-15529369D01*
X6608653Y-15481750D02*
X6608653Y-15681750D01*
X6608653Y-15491274D02*
X6627701Y-15481750D01*
X6627701Y-15481750D02*
X6665796Y-15481750D01*
X6665796Y-15481750D02*
X6684843Y-15491274D01*
X6684843Y-15491274D02*
X6694367Y-15500798D01*
X6694367Y-15500798D02*
X6703891Y-15519846D01*
X6703891Y-15519846D02*
X6703891Y-15576988D01*
X6703891Y-15576988D02*
X6694367Y-15596036D01*
X6694367Y-15596036D02*
X6684843Y-15605560D01*
X6684843Y-15605560D02*
X6665796Y-15615084D01*
X6665796Y-15615084D02*
X6627701Y-15615084D01*
X6627701Y-15615084D02*
X6608653Y-15605560D01*
X6789605Y-15596036D02*
X6799129Y-15605560D01*
X6799129Y-15605560D02*
X6789605Y-15615084D01*
X6789605Y-15615084D02*
X6780082Y-15605560D01*
X6780082Y-15605560D02*
X6789605Y-15596036D01*
X6789605Y-15596036D02*
X6789605Y-15615084D01*
X6789605Y-15491274D02*
X6799129Y-15500798D01*
X6799129Y-15500798D02*
X6789605Y-15510322D01*
X6789605Y-15510322D02*
X6780082Y-15500798D01*
X6780082Y-15500798D02*
X6789605Y-15491274D01*
X6789605Y-15491274D02*
X6789605Y-15510322D01*
M02*
