%TF.GenerationSoftware,KiCad,Pcbnew,8.0.6-8.0.6-0~ubuntu22.04.1*%
%TF.CreationDate,2024-11-29T09:40:31+00:00*%
%TF.ProjectId,zx-spectrum-pico-dma,7a782d73-7065-4637-9472-756d2d706963,rev?*%
%TF.SameCoordinates,Original*%
%TF.FileFunction,Soldermask,Top*%
%TF.FilePolarity,Negative*%
%FSLAX46Y46*%
G04 Gerber Fmt 4.6, Leading zero omitted, Abs format (unit mm)*
G04 Created by KiCad (PCBNEW 8.0.6-8.0.6-0~ubuntu22.04.1) date 2024-11-29 09:40:31*
%MOMM*%
%LPD*%
G01*
G04 APERTURE LIST*
G04 Aperture macros list*
%AMRoundRect*
0 Rectangle with rounded corners*
0 $1 Rounding radius*
0 $2 $3 $4 $5 $6 $7 $8 $9 X,Y pos of 4 corners*
0 Add a 4 corners polygon primitive as box body*
4,1,4,$2,$3,$4,$5,$6,$7,$8,$9,$2,$3,0*
0 Add four circle primitives for the rounded corners*
1,1,$1+$1,$2,$3*
1,1,$1+$1,$4,$5*
1,1,$1+$1,$6,$7*
1,1,$1+$1,$8,$9*
0 Add four rect primitives between the rounded corners*
20,1,$1+$1,$2,$3,$4,$5,0*
20,1,$1+$1,$4,$5,$6,$7,0*
20,1,$1+$1,$6,$7,$8,$9,0*
20,1,$1+$1,$8,$9,$2,$3,0*%
G04 Aperture macros list end*
%ADD10R,1.700000X1.700000*%
%ADD11O,1.700000X1.700000*%
%ADD12C,2.000000*%
%ADD13RoundRect,0.250000X-0.400000X-0.625000X0.400000X-0.625000X0.400000X0.625000X-0.400000X0.625000X0*%
%ADD14RoundRect,0.162500X-0.837500X-0.162500X0.837500X-0.162500X0.837500X0.162500X-0.837500X0.162500X0*%
%ADD15C,4.400000*%
%ADD16R,1.500000X2.800000*%
%ADD17C,1.350000*%
%ADD18O,1.350000X1.350000*%
%ADD19R,2.800000X1.500000*%
%ADD20O,1.727200X2.800000*%
G04 APERTURE END LIST*
D10*
%TO.C,J108*%
X67100000Y-100525000D03*
D11*
X67100000Y-97985000D03*
X67100000Y-95445000D03*
X67100000Y-92905000D03*
X67100000Y-90365000D03*
X67100000Y-87825000D03*
%TD*%
D10*
%TO.C,J105*%
X144550000Y-83020000D03*
D11*
X144550000Y-85560000D03*
X144550000Y-88100000D03*
X144550000Y-90640000D03*
X144550000Y-93180000D03*
X144550000Y-95720000D03*
X144550000Y-98260000D03*
X144550000Y-100800000D03*
%TD*%
D12*
%TO.C,SW104*%
X131800000Y-61299998D03*
X125300000Y-61299998D03*
X131800000Y-56799998D03*
X125300000Y-56799998D03*
%TD*%
%TO.C,SW103*%
X118383332Y-61183332D03*
X111883332Y-61183332D03*
X118383332Y-56683332D03*
X111883332Y-56683332D03*
%TD*%
%TO.C,SW102*%
X104966666Y-61066666D03*
X98466666Y-61066666D03*
X104966666Y-56566666D03*
X98466666Y-56566666D03*
%TD*%
%TO.C,SW101*%
X91550000Y-60950000D03*
X85050000Y-60950000D03*
X91550000Y-56450000D03*
X85050000Y-56450000D03*
%TD*%
D13*
%TO.C,R101*%
X138150000Y-118000000D03*
X135050000Y-118000000D03*
%TD*%
D14*
%TO.C,Q101*%
X145120000Y-117950000D03*
X141700000Y-118900000D03*
X141700000Y-117000000D03*
%TD*%
D11*
%TO.C,J107*%
X56520000Y-56950000D03*
X59060000Y-56950000D03*
X61600000Y-56950000D03*
D10*
X64140000Y-56950000D03*
%TD*%
D11*
%TO.C,J106*%
X144500000Y-109200000D03*
D10*
X144500000Y-106660000D03*
%TD*%
%TO.C,J104*%
X120700000Y-72850000D03*
D11*
X120700000Y-75390000D03*
X120700000Y-77930000D03*
X120700000Y-80470000D03*
X120700000Y-83010000D03*
X120700000Y-85550000D03*
X120700000Y-88090000D03*
X120700000Y-90630000D03*
X120700000Y-93170000D03*
X120700000Y-95710000D03*
X120700000Y-98250000D03*
X120700000Y-100790000D03*
X120700000Y-103330000D03*
X120700000Y-105870000D03*
X120700000Y-108410000D03*
X120700000Y-110950000D03*
%TD*%
D10*
%TO.C,J103*%
X132700000Y-83030000D03*
D11*
X132700000Y-85570000D03*
X132700000Y-88110000D03*
X132700000Y-90650000D03*
X132700000Y-93190000D03*
X132700000Y-95730000D03*
X132700000Y-98270000D03*
X132700000Y-100810000D03*
%TD*%
%TO.C,J102*%
X132750000Y-109300000D03*
D10*
X132750000Y-106760000D03*
%TD*%
D11*
%TO.C,J101*%
X67100000Y-115800000D03*
X67100000Y-113260000D03*
D10*
X67100000Y-110720000D03*
%TD*%
D15*
%TO.C,H103*%
X76025000Y-136150000D03*
%TD*%
%TO.C,H102*%
X67500000Y-136250000D03*
%TD*%
%TO.C,H101*%
X58975000Y-136350000D03*
%TD*%
D16*
%TO.C,U101*%
X86050000Y-113750000D03*
D17*
X86050000Y-113100000D03*
D16*
X88050000Y-113750000D03*
D18*
X88050000Y-113100000D03*
D16*
X90050000Y-113750000D03*
D18*
X90050000Y-113100000D03*
D16*
X92050000Y-113750000D03*
D18*
X92050000Y-113100000D03*
D16*
X94050000Y-113750000D03*
D18*
X94050000Y-113100000D03*
D16*
X96050000Y-113750000D03*
D18*
X96050000Y-113100000D03*
D16*
X98050000Y-113750000D03*
D18*
X98050000Y-113100000D03*
D16*
X100050000Y-113750000D03*
D18*
X100050000Y-113100000D03*
D16*
X102050000Y-113750000D03*
D18*
X102050000Y-113100000D03*
D16*
X104050000Y-113750000D03*
D18*
X104050000Y-113100000D03*
X106050000Y-111100000D03*
D19*
X106700000Y-111100000D03*
D18*
X106050000Y-109100000D03*
D19*
X106700000Y-109100000D03*
D18*
X106050000Y-107100000D03*
D19*
X106700000Y-107100000D03*
D18*
X106050000Y-105100000D03*
D19*
X106700000Y-105100000D03*
D18*
X106050000Y-103100000D03*
D19*
X106700000Y-103100000D03*
D18*
X106050000Y-101100000D03*
D19*
X106700000Y-101100000D03*
D18*
X106050000Y-99100000D03*
D19*
X106700000Y-99100000D03*
D18*
X106050000Y-97100000D03*
D19*
X106700000Y-97100000D03*
D18*
X106050000Y-95100000D03*
D19*
X106700000Y-95100000D03*
D18*
X106050000Y-93100000D03*
D19*
X106700000Y-93100000D03*
D18*
X106050000Y-91100000D03*
D19*
X106700000Y-91100000D03*
D18*
X106050000Y-89100000D03*
D19*
X106700000Y-89100000D03*
D18*
X106050000Y-87100000D03*
D19*
X106700000Y-87100000D03*
D18*
X106050000Y-85100000D03*
D19*
X106700000Y-85100000D03*
D18*
X106050000Y-83100000D03*
D19*
X106700000Y-83100000D03*
D18*
X106050000Y-81100000D03*
D19*
X106700000Y-81100000D03*
D18*
X106050000Y-79100000D03*
D19*
X106700000Y-79100000D03*
D18*
X106050000Y-77100000D03*
D19*
X106700000Y-77100000D03*
D18*
X106050000Y-75100000D03*
D19*
X106700000Y-75100000D03*
D18*
X106050000Y-73100000D03*
D19*
X106700000Y-73100000D03*
X83400000Y-93100000D03*
D18*
X84050000Y-93100000D03*
D19*
X83400000Y-95100000D03*
D18*
X84050000Y-95100000D03*
D19*
X83400000Y-97100000D03*
D18*
X84050000Y-97100000D03*
D19*
X83400000Y-99100000D03*
D18*
X84050000Y-99100000D03*
D19*
X83400000Y-101100000D03*
D18*
X84050000Y-101100000D03*
D19*
X83400000Y-103100000D03*
D18*
X84050000Y-103100000D03*
D19*
X83400000Y-105100000D03*
D18*
X84050000Y-105100000D03*
D19*
X83400000Y-107100000D03*
D18*
X84050000Y-107100000D03*
D19*
X83400000Y-109100000D03*
D18*
X84050000Y-109100000D03*
D19*
X83400000Y-111100000D03*
D18*
X84050000Y-111100000D03*
X104050000Y-71100000D03*
D16*
X104050000Y-70450000D03*
D18*
X102050000Y-71100000D03*
D16*
X102050000Y-70450000D03*
D18*
X100050000Y-71100000D03*
D16*
X100050000Y-70450000D03*
D18*
X98050000Y-71100000D03*
D16*
X98050000Y-70450000D03*
D18*
X96050000Y-71100000D03*
D16*
X96050000Y-70450000D03*
D18*
X94050000Y-71100000D03*
D16*
X94050000Y-70450000D03*
D18*
X92050000Y-71100000D03*
D16*
X92050000Y-70450000D03*
D18*
X90050000Y-71100000D03*
D16*
X90050000Y-70450000D03*
D18*
X88050000Y-71100000D03*
D16*
X88050000Y-70450000D03*
D18*
X86050000Y-71100000D03*
D16*
X86050000Y-70450000D03*
D19*
X83400000Y-73100000D03*
D18*
X84050000Y-73100000D03*
D19*
X83400000Y-75100000D03*
D18*
X84050000Y-75100000D03*
D19*
X83400000Y-77100000D03*
D18*
X84050000Y-77100000D03*
D19*
X83400000Y-79100000D03*
D18*
X84050000Y-79100000D03*
D19*
X83400000Y-81100000D03*
D18*
X84050000Y-81100000D03*
D19*
X83400000Y-83100000D03*
D18*
X84050000Y-83100000D03*
D19*
X83400000Y-85100000D03*
D18*
X84050000Y-85100000D03*
D19*
X83400000Y-87100000D03*
D18*
X84050000Y-87100000D03*
D19*
X83400000Y-89100000D03*
D18*
X84050000Y-89100000D03*
D19*
X83400000Y-91100000D03*
D18*
X84050000Y-91100000D03*
%TD*%
D20*
%TO.C,Z101*%
X77242000Y-144948000D03*
X79782000Y-144948000D03*
X82322000Y-144948000D03*
X84862000Y-144948000D03*
X89942000Y-144948000D03*
X92482000Y-144948000D03*
X95022000Y-144948000D03*
X97562000Y-144948000D03*
X100102000Y-144948000D03*
X102642000Y-144948000D03*
X105182000Y-144948000D03*
X107722000Y-144948000D03*
X110262000Y-144948000D03*
X112802000Y-144948000D03*
X115342000Y-144948000D03*
X117882000Y-144948000D03*
X120422000Y-144948000D03*
X122962000Y-144948000D03*
X125502000Y-144948000D03*
X128042000Y-144948000D03*
X130582000Y-144948000D03*
X133122000Y-144948000D03*
X135662000Y-144948000D03*
X138202000Y-144948000D03*
X140742000Y-144948000D03*
X143282000Y-144948000D03*
X145822000Y-144948000D03*
X77242000Y-150028000D03*
X79782000Y-150028000D03*
X82322000Y-150028000D03*
X84862000Y-150028000D03*
X89942000Y-150028000D03*
X92482000Y-150028000D03*
X95022000Y-150028000D03*
X97562000Y-150028000D03*
X100102000Y-150028000D03*
X102642000Y-150028000D03*
X105182000Y-150028000D03*
X107722000Y-150028000D03*
X110262000Y-150028000D03*
X112802000Y-150028000D03*
X115342000Y-150028000D03*
X117882000Y-150028000D03*
X120422000Y-150028000D03*
X122962000Y-150028000D03*
X125502000Y-150028000D03*
X128042000Y-150028000D03*
X130582000Y-150028000D03*
X133122000Y-150028000D03*
X135662000Y-150028000D03*
X138202000Y-150028000D03*
X140742000Y-150028000D03*
X143282000Y-150028000D03*
X145822000Y-150028000D03*
%TD*%
G36*
X149730121Y-53096002D02*
G01*
X149776614Y-53149658D01*
X149788000Y-53202000D01*
X149788000Y-65040000D01*
X149767998Y-65108121D01*
X149714342Y-65154614D01*
X149662000Y-65166000D01*
X136406496Y-65166000D01*
X136338375Y-65145998D01*
X136291882Y-65092342D01*
X136280497Y-65039505D01*
X136327046Y-53201505D01*
X136347316Y-53133463D01*
X136401154Y-53087181D01*
X136453045Y-53076000D01*
X149662000Y-53076000D01*
X149730121Y-53096002D01*
G37*
M02*
